%TF.GenerationSoftware,KiCad,Pcbnew,5.1.8-4.fc33*%
%TF.CreationDate,2020-12-19T18:54:55+03:00*%
%TF.ProjectId,2232,32323332-2e6b-4696-9361-645f70636258,rev?*%
%TF.SameCoordinates,Original*%
%TF.FileFunction,Soldermask,Top*%
%TF.FilePolarity,Negative*%
%FSLAX46Y46*%
G04 Gerber Fmt 4.6, Leading zero omitted, Abs format (unit mm)*
G04 Created by KiCad (PCBNEW 5.1.8-4.fc33) date 2020-12-19 18:54:55*
%MOMM*%
%LPD*%
G01*
G04 APERTURE LIST*
%ADD10R,1.727200X1.727200*%
%ADD11O,1.727200X1.727200*%
%ADD12C,1.600000*%
%ADD13R,1.300000X5.100000*%
%ADD14R,5.100000X1.300000*%
%ADD15C,2.200000*%
%ADD16C,2.500000*%
%ADD17C,1.500000*%
%ADD18R,1.500000X1.500000*%
%ADD19O,3.000000X2.000000*%
G04 APERTURE END LIST*
D10*
%TO.C,J5*%
X131230000Y-99920000D03*
D11*
X133770000Y-99920000D03*
X131230000Y-102460000D03*
X133770000Y-102460000D03*
X131230000Y-105000000D03*
X133770000Y-105000000D03*
X131230000Y-107540000D03*
X133770000Y-107540000D03*
X131230000Y-110080000D03*
X133770000Y-110080000D03*
%TD*%
D12*
%TO.C,J2*%
X108270000Y-87540000D03*
X105730000Y-87540000D03*
X108270000Y-85000000D03*
X105730000Y-85000000D03*
X108270000Y-82460000D03*
X105730000Y-82460000D03*
%TD*%
D13*
%TO.C,Y2*%
X109000000Y-96650000D03*
X109000000Y-105850000D03*
%TD*%
D14*
%TO.C,Y1*%
X74900000Y-107000000D03*
X84100000Y-107000000D03*
%TD*%
D15*
%TO.C,J8*%
X65000000Y-74750000D03*
X65000000Y-71250000D03*
X65000000Y-81750000D03*
X65000000Y-78250000D03*
X65000000Y-85250000D03*
X65000000Y-88750000D03*
%TD*%
%TO.C,J7*%
X65000000Y-114750000D03*
X65000000Y-111250000D03*
X65000000Y-121750000D03*
X65000000Y-118250000D03*
X65000000Y-125250000D03*
X65000000Y-128750000D03*
%TD*%
D16*
%TO.C,J6*%
X133000000Y-79000000D03*
D17*
X130700000Y-83470000D03*
D18*
X128160000Y-82450000D03*
D17*
X130700000Y-85510000D03*
X128160000Y-84490000D03*
X130700000Y-87550000D03*
D16*
X133000000Y-91000000D03*
D17*
X128160000Y-86530000D03*
%TD*%
D10*
%TO.C,J4*%
X118770000Y-110080000D03*
D11*
X116230000Y-110080000D03*
X118770000Y-107540000D03*
X116230000Y-107540000D03*
X118770000Y-105000000D03*
X116230000Y-105000000D03*
X118770000Y-102460000D03*
X116230000Y-102460000D03*
X118770000Y-99920000D03*
X116230000Y-99920000D03*
%TD*%
D10*
%TO.C,J3*%
X116230000Y-82460000D03*
D11*
X118770000Y-82460000D03*
X116230000Y-85000000D03*
X118770000Y-85000000D03*
X116230000Y-87540000D03*
X118770000Y-87540000D03*
%TD*%
D19*
%TO.C,E1*%
X114270000Y-121190000D03*
X114270000Y-126270000D03*
X114270000Y-128810000D03*
X114270000Y-123730000D03*
X110730000Y-121190000D03*
X110730000Y-123730000D03*
X110730000Y-128810000D03*
X110730000Y-126270000D03*
%TD*%
D18*
%TO.C,D8*%
X105000000Y-128700000D03*
X105000000Y-131300000D03*
%TD*%
%TO.C,D7*%
X101500000Y-128700000D03*
X101500000Y-131300000D03*
%TD*%
%TO.C,D6*%
X98000000Y-128700000D03*
X98000000Y-131300000D03*
%TD*%
%TO.C,D5*%
X94500000Y-128700000D03*
X94500000Y-131300000D03*
%TD*%
%TO.C,D4*%
X91000000Y-128700000D03*
X91000000Y-131300000D03*
%TD*%
%TO.C,D3*%
X87500000Y-128700000D03*
X87500000Y-131300000D03*
%TD*%
%TO.C,D2*%
X84000000Y-128700000D03*
X84000000Y-131300000D03*
%TD*%
%TO.C,D1*%
X80500000Y-128700000D03*
X80500000Y-131300000D03*
%TD*%
M02*
