%TF.GenerationSoftware,KiCad,Pcbnew,5.1.8-4.fc33*%
%TF.CreationDate,2020-12-20T17:27:52+03:00*%
%TF.ProjectId,2232,32323332-2e6b-4696-9361-645f70636258,rev?*%
%TF.SameCoordinates,Original*%
%TF.FileFunction,Legend,Bot*%
%TF.FilePolarity,Positive*%
%FSLAX46Y46*%
G04 Gerber Fmt 4.6, Leading zero omitted, Abs format (unit mm)*
G04 Created by KiCad (PCBNEW 5.1.8-4.fc33) date 2020-12-20 17:27:52*
%MOMM*%
%LPD*%
G01*
G04 APERTURE LIST*
%ADD10C,0.150000*%
%ADD11C,0.120000*%
%ADD12C,0.100000*%
%ADD13C,0.200000*%
%ADD14C,2.000000*%
%ADD15R,0.900000X0.800000*%
%ADD16R,1.727200X1.727200*%
%ADD17O,1.727200X1.727200*%
%ADD18R,2.400000X2.000000*%
%ADD19R,1.200000X1.700000*%
%ADD20R,2.200000X0.900000*%
%ADD21R,2.400000X3.500000*%
%ADD22R,0.800000X1.600000*%
%ADD23R,1.800000X0.450000*%
%ADD24R,0.800000X0.900000*%
%ADD25C,1.600000*%
%ADD26O,3.000000X2.000000*%
%ADD27R,0.400000X1.500000*%
%ADD28R,1.500000X0.400000*%
%ADD29R,2.000000X0.600000*%
%ADD30R,0.900000X2.200000*%
%ADD31R,3.500000X2.400000*%
%ADD32R,0.900000X0.440000*%
%ADD33R,0.600000X1.000000*%
%ADD34R,0.400000X1.000000*%
%ADD35R,0.440000X0.900000*%
%ADD36R,2.350000X3.700000*%
%ADD37C,2.200000*%
%ADD38C,2.500000*%
%ADD39C,1.500000*%
%ADD40R,1.500000X1.500000*%
%ADD41R,2.100000X1.870000*%
%ADD42R,1.680000X0.450000*%
%ADD43R,1.900000X1.170000*%
%ADD44R,1.900000X2.375000*%
%ADD45R,2.200000X3.400000*%
%ADD46R,1.900000X1.400000*%
G04 APERTURE END LIST*
D10*
X138952380Y-71545357D02*
X137952380Y-71545357D01*
X138952380Y-72116785D01*
X137952380Y-72116785D01*
X137952380Y-72783452D02*
X137952380Y-72973928D01*
X138000000Y-73069166D01*
X138095238Y-73164404D01*
X138285714Y-73212023D01*
X138619047Y-73212023D01*
X138809523Y-73164404D01*
X138904761Y-73069166D01*
X138952380Y-72973928D01*
X138952380Y-72783452D01*
X138904761Y-72688214D01*
X138809523Y-72592976D01*
X138619047Y-72545357D01*
X138285714Y-72545357D01*
X138095238Y-72592976D01*
X138000000Y-72688214D01*
X137952380Y-72783452D01*
X137952380Y-73497738D02*
X137952380Y-74069166D01*
X138952380Y-73783452D02*
X137952380Y-73783452D01*
X138428571Y-74402500D02*
X138428571Y-74735833D01*
X138952380Y-74878690D02*
X138952380Y-74402500D01*
X137952380Y-74402500D01*
X137952380Y-74878690D01*
X138857142Y-75307261D02*
X138904761Y-75354880D01*
X138952380Y-75307261D01*
X138904761Y-75259642D01*
X138857142Y-75307261D01*
X138952380Y-75307261D01*
X138333333Y-75307261D02*
X138380952Y-75354880D01*
X138428571Y-75307261D01*
X138380952Y-75259642D01*
X138333333Y-75307261D01*
X138428571Y-75307261D01*
X137952380Y-76402500D02*
X137952380Y-76973928D01*
X138952380Y-76688214D02*
X137952380Y-76688214D01*
X137952380Y-77212023D02*
X138952380Y-77878690D01*
X137952380Y-77878690D02*
X138952380Y-77212023D01*
X138285714Y-78259642D02*
X138952380Y-78259642D01*
X138380952Y-78259642D02*
X138333333Y-78307261D01*
X138285714Y-78402500D01*
X138285714Y-78545357D01*
X138333333Y-78640595D01*
X138428571Y-78688214D01*
X138952380Y-78688214D01*
X138952380Y-79926309D02*
X137952380Y-79926309D01*
X138952380Y-80354880D02*
X138428571Y-80354880D01*
X138333333Y-80307261D01*
X138285714Y-80212023D01*
X138285714Y-80069166D01*
X138333333Y-79973928D01*
X138380952Y-79926309D01*
X138904761Y-81212023D02*
X138952380Y-81116785D01*
X138952380Y-80926309D01*
X138904761Y-80831071D01*
X138809523Y-80783452D01*
X138428571Y-80783452D01*
X138333333Y-80831071D01*
X138285714Y-80926309D01*
X138285714Y-81116785D01*
X138333333Y-81212023D01*
X138428571Y-81259642D01*
X138523809Y-81259642D01*
X138619047Y-80783452D01*
X138952380Y-81688214D02*
X138285714Y-81688214D01*
X138476190Y-81688214D02*
X138380952Y-81735833D01*
X138333333Y-81783452D01*
X138285714Y-81878690D01*
X138285714Y-81973928D01*
X138904761Y-82688214D02*
X138952380Y-82592976D01*
X138952380Y-82402500D01*
X138904761Y-82307261D01*
X138809523Y-82259642D01*
X138428571Y-82259642D01*
X138333333Y-82307261D01*
X138285714Y-82402500D01*
X138285714Y-82592976D01*
X138333333Y-82688214D01*
X138428571Y-82735833D01*
X138523809Y-82735833D01*
X138619047Y-82259642D01*
X138952380Y-83926309D02*
X138285714Y-83926309D01*
X137952380Y-83926309D02*
X138000000Y-83878690D01*
X138047619Y-83926309D01*
X138000000Y-83973928D01*
X137952380Y-83926309D01*
X138047619Y-83926309D01*
X138904761Y-84354880D02*
X138952380Y-84450119D01*
X138952380Y-84640595D01*
X138904761Y-84735833D01*
X138809523Y-84783452D01*
X138761904Y-84783452D01*
X138666666Y-84735833D01*
X138619047Y-84640595D01*
X138619047Y-84497738D01*
X138571428Y-84402500D01*
X138476190Y-84354880D01*
X138428571Y-84354880D01*
X138333333Y-84402500D01*
X138285714Y-84497738D01*
X138285714Y-84640595D01*
X138333333Y-84735833D01*
X137952380Y-86164404D02*
X137952380Y-86354880D01*
X138000000Y-86450119D01*
X138095238Y-86545357D01*
X138285714Y-86592976D01*
X138619047Y-86592976D01*
X138809523Y-86545357D01*
X138904761Y-86450119D01*
X138952380Y-86354880D01*
X138952380Y-86164404D01*
X138904761Y-86069166D01*
X138809523Y-85973928D01*
X138619047Y-85926309D01*
X138285714Y-85926309D01*
X138095238Y-85973928D01*
X138000000Y-86069166D01*
X137952380Y-86164404D01*
X137952380Y-87021547D02*
X138761904Y-87021547D01*
X138857142Y-87069166D01*
X138904761Y-87116785D01*
X138952380Y-87212023D01*
X138952380Y-87402500D01*
X138904761Y-87497738D01*
X138857142Y-87545357D01*
X138761904Y-87592976D01*
X137952380Y-87592976D01*
X137952380Y-87926309D02*
X137952380Y-88497738D01*
X138952380Y-88212023D02*
X137952380Y-88212023D01*
X138952380Y-88831071D02*
X137952380Y-88831071D01*
X137952380Y-89212023D01*
X138000000Y-89307261D01*
X138047619Y-89354880D01*
X138142857Y-89402500D01*
X138285714Y-89402500D01*
X138380952Y-89354880D01*
X138428571Y-89307261D01*
X138476190Y-89212023D01*
X138476190Y-88831071D01*
X137952380Y-89831071D02*
X138761904Y-89831071D01*
X138857142Y-89878690D01*
X138904761Y-89926309D01*
X138952380Y-90021547D01*
X138952380Y-90212023D01*
X138904761Y-90307261D01*
X138857142Y-90354880D01*
X138761904Y-90402500D01*
X137952380Y-90402500D01*
X137952380Y-90735833D02*
X137952380Y-91307261D01*
X138952380Y-91021547D02*
X137952380Y-91021547D01*
X134192738Y-87952380D02*
X134526071Y-87476190D01*
X134764166Y-87952380D02*
X134764166Y-86952380D01*
X134383214Y-86952380D01*
X134287976Y-87000000D01*
X134240357Y-87047619D01*
X134192738Y-87142857D01*
X134192738Y-87285714D01*
X134240357Y-87380952D01*
X134287976Y-87428571D01*
X134383214Y-87476190D01*
X134764166Y-87476190D01*
X133859404Y-86952380D02*
X133192738Y-87952380D01*
X133192738Y-86952380D02*
X133859404Y-87952380D01*
X132287976Y-87952380D02*
X132859404Y-87952380D01*
X132573690Y-87952380D02*
X132573690Y-86952380D01*
X132668928Y-87095238D01*
X132764166Y-87190476D01*
X132859404Y-87238095D01*
X134383214Y-85000000D02*
X134478452Y-84952380D01*
X134621309Y-84952380D01*
X134764166Y-85000000D01*
X134859404Y-85095238D01*
X134907023Y-85190476D01*
X134954642Y-85380952D01*
X134954642Y-85523809D01*
X134907023Y-85714285D01*
X134859404Y-85809523D01*
X134764166Y-85904761D01*
X134621309Y-85952380D01*
X134526071Y-85952380D01*
X134383214Y-85904761D01*
X134335595Y-85857142D01*
X134335595Y-85523809D01*
X134526071Y-85523809D01*
X133907023Y-85952380D02*
X133907023Y-84952380D01*
X133335595Y-85952380D01*
X133335595Y-84952380D01*
X132859404Y-85952380D02*
X132859404Y-84952380D01*
X132621309Y-84952380D01*
X132478452Y-85000000D01*
X132383214Y-85095238D01*
X132335595Y-85190476D01*
X132287976Y-85380952D01*
X132287976Y-85523809D01*
X132335595Y-85714285D01*
X132383214Y-85809523D01*
X132478452Y-85904761D01*
X132621309Y-85952380D01*
X132859404Y-85952380D01*
X134192738Y-83952380D02*
X134526071Y-83476190D01*
X134764166Y-83952380D02*
X134764166Y-82952380D01*
X134383214Y-82952380D01*
X134287976Y-83000000D01*
X134240357Y-83047619D01*
X134192738Y-83142857D01*
X134192738Y-83285714D01*
X134240357Y-83380952D01*
X134287976Y-83428571D01*
X134383214Y-83476190D01*
X134764166Y-83476190D01*
X133859404Y-82952380D02*
X133192738Y-83952380D01*
X133192738Y-82952380D02*
X133859404Y-83952380D01*
X132859404Y-83047619D02*
X132811785Y-83000000D01*
X132716547Y-82952380D01*
X132478452Y-82952380D01*
X132383214Y-83000000D01*
X132335595Y-83047619D01*
X132287976Y-83142857D01*
X132287976Y-83238095D01*
X132335595Y-83380952D01*
X132907023Y-83952380D01*
X132287976Y-83952380D01*
X126807261Y-85952380D02*
X126235833Y-85952380D01*
X126521547Y-86952380D02*
X126521547Y-85952380D01*
X125997738Y-85952380D02*
X125331071Y-86952380D01*
X125331071Y-85952380D02*
X125997738Y-86952380D01*
X124426309Y-86952380D02*
X124997738Y-86952380D01*
X124712023Y-86952380D02*
X124712023Y-85952380D01*
X124807261Y-86095238D01*
X124902500Y-86190476D01*
X124997738Y-86238095D01*
X126807261Y-83952380D02*
X126235833Y-83952380D01*
X126521547Y-84952380D02*
X126521547Y-83952380D01*
X125997738Y-83952380D02*
X125331071Y-84952380D01*
X125331071Y-83952380D02*
X125997738Y-84952380D01*
X124997738Y-84047619D02*
X124950119Y-84000000D01*
X124854880Y-83952380D01*
X124616785Y-83952380D01*
X124521547Y-84000000D01*
X124473928Y-84047619D01*
X124426309Y-84142857D01*
X124426309Y-84238095D01*
X124473928Y-84380952D01*
X125045357Y-84952380D01*
X124426309Y-84952380D01*
X126140595Y-82952380D02*
X126712023Y-82952380D01*
X126426309Y-82952380D02*
X126426309Y-81952380D01*
X126521547Y-82095238D01*
X126616785Y-82190476D01*
X126712023Y-82238095D01*
X125759642Y-82047619D02*
X125712023Y-82000000D01*
X125616785Y-81952380D01*
X125378690Y-81952380D01*
X125283452Y-82000000D01*
X125235833Y-82047619D01*
X125188214Y-82142857D01*
X125188214Y-82238095D01*
X125235833Y-82380952D01*
X125807261Y-82952380D01*
X125188214Y-82952380D01*
X124902500Y-81952380D02*
X124569166Y-82952380D01*
X124235833Y-81952380D01*
X113842976Y-87952380D02*
X114176309Y-87476190D01*
X114414404Y-87952380D02*
X114414404Y-86952380D01*
X114033452Y-86952380D01*
X113938214Y-87000000D01*
X113890595Y-87047619D01*
X113842976Y-87142857D01*
X113842976Y-87285714D01*
X113890595Y-87380952D01*
X113938214Y-87428571D01*
X114033452Y-87476190D01*
X114414404Y-87476190D01*
X113462023Y-87904761D02*
X113319166Y-87952380D01*
X113081071Y-87952380D01*
X112985833Y-87904761D01*
X112938214Y-87857142D01*
X112890595Y-87761904D01*
X112890595Y-87666666D01*
X112938214Y-87571428D01*
X112985833Y-87523809D01*
X113081071Y-87476190D01*
X113271547Y-87428571D01*
X113366785Y-87380952D01*
X113414404Y-87333333D01*
X113462023Y-87238095D01*
X113462023Y-87142857D01*
X113414404Y-87047619D01*
X113366785Y-87000000D01*
X113271547Y-86952380D01*
X113033452Y-86952380D01*
X112890595Y-87000000D01*
X112604880Y-86952380D02*
X112033452Y-86952380D01*
X112319166Y-87952380D02*
X112319166Y-86952380D01*
X113842976Y-85357142D02*
X113890595Y-85404761D01*
X114033452Y-85452380D01*
X114128690Y-85452380D01*
X114271547Y-85404761D01*
X114366785Y-85309523D01*
X114414404Y-85214285D01*
X114462023Y-85023809D01*
X114462023Y-84880952D01*
X114414404Y-84690476D01*
X114366785Y-84595238D01*
X114271547Y-84500000D01*
X114128690Y-84452380D01*
X114033452Y-84452380D01*
X113890595Y-84500000D01*
X113842976Y-84547619D01*
X112938214Y-85452380D02*
X113414404Y-85452380D01*
X113414404Y-84452380D01*
X112604880Y-85452380D02*
X112604880Y-84452380D01*
X112033452Y-85452380D02*
X112462023Y-84880952D01*
X112033452Y-84452380D02*
X112604880Y-85023809D01*
X114414404Y-82952380D02*
X114414404Y-81952380D01*
X114081071Y-82666666D01*
X113747738Y-81952380D01*
X113747738Y-82952380D01*
X113271547Y-82952380D02*
X113271547Y-81952380D01*
X112842976Y-82904761D02*
X112700119Y-82952380D01*
X112462023Y-82952380D01*
X112366785Y-82904761D01*
X112319166Y-82857142D01*
X112271547Y-82761904D01*
X112271547Y-82666666D01*
X112319166Y-82571428D01*
X112366785Y-82523809D01*
X112462023Y-82476190D01*
X112652500Y-82428571D01*
X112747738Y-82380952D01*
X112795357Y-82333333D01*
X112842976Y-82238095D01*
X112842976Y-82142857D01*
X112795357Y-82047619D01*
X112747738Y-82000000D01*
X112652500Y-81952380D01*
X112414404Y-81952380D01*
X112271547Y-82000000D01*
X111652500Y-81952380D02*
X111462023Y-81952380D01*
X111366785Y-82000000D01*
X111271547Y-82095238D01*
X111223928Y-82285714D01*
X111223928Y-82619047D01*
X111271547Y-82809523D01*
X111366785Y-82904761D01*
X111462023Y-82952380D01*
X111652500Y-82952380D01*
X111747738Y-82904761D01*
X111842976Y-82809523D01*
X111890595Y-82619047D01*
X111890595Y-82285714D01*
X111842976Y-82095238D01*
X111747738Y-82000000D01*
X111652500Y-81952380D01*
X122383214Y-87000000D02*
X122478452Y-86952380D01*
X122621309Y-86952380D01*
X122764166Y-87000000D01*
X122859404Y-87095238D01*
X122907023Y-87190476D01*
X122954642Y-87380952D01*
X122954642Y-87523809D01*
X122907023Y-87714285D01*
X122859404Y-87809523D01*
X122764166Y-87904761D01*
X122621309Y-87952380D01*
X122526071Y-87952380D01*
X122383214Y-87904761D01*
X122335595Y-87857142D01*
X122335595Y-87523809D01*
X122526071Y-87523809D01*
X121907023Y-87952380D02*
X121907023Y-86952380D01*
X121335595Y-87952380D01*
X121335595Y-86952380D01*
X120859404Y-87952380D02*
X120859404Y-86952380D01*
X120621309Y-86952380D01*
X120478452Y-87000000D01*
X120383214Y-87095238D01*
X120335595Y-87190476D01*
X120287976Y-87380952D01*
X120287976Y-87523809D01*
X120335595Y-87714285D01*
X120383214Y-87809523D01*
X120478452Y-87904761D01*
X120621309Y-87952380D01*
X120859404Y-87952380D01*
X123478452Y-85452380D02*
X123478452Y-84452380D01*
X123145119Y-85166666D01*
X122811785Y-84452380D01*
X122811785Y-85452380D01*
X122145119Y-84452380D02*
X121954642Y-84452380D01*
X121859404Y-84500000D01*
X121764166Y-84595238D01*
X121716547Y-84785714D01*
X121716547Y-85119047D01*
X121764166Y-85309523D01*
X121859404Y-85404761D01*
X121954642Y-85452380D01*
X122145119Y-85452380D01*
X122240357Y-85404761D01*
X122335595Y-85309523D01*
X122383214Y-85119047D01*
X122383214Y-84785714D01*
X122335595Y-84595238D01*
X122240357Y-84500000D01*
X122145119Y-84452380D01*
X121335595Y-85404761D02*
X121192738Y-85452380D01*
X120954642Y-85452380D01*
X120859404Y-85404761D01*
X120811785Y-85357142D01*
X120764166Y-85261904D01*
X120764166Y-85166666D01*
X120811785Y-85071428D01*
X120859404Y-85023809D01*
X120954642Y-84976190D01*
X121145119Y-84928571D01*
X121240357Y-84880952D01*
X121287976Y-84833333D01*
X121335595Y-84738095D01*
X121335595Y-84642857D01*
X121287976Y-84547619D01*
X121240357Y-84500000D01*
X121145119Y-84452380D01*
X120907023Y-84452380D01*
X120764166Y-84500000D01*
X120335595Y-85452380D02*
X120335595Y-84452380D01*
X122859404Y-81952380D02*
X122526071Y-82952380D01*
X122192738Y-81952380D01*
X121287976Y-82857142D02*
X121335595Y-82904761D01*
X121478452Y-82952380D01*
X121573690Y-82952380D01*
X121716547Y-82904761D01*
X121811785Y-82809523D01*
X121859404Y-82714285D01*
X121907023Y-82523809D01*
X121907023Y-82380952D01*
X121859404Y-82190476D01*
X121811785Y-82095238D01*
X121716547Y-82000000D01*
X121573690Y-81952380D01*
X121478452Y-81952380D01*
X121335595Y-82000000D01*
X121287976Y-82047619D01*
X120287976Y-82857142D02*
X120335595Y-82904761D01*
X120478452Y-82952380D01*
X120573690Y-82952380D01*
X120716547Y-82904761D01*
X120811785Y-82809523D01*
X120859404Y-82714285D01*
X120907023Y-82523809D01*
X120907023Y-82380952D01*
X120859404Y-82190476D01*
X120811785Y-82095238D01*
X120716547Y-82000000D01*
X120573690Y-81952380D01*
X120478452Y-81952380D01*
X120335595Y-82000000D01*
X120287976Y-82047619D01*
X114807261Y-109452380D02*
X114473928Y-110452380D01*
X114140595Y-109452380D01*
X113235833Y-110357142D02*
X113283452Y-110404761D01*
X113426309Y-110452380D01*
X113521547Y-110452380D01*
X113664404Y-110404761D01*
X113759642Y-110309523D01*
X113807261Y-110214285D01*
X113854880Y-110023809D01*
X113854880Y-109880952D01*
X113807261Y-109690476D01*
X113759642Y-109595238D01*
X113664404Y-109500000D01*
X113521547Y-109452380D01*
X113426309Y-109452380D01*
X113283452Y-109500000D01*
X113235833Y-109547619D01*
X112235833Y-110357142D02*
X112283452Y-110404761D01*
X112426309Y-110452380D01*
X112521547Y-110452380D01*
X112664404Y-110404761D01*
X112759642Y-110309523D01*
X112807261Y-110214285D01*
X112854880Y-110023809D01*
X112854880Y-109880952D01*
X112807261Y-109690476D01*
X112759642Y-109595238D01*
X112664404Y-109500000D01*
X112521547Y-109452380D01*
X112426309Y-109452380D01*
X112283452Y-109500000D01*
X112235833Y-109547619D01*
X114378690Y-108333333D02*
X114426309Y-108285714D01*
X114521547Y-108142857D01*
X114569166Y-108047619D01*
X114616785Y-107904761D01*
X114664404Y-107666666D01*
X114664404Y-107476190D01*
X114616785Y-107238095D01*
X114569166Y-107095238D01*
X114521547Y-107000000D01*
X114426309Y-106857142D01*
X114378690Y-106809523D01*
X113569166Y-107285714D02*
X113569166Y-107952380D01*
X113807261Y-106904761D02*
X114045357Y-107619047D01*
X113426309Y-107619047D01*
X113140595Y-108333333D02*
X113092976Y-108285714D01*
X112997738Y-108142857D01*
X112950119Y-108047619D01*
X112902500Y-107904761D01*
X112854880Y-107666666D01*
X112854880Y-107476190D01*
X112902500Y-107238095D01*
X112950119Y-107095238D01*
X112997738Y-107000000D01*
X113092976Y-106857142D01*
X113140595Y-106809523D01*
X114378690Y-105833333D02*
X114426309Y-105785714D01*
X114521547Y-105642857D01*
X114569166Y-105547619D01*
X114616785Y-105404761D01*
X114664404Y-105166666D01*
X114664404Y-104976190D01*
X114616785Y-104738095D01*
X114569166Y-104595238D01*
X114521547Y-104500000D01*
X114426309Y-104357142D01*
X114378690Y-104309523D01*
X113569166Y-104452380D02*
X113759642Y-104452380D01*
X113854880Y-104500000D01*
X113902500Y-104547619D01*
X113997738Y-104690476D01*
X114045357Y-104880952D01*
X114045357Y-105261904D01*
X113997738Y-105357142D01*
X113950119Y-105404761D01*
X113854880Y-105452380D01*
X113664404Y-105452380D01*
X113569166Y-105404761D01*
X113521547Y-105357142D01*
X113473928Y-105261904D01*
X113473928Y-105023809D01*
X113521547Y-104928571D01*
X113569166Y-104880952D01*
X113664404Y-104833333D01*
X113854880Y-104833333D01*
X113950119Y-104880952D01*
X113997738Y-104928571D01*
X114045357Y-105023809D01*
X113140595Y-105833333D02*
X113092976Y-105785714D01*
X112997738Y-105642857D01*
X112950119Y-105547619D01*
X112902500Y-105404761D01*
X112854880Y-105166666D01*
X112854880Y-104976190D01*
X112902500Y-104738095D01*
X112950119Y-104595238D01*
X112997738Y-104500000D01*
X113092976Y-104357142D01*
X113140595Y-104309523D01*
X114378690Y-103333333D02*
X114426309Y-103285714D01*
X114521547Y-103142857D01*
X114569166Y-103047619D01*
X114616785Y-102904761D01*
X114664404Y-102666666D01*
X114664404Y-102476190D01*
X114616785Y-102238095D01*
X114569166Y-102095238D01*
X114521547Y-102000000D01*
X114426309Y-101857142D01*
X114378690Y-101809523D01*
X113854880Y-102380952D02*
X113950119Y-102333333D01*
X113997738Y-102285714D01*
X114045357Y-102190476D01*
X114045357Y-102142857D01*
X113997738Y-102047619D01*
X113950119Y-102000000D01*
X113854880Y-101952380D01*
X113664404Y-101952380D01*
X113569166Y-102000000D01*
X113521547Y-102047619D01*
X113473928Y-102142857D01*
X113473928Y-102190476D01*
X113521547Y-102285714D01*
X113569166Y-102333333D01*
X113664404Y-102380952D01*
X113854880Y-102380952D01*
X113950119Y-102428571D01*
X113997738Y-102476190D01*
X114045357Y-102571428D01*
X114045357Y-102761904D01*
X113997738Y-102857142D01*
X113950119Y-102904761D01*
X113854880Y-102952380D01*
X113664404Y-102952380D01*
X113569166Y-102904761D01*
X113521547Y-102857142D01*
X113473928Y-102761904D01*
X113473928Y-102571428D01*
X113521547Y-102476190D01*
X113569166Y-102428571D01*
X113664404Y-102380952D01*
X113140595Y-103333333D02*
X113092976Y-103285714D01*
X112997738Y-103142857D01*
X112950119Y-103047619D01*
X112902500Y-102904761D01*
X112854880Y-102666666D01*
X112854880Y-102476190D01*
X112902500Y-102238095D01*
X112950119Y-102095238D01*
X112997738Y-102000000D01*
X113092976Y-101857142D01*
X113140595Y-101809523D01*
X114140595Y-99500000D02*
X114235833Y-99452380D01*
X114378690Y-99452380D01*
X114521547Y-99500000D01*
X114616785Y-99595238D01*
X114664404Y-99690476D01*
X114712023Y-99880952D01*
X114712023Y-100023809D01*
X114664404Y-100214285D01*
X114616785Y-100309523D01*
X114521547Y-100404761D01*
X114378690Y-100452380D01*
X114283452Y-100452380D01*
X114140595Y-100404761D01*
X114092976Y-100357142D01*
X114092976Y-100023809D01*
X114283452Y-100023809D01*
X113664404Y-100452380D02*
X113664404Y-99452380D01*
X113092976Y-100452380D01*
X113092976Y-99452380D01*
X112616785Y-100452380D02*
X112616785Y-99452380D01*
X112378690Y-99452380D01*
X112235833Y-99500000D01*
X112140595Y-99595238D01*
X112092976Y-99690476D01*
X112045357Y-99880952D01*
X112045357Y-100023809D01*
X112092976Y-100214285D01*
X112140595Y-100309523D01*
X112235833Y-100404761D01*
X112378690Y-100452380D01*
X112616785Y-100452380D01*
X123478452Y-100452380D02*
X123478452Y-99452380D01*
X123145119Y-100166666D01*
X122811785Y-99452380D01*
X122811785Y-100452380D01*
X122335595Y-100452380D02*
X122335595Y-99452380D01*
X121907023Y-100404761D02*
X121764166Y-100452380D01*
X121526071Y-100452380D01*
X121430833Y-100404761D01*
X121383214Y-100357142D01*
X121335595Y-100261904D01*
X121335595Y-100166666D01*
X121383214Y-100071428D01*
X121430833Y-100023809D01*
X121526071Y-99976190D01*
X121716547Y-99928571D01*
X121811785Y-99880952D01*
X121859404Y-99833333D01*
X121907023Y-99738095D01*
X121907023Y-99642857D01*
X121859404Y-99547619D01*
X121811785Y-99500000D01*
X121716547Y-99452380D01*
X121478452Y-99452380D01*
X121335595Y-99500000D01*
X120716547Y-99452380D02*
X120526071Y-99452380D01*
X120430833Y-99500000D01*
X120335595Y-99595238D01*
X120287976Y-99785714D01*
X120287976Y-100119047D01*
X120335595Y-100309523D01*
X120430833Y-100404761D01*
X120526071Y-100452380D01*
X120716547Y-100452380D01*
X120811785Y-100404761D01*
X120907023Y-100309523D01*
X120954642Y-100119047D01*
X120954642Y-99785714D01*
X120907023Y-99595238D01*
X120811785Y-99500000D01*
X120716547Y-99452380D01*
X121859404Y-108333333D02*
X121907023Y-108285714D01*
X122002261Y-108142857D01*
X122049880Y-108047619D01*
X122097500Y-107904761D01*
X122145119Y-107666666D01*
X122145119Y-107476190D01*
X122097500Y-107238095D01*
X122049880Y-107095238D01*
X122002261Y-107000000D01*
X121907023Y-106857142D01*
X121859404Y-106809523D01*
X121573690Y-106952380D02*
X120954642Y-106952380D01*
X121287976Y-107333333D01*
X121145119Y-107333333D01*
X121049880Y-107380952D01*
X121002261Y-107428571D01*
X120954642Y-107523809D01*
X120954642Y-107761904D01*
X121002261Y-107857142D01*
X121049880Y-107904761D01*
X121145119Y-107952380D01*
X121430833Y-107952380D01*
X121526071Y-107904761D01*
X121573690Y-107857142D01*
X120621309Y-108333333D02*
X120573690Y-108285714D01*
X120478452Y-108142857D01*
X120430833Y-108047619D01*
X120383214Y-107904761D01*
X120335595Y-107666666D01*
X120335595Y-107476190D01*
X120383214Y-107238095D01*
X120430833Y-107095238D01*
X120478452Y-107000000D01*
X120573690Y-106857142D01*
X120621309Y-106809523D01*
X122097500Y-102857142D02*
X122145119Y-102904761D01*
X122287976Y-102952380D01*
X122383214Y-102952380D01*
X122526071Y-102904761D01*
X122621309Y-102809523D01*
X122668928Y-102714285D01*
X122716547Y-102523809D01*
X122716547Y-102380952D01*
X122668928Y-102190476D01*
X122621309Y-102095238D01*
X122526071Y-102000000D01*
X122383214Y-101952380D01*
X122287976Y-101952380D01*
X122145119Y-102000000D01*
X122097500Y-102047619D01*
X121192738Y-102952380D02*
X121668928Y-102952380D01*
X121668928Y-101952380D01*
X120859404Y-102952380D02*
X120859404Y-101952380D01*
X120287976Y-102952380D02*
X120716547Y-102380952D01*
X120287976Y-101952380D02*
X120859404Y-102523809D01*
X122002261Y-105452380D02*
X122335595Y-104976190D01*
X122573690Y-105452380D02*
X122573690Y-104452380D01*
X122192738Y-104452380D01*
X122097500Y-104500000D01*
X122049880Y-104547619D01*
X122002261Y-104642857D01*
X122002261Y-104785714D01*
X122049880Y-104880952D01*
X122097500Y-104928571D01*
X122192738Y-104976190D01*
X122573690Y-104976190D01*
X121621309Y-105404761D02*
X121478452Y-105452380D01*
X121240357Y-105452380D01*
X121145119Y-105404761D01*
X121097500Y-105357142D01*
X121049880Y-105261904D01*
X121049880Y-105166666D01*
X121097500Y-105071428D01*
X121145119Y-105023809D01*
X121240357Y-104976190D01*
X121430833Y-104928571D01*
X121526071Y-104880952D01*
X121573690Y-104833333D01*
X121621309Y-104738095D01*
X121621309Y-104642857D01*
X121573690Y-104547619D01*
X121526071Y-104500000D01*
X121430833Y-104452380D01*
X121192738Y-104452380D01*
X121049880Y-104500000D01*
X120764166Y-104452380D02*
X120192738Y-104452380D01*
X120478452Y-105452380D02*
X120478452Y-104452380D01*
X123478452Y-110452380D02*
X123478452Y-109452380D01*
X123145119Y-110166666D01*
X122811785Y-109452380D01*
X122811785Y-110452380D01*
X122145119Y-109452380D02*
X121954642Y-109452380D01*
X121859404Y-109500000D01*
X121764166Y-109595238D01*
X121716547Y-109785714D01*
X121716547Y-110119047D01*
X121764166Y-110309523D01*
X121859404Y-110404761D01*
X121954642Y-110452380D01*
X122145119Y-110452380D01*
X122240357Y-110404761D01*
X122335595Y-110309523D01*
X122383214Y-110119047D01*
X122383214Y-109785714D01*
X122335595Y-109595238D01*
X122240357Y-109500000D01*
X122145119Y-109452380D01*
X121335595Y-110404761D02*
X121192738Y-110452380D01*
X120954642Y-110452380D01*
X120859404Y-110404761D01*
X120811785Y-110357142D01*
X120764166Y-110261904D01*
X120764166Y-110166666D01*
X120811785Y-110071428D01*
X120859404Y-110023809D01*
X120954642Y-109976190D01*
X121145119Y-109928571D01*
X121240357Y-109880952D01*
X121287976Y-109833333D01*
X121335595Y-109738095D01*
X121335595Y-109642857D01*
X121287976Y-109547619D01*
X121240357Y-109500000D01*
X121145119Y-109452380D01*
X120907023Y-109452380D01*
X120764166Y-109500000D01*
X120335595Y-110452380D02*
X120335595Y-109452380D01*
D11*
%TO.C,R15*%
X125850000Y-100300000D02*
X125850000Y-98700000D01*
X124650000Y-98700000D02*
X124650000Y-100300000D01*
%TO.C,R14*%
X127350000Y-100300000D02*
X127350000Y-98700000D01*
X126150000Y-98700000D02*
X126150000Y-100300000D01*
D10*
%TO.C,D10*%
X125100000Y-106200000D02*
X124300000Y-106200000D01*
X124300000Y-106200000D02*
X124300000Y-111800000D01*
X124300000Y-111800000D02*
X125100000Y-111800000D01*
X127900000Y-106200000D02*
X128700000Y-106200000D01*
X128700000Y-106200000D02*
X128700000Y-111800000D01*
X128700000Y-111800000D02*
X127900000Y-111800000D01*
D12*
G36*
X125100000Y-107200000D02*
G01*
X125100000Y-106800000D01*
X124300000Y-106800000D01*
X124300000Y-107200000D01*
X125100000Y-107200000D01*
G37*
X125100000Y-107200000D02*
X125100000Y-106800000D01*
X124300000Y-106800000D01*
X124300000Y-107200000D01*
X125100000Y-107200000D01*
G36*
X128700000Y-107200000D02*
G01*
X128700000Y-106800000D01*
X127900000Y-106800000D01*
X127900000Y-107200000D01*
X128700000Y-107200000D01*
G37*
X128700000Y-107200000D02*
X128700000Y-106800000D01*
X127900000Y-106800000D01*
X127900000Y-107200000D01*
X128700000Y-107200000D01*
D11*
%TO.C,R13*%
X128650000Y-91700000D02*
X128650000Y-93300000D01*
X129850000Y-93300000D02*
X129850000Y-91700000D01*
%TO.C,R12*%
X137350000Y-129300000D02*
X137350000Y-127700000D01*
X136150000Y-127700000D02*
X136150000Y-129300000D01*
%TO.C,R11*%
X135600000Y-129300000D02*
X135600000Y-127700000D01*
X134400000Y-127700000D02*
X134400000Y-129300000D01*
D13*
%TO.C,R9*%
X134500000Y-98350000D02*
X137500000Y-98350000D01*
X137500000Y-96150000D02*
X134500000Y-96150000D01*
D11*
%TO.C,R8*%
X135400000Y-86200000D02*
X135400000Y-87800000D01*
X136600000Y-87800000D02*
X136600000Y-86200000D01*
D10*
%TO.C,Q2*%
X121000000Y-91500000D02*
X121000000Y-90000000D01*
X121000000Y-90000000D02*
X125000000Y-90000000D01*
X125000000Y-90000000D02*
X125000000Y-90500000D01*
X121000000Y-95500000D02*
X121000000Y-97000000D01*
X121000000Y-97000000D02*
X125000000Y-97000000D01*
X125000000Y-97000000D02*
X125000000Y-96500000D01*
X125000000Y-92000000D02*
X125000000Y-92750000D01*
X125000000Y-94250000D02*
X125000000Y-95000000D01*
D13*
%TO.C,Q1*%
X134420000Y-92240000D02*
X135350000Y-92240000D01*
X137580000Y-92240000D02*
X136650000Y-92240000D01*
X134420000Y-92240000D02*
X134420000Y-93700000D01*
X135700000Y-93760000D02*
X136300000Y-93760000D01*
X137580000Y-92240000D02*
X137580000Y-93700000D01*
D10*
%TO.C,U5*%
X89775000Y-82550000D02*
X94225000Y-82550000D01*
X88250000Y-89450000D02*
X94225000Y-89450000D01*
D11*
%TO.C,C21*%
X98700000Y-90350000D02*
X100300000Y-90350000D01*
X100300000Y-89150000D02*
X98700000Y-89150000D01*
D10*
%TO.C,U3*%
X105175000Y-94825000D02*
X105175000Y-95400000D01*
X94825000Y-94825000D02*
X94825000Y-95500000D01*
X94825000Y-105175000D02*
X94825000Y-104500000D01*
X105175000Y-105175000D02*
X105175000Y-104500000D01*
X105175000Y-94825000D02*
X104500000Y-94825000D01*
X105175000Y-105175000D02*
X104500000Y-105175000D01*
X94825000Y-105175000D02*
X95500000Y-105175000D01*
X94825000Y-94825000D02*
X95500000Y-94825000D01*
X105175000Y-95400000D02*
X106450000Y-95400000D01*
D11*
%TO.C,C20*%
X98950000Y-108850000D02*
X100550000Y-108850000D01*
X100550000Y-107650000D02*
X98950000Y-107650000D01*
D10*
%TO.C,V4*%
X131500000Y-126500000D02*
G75*
G03*
X131500000Y-126500000I-6500000J0D01*
G01*
%TO.C,V3*%
X131500000Y-73500000D02*
G75*
G03*
X131500000Y-73500000I-6500000J0D01*
G01*
%TO.C,V2*%
X82500000Y-126500000D02*
G75*
G03*
X82500000Y-126500000I-6500000J0D01*
G01*
%TO.C,V1*%
X82500000Y-73500000D02*
G75*
G03*
X82500000Y-73500000I-6500000J0D01*
G01*
D11*
%TO.C,R10*%
X62700000Y-94850000D02*
X64300000Y-94850000D01*
X64300000Y-93650000D02*
X62700000Y-93650000D01*
%TO.C,R7*%
X89350000Y-118800000D02*
X89350000Y-117200000D01*
X88150000Y-117200000D02*
X88150000Y-118800000D01*
%TO.C,R6*%
X89350000Y-115300000D02*
X89350000Y-113700000D01*
X88150000Y-113700000D02*
X88150000Y-115300000D01*
D10*
%TO.C,U6*%
X91325000Y-70425000D02*
X91325000Y-70450000D01*
X87175000Y-70425000D02*
X87175000Y-70530000D01*
X87175000Y-80575000D02*
X87175000Y-80470000D01*
X91325000Y-80575000D02*
X91325000Y-80470000D01*
X91325000Y-70425000D02*
X87175000Y-70425000D01*
X91325000Y-80575000D02*
X87175000Y-80575000D01*
X91325000Y-70450000D02*
X92700000Y-70450000D01*
%TO.C,U4*%
X85225000Y-119200000D02*
X80775000Y-119200000D01*
X86750000Y-112300000D02*
X80775000Y-112300000D01*
%TO.C,U2*%
X133000000Y-121250000D02*
X131500000Y-121250000D01*
X131500000Y-121250000D02*
X131500000Y-117250000D01*
X131500000Y-117250000D02*
X132000000Y-117250000D01*
X137000000Y-121250000D02*
X138500000Y-121250000D01*
X138500000Y-121250000D02*
X138500000Y-117250000D01*
X138500000Y-117250000D02*
X138000000Y-117250000D01*
X133500000Y-117250000D02*
X134250000Y-117250000D01*
X135750000Y-117250000D02*
X136500000Y-117250000D01*
D11*
%TO.C,U1*%
X83160000Y-96390000D02*
X83610000Y-96390000D01*
X83610000Y-96390000D02*
X83610000Y-96840000D01*
X76840000Y-96390000D02*
X76390000Y-96390000D01*
X76390000Y-96390000D02*
X76390000Y-96840000D01*
X83160000Y-103610000D02*
X83610000Y-103610000D01*
X83610000Y-103610000D02*
X83610000Y-103160000D01*
X76840000Y-103610000D02*
X76390000Y-103610000D01*
X76390000Y-103610000D02*
X76390000Y-103160000D01*
X76390000Y-103160000D02*
X75100000Y-103160000D01*
D10*
%TO.C,RN7*%
X69950000Y-80100000D02*
X71550000Y-80100000D01*
X69950000Y-83400000D02*
X71550000Y-83400000D01*
%TO.C,RN6*%
X67950000Y-118350000D02*
X69550000Y-118350000D01*
X67950000Y-121650000D02*
X69550000Y-121650000D01*
%TO.C,RN5*%
X113550000Y-80900000D02*
X111950000Y-80900000D01*
X113550000Y-77600000D02*
X111950000Y-77600000D01*
%TO.C,RN2*%
X98100000Y-131800000D02*
X98100000Y-130200000D01*
X101400000Y-131800000D02*
X101400000Y-130200000D01*
%TO.C,RN1*%
X84100000Y-131800000D02*
X84100000Y-130200000D01*
X87400000Y-131800000D02*
X87400000Y-130200000D01*
D11*
%TO.C,R5*%
X68778000Y-105290000D02*
X65222000Y-105290000D01*
X68778000Y-108710000D02*
X65222000Y-108710000D01*
%TO.C,R4*%
X79200000Y-107800000D02*
X80800000Y-107800000D01*
X80800000Y-106600000D02*
X79200000Y-106600000D01*
%TO.C,R3*%
X71700000Y-102300000D02*
X73300000Y-102300000D01*
X73300000Y-101100000D02*
X71700000Y-101100000D01*
%TO.C,R2*%
X68200000Y-100100000D02*
X69800000Y-100100000D01*
X69800000Y-98900000D02*
X68200000Y-98900000D01*
%TO.C,R1*%
X68200000Y-101600000D02*
X69800000Y-101600000D01*
X69800000Y-100400000D02*
X68200000Y-100400000D01*
D13*
%TO.C,J1*%
X65500000Y-104500000D02*
X65500000Y-102100000D01*
X60500000Y-104500000D02*
X65500000Y-104500000D01*
X65500000Y-95500000D02*
X65500000Y-97900000D01*
X60500000Y-95500000D02*
X65500000Y-95500000D01*
%TO.C,D9*%
X115500000Y-69500000D02*
X115500000Y-68500000D01*
X115500000Y-68500000D02*
X107500000Y-68500000D01*
X107500000Y-68500000D02*
X107500000Y-69500000D01*
X115500000Y-73500000D02*
X115500000Y-74500000D01*
X115500000Y-74500000D02*
X107500000Y-74500000D01*
X107500000Y-74500000D02*
X107500000Y-73500000D01*
D12*
G36*
X114500000Y-68500000D02*
G01*
X114500000Y-69500000D01*
X113500000Y-69500000D01*
X113500000Y-68500000D01*
X114500000Y-68500000D01*
G37*
X114500000Y-68500000D02*
X114500000Y-69500000D01*
X113500000Y-69500000D01*
X113500000Y-68500000D01*
X114500000Y-68500000D01*
G36*
X114500000Y-73500000D02*
G01*
X114500000Y-74500000D01*
X113500000Y-74500000D01*
X113500000Y-73500000D01*
X114500000Y-73500000D01*
G37*
X114500000Y-73500000D02*
X114500000Y-74500000D01*
X113500000Y-74500000D01*
X113500000Y-73500000D01*
X114500000Y-73500000D01*
D11*
%TO.C,C19*%
X104700000Y-126600000D02*
X106300000Y-126600000D01*
X106300000Y-125400000D02*
X104700000Y-125400000D01*
%TO.C,C18*%
X94700000Y-77350000D02*
X96300000Y-77350000D01*
X96300000Y-76150000D02*
X94700000Y-76150000D01*
%TO.C,C17*%
X96850000Y-73050000D02*
X96850000Y-71450000D01*
X95650000Y-71450000D02*
X95650000Y-73050000D01*
%TO.C,C16*%
X96300000Y-74150000D02*
X94700000Y-74150000D01*
X94700000Y-75350000D02*
X96300000Y-75350000D01*
%TO.C,C15*%
X83400000Y-70950000D02*
X83400000Y-72550000D01*
X84600000Y-72550000D02*
X84600000Y-70950000D01*
%TO.C,C14*%
X95100000Y-73050000D02*
X95100000Y-71450000D01*
X93900000Y-71450000D02*
X93900000Y-73050000D01*
%TO.C,C13*%
X100300000Y-91150000D02*
X98700000Y-91150000D01*
X98700000Y-92350000D02*
X100300000Y-92350000D01*
D13*
%TO.C,C12*%
X127300000Y-115500000D02*
X127300000Y-118500000D01*
X129700000Y-118500000D02*
X129700000Y-115500000D01*
D11*
%TO.C,C11*%
X125400000Y-115950000D02*
X125400000Y-117550000D01*
X126600000Y-117550000D02*
X126600000Y-115950000D01*
%TO.C,C10*%
X110800000Y-100900000D02*
X109200000Y-100900000D01*
X109200000Y-102100000D02*
X110800000Y-102100000D01*
%TO.C,C9*%
X110800000Y-102650000D02*
X109200000Y-102650000D01*
X109200000Y-103850000D02*
X110800000Y-103850000D01*
D13*
%TO.C,C8*%
X116300000Y-130250000D02*
X116300000Y-133250000D01*
X118700000Y-133250000D02*
X118700000Y-130250000D01*
D11*
%TO.C,C7*%
X132200000Y-132850000D02*
X133800000Y-132850000D01*
X133800000Y-131650000D02*
X132200000Y-131650000D01*
%TO.C,C6*%
X75700000Y-94350000D02*
X77300000Y-94350000D01*
X77300000Y-93150000D02*
X75700000Y-93150000D01*
%TO.C,C5*%
X79200000Y-109350000D02*
X80800000Y-109350000D01*
X80800000Y-108150000D02*
X79200000Y-108150000D01*
%TO.C,C4*%
X78100000Y-107800000D02*
X78100000Y-106200000D01*
X76900000Y-106200000D02*
X76900000Y-107800000D01*
%TO.C,C3*%
X71700000Y-100850000D02*
X73300000Y-100850000D01*
X73300000Y-99650000D02*
X71700000Y-99650000D01*
%TO.C,C2*%
X77300000Y-109650000D02*
X75700000Y-109650000D01*
X75700000Y-110850000D02*
X77300000Y-110850000D01*
%TO.C,C1*%
X79200000Y-110850000D02*
X80800000Y-110850000D01*
X80800000Y-109650000D02*
X79200000Y-109650000D01*
%TO.C,R15*%
D10*
X125702380Y-102107142D02*
X125226190Y-101773809D01*
X125702380Y-101535714D02*
X124702380Y-101535714D01*
X124702380Y-101916666D01*
X124750000Y-102011904D01*
X124797619Y-102059523D01*
X124892857Y-102107142D01*
X125035714Y-102107142D01*
X125130952Y-102059523D01*
X125178571Y-102011904D01*
X125226190Y-101916666D01*
X125226190Y-101535714D01*
X125702380Y-103059523D02*
X125702380Y-102488095D01*
X125702380Y-102773809D02*
X124702380Y-102773809D01*
X124845238Y-102678571D01*
X124940476Y-102583333D01*
X124988095Y-102488095D01*
X124702380Y-103964285D02*
X124702380Y-103488095D01*
X125178571Y-103440476D01*
X125130952Y-103488095D01*
X125083333Y-103583333D01*
X125083333Y-103821428D01*
X125130952Y-103916666D01*
X125178571Y-103964285D01*
X125273809Y-104011904D01*
X125511904Y-104011904D01*
X125607142Y-103964285D01*
X125654761Y-103916666D01*
X125702380Y-103821428D01*
X125702380Y-103583333D01*
X125654761Y-103488095D01*
X125607142Y-103440476D01*
%TO.C,R14*%
X127202380Y-102107142D02*
X126726190Y-101773809D01*
X127202380Y-101535714D02*
X126202380Y-101535714D01*
X126202380Y-101916666D01*
X126250000Y-102011904D01*
X126297619Y-102059523D01*
X126392857Y-102107142D01*
X126535714Y-102107142D01*
X126630952Y-102059523D01*
X126678571Y-102011904D01*
X126726190Y-101916666D01*
X126726190Y-101535714D01*
X127202380Y-103059523D02*
X127202380Y-102488095D01*
X127202380Y-102773809D02*
X126202380Y-102773809D01*
X126345238Y-102678571D01*
X126440476Y-102583333D01*
X126488095Y-102488095D01*
X126535714Y-103916666D02*
X127202380Y-103916666D01*
X126154761Y-103678571D02*
X126869047Y-103440476D01*
X126869047Y-104059523D01*
%TO.C,D10*%
X124714285Y-113452380D02*
X124714285Y-112452380D01*
X124476190Y-112452380D01*
X124333333Y-112500000D01*
X124238095Y-112595238D01*
X124190476Y-112690476D01*
X124142857Y-112880952D01*
X124142857Y-113023809D01*
X124190476Y-113214285D01*
X124238095Y-113309523D01*
X124333333Y-113404761D01*
X124476190Y-113452380D01*
X124714285Y-113452380D01*
X123190476Y-113452380D02*
X123761904Y-113452380D01*
X123476190Y-113452380D02*
X123476190Y-112452380D01*
X123571428Y-112595238D01*
X123666666Y-112690476D01*
X123761904Y-112738095D01*
X122571428Y-112452380D02*
X122476190Y-112452380D01*
X122380952Y-112500000D01*
X122333333Y-112547619D01*
X122285714Y-112642857D01*
X122238095Y-112833333D01*
X122238095Y-113071428D01*
X122285714Y-113261904D01*
X122333333Y-113357142D01*
X122380952Y-113404761D01*
X122476190Y-113452380D01*
X122571428Y-113452380D01*
X122666666Y-113404761D01*
X122714285Y-113357142D01*
X122761904Y-113261904D01*
X122809523Y-113071428D01*
X122809523Y-112833333D01*
X122761904Y-112642857D01*
X122714285Y-112547619D01*
X122666666Y-112500000D01*
X122571428Y-112452380D01*
%TO.C,R13*%
X131452380Y-91857142D02*
X130976190Y-91523809D01*
X131452380Y-91285714D02*
X130452380Y-91285714D01*
X130452380Y-91666666D01*
X130500000Y-91761904D01*
X130547619Y-91809523D01*
X130642857Y-91857142D01*
X130785714Y-91857142D01*
X130880952Y-91809523D01*
X130928571Y-91761904D01*
X130976190Y-91666666D01*
X130976190Y-91285714D01*
X131452380Y-92809523D02*
X131452380Y-92238095D01*
X131452380Y-92523809D02*
X130452380Y-92523809D01*
X130595238Y-92428571D01*
X130690476Y-92333333D01*
X130738095Y-92238095D01*
X130452380Y-93142857D02*
X130452380Y-93761904D01*
X130833333Y-93428571D01*
X130833333Y-93571428D01*
X130880952Y-93666666D01*
X130928571Y-93714285D01*
X131023809Y-93761904D01*
X131261904Y-93761904D01*
X131357142Y-93714285D01*
X131404761Y-93666666D01*
X131452380Y-93571428D01*
X131452380Y-93285714D01*
X131404761Y-93190476D01*
X131357142Y-93142857D01*
%TO.C,R12*%
X137202380Y-124857142D02*
X136726190Y-124523809D01*
X137202380Y-124285714D02*
X136202380Y-124285714D01*
X136202380Y-124666666D01*
X136250000Y-124761904D01*
X136297619Y-124809523D01*
X136392857Y-124857142D01*
X136535714Y-124857142D01*
X136630952Y-124809523D01*
X136678571Y-124761904D01*
X136726190Y-124666666D01*
X136726190Y-124285714D01*
X137202380Y-125809523D02*
X137202380Y-125238095D01*
X137202380Y-125523809D02*
X136202380Y-125523809D01*
X136345238Y-125428571D01*
X136440476Y-125333333D01*
X136488095Y-125238095D01*
X136297619Y-126190476D02*
X136250000Y-126238095D01*
X136202380Y-126333333D01*
X136202380Y-126571428D01*
X136250000Y-126666666D01*
X136297619Y-126714285D01*
X136392857Y-126761904D01*
X136488095Y-126761904D01*
X136630952Y-126714285D01*
X137202380Y-126142857D01*
X137202380Y-126761904D01*
%TO.C,R11*%
X135452380Y-124857142D02*
X134976190Y-124523809D01*
X135452380Y-124285714D02*
X134452380Y-124285714D01*
X134452380Y-124666666D01*
X134500000Y-124761904D01*
X134547619Y-124809523D01*
X134642857Y-124857142D01*
X134785714Y-124857142D01*
X134880952Y-124809523D01*
X134928571Y-124761904D01*
X134976190Y-124666666D01*
X134976190Y-124285714D01*
X135452380Y-125809523D02*
X135452380Y-125238095D01*
X135452380Y-125523809D02*
X134452380Y-125523809D01*
X134595238Y-125428571D01*
X134690476Y-125333333D01*
X134738095Y-125238095D01*
X135452380Y-126761904D02*
X135452380Y-126190476D01*
X135452380Y-126476190D02*
X134452380Y-126476190D01*
X134595238Y-126380952D01*
X134690476Y-126285714D01*
X134738095Y-126190476D01*
%TO.C,R9*%
X132416666Y-97702380D02*
X132750000Y-97226190D01*
X132988095Y-97702380D02*
X132988095Y-96702380D01*
X132607142Y-96702380D01*
X132511904Y-96750000D01*
X132464285Y-96797619D01*
X132416666Y-96892857D01*
X132416666Y-97035714D01*
X132464285Y-97130952D01*
X132511904Y-97178571D01*
X132607142Y-97226190D01*
X132988095Y-97226190D01*
X131940476Y-97702380D02*
X131750000Y-97702380D01*
X131654761Y-97654761D01*
X131607142Y-97607142D01*
X131511904Y-97464285D01*
X131464285Y-97273809D01*
X131464285Y-96892857D01*
X131511904Y-96797619D01*
X131559523Y-96750000D01*
X131654761Y-96702380D01*
X131845238Y-96702380D01*
X131940476Y-96750000D01*
X131988095Y-96797619D01*
X132035714Y-96892857D01*
X132035714Y-97130952D01*
X131988095Y-97226190D01*
X131940476Y-97273809D01*
X131845238Y-97321428D01*
X131654761Y-97321428D01*
X131559523Y-97273809D01*
X131511904Y-97226190D01*
X131464285Y-97130952D01*
%TO.C,R8*%
X136452380Y-83583333D02*
X135976190Y-83250000D01*
X136452380Y-83011904D02*
X135452380Y-83011904D01*
X135452380Y-83392857D01*
X135500000Y-83488095D01*
X135547619Y-83535714D01*
X135642857Y-83583333D01*
X135785714Y-83583333D01*
X135880952Y-83535714D01*
X135928571Y-83488095D01*
X135976190Y-83392857D01*
X135976190Y-83011904D01*
X135880952Y-84154761D02*
X135833333Y-84059523D01*
X135785714Y-84011904D01*
X135690476Y-83964285D01*
X135642857Y-83964285D01*
X135547619Y-84011904D01*
X135500000Y-84059523D01*
X135452380Y-84154761D01*
X135452380Y-84345238D01*
X135500000Y-84440476D01*
X135547619Y-84488095D01*
X135642857Y-84535714D01*
X135690476Y-84535714D01*
X135785714Y-84488095D01*
X135833333Y-84440476D01*
X135880952Y-84345238D01*
X135880952Y-84154761D01*
X135928571Y-84059523D01*
X135976190Y-84011904D01*
X136071428Y-83964285D01*
X136261904Y-83964285D01*
X136357142Y-84011904D01*
X136404761Y-84059523D01*
X136452380Y-84154761D01*
X136452380Y-84345238D01*
X136404761Y-84440476D01*
X136357142Y-84488095D01*
X136261904Y-84535714D01*
X136071428Y-84535714D01*
X135976190Y-84488095D01*
X135928571Y-84440476D01*
X135880952Y-84345238D01*
%TO.C,Q2*%
X119095238Y-90797619D02*
X119190476Y-90750000D01*
X119285714Y-90654761D01*
X119428571Y-90511904D01*
X119523809Y-90464285D01*
X119619047Y-90464285D01*
X119571428Y-90702380D02*
X119666666Y-90654761D01*
X119761904Y-90559523D01*
X119809523Y-90369047D01*
X119809523Y-90035714D01*
X119761904Y-89845238D01*
X119666666Y-89750000D01*
X119571428Y-89702380D01*
X119380952Y-89702380D01*
X119285714Y-89750000D01*
X119190476Y-89845238D01*
X119142857Y-90035714D01*
X119142857Y-90369047D01*
X119190476Y-90559523D01*
X119285714Y-90654761D01*
X119380952Y-90702380D01*
X119571428Y-90702380D01*
X118761904Y-89797619D02*
X118714285Y-89750000D01*
X118619047Y-89702380D01*
X118380952Y-89702380D01*
X118285714Y-89750000D01*
X118238095Y-89797619D01*
X118190476Y-89892857D01*
X118190476Y-89988095D01*
X118238095Y-90130952D01*
X118809523Y-90702380D01*
X118190476Y-90702380D01*
%TO.C,Q1*%
X133095238Y-94047619D02*
X133190476Y-94000000D01*
X133285714Y-93904761D01*
X133428571Y-93761904D01*
X133523809Y-93714285D01*
X133619047Y-93714285D01*
X133571428Y-93952380D02*
X133666666Y-93904761D01*
X133761904Y-93809523D01*
X133809523Y-93619047D01*
X133809523Y-93285714D01*
X133761904Y-93095238D01*
X133666666Y-93000000D01*
X133571428Y-92952380D01*
X133380952Y-92952380D01*
X133285714Y-93000000D01*
X133190476Y-93095238D01*
X133142857Y-93285714D01*
X133142857Y-93619047D01*
X133190476Y-93809523D01*
X133285714Y-93904761D01*
X133380952Y-93952380D01*
X133571428Y-93952380D01*
X132190476Y-93952380D02*
X132761904Y-93952380D01*
X132476190Y-93952380D02*
X132476190Y-92952380D01*
X132571428Y-93095238D01*
X132666666Y-93190476D01*
X132761904Y-93238095D01*
%TO.C,U5*%
X92761904Y-90202380D02*
X92761904Y-91011904D01*
X92714285Y-91107142D01*
X92666666Y-91154761D01*
X92571428Y-91202380D01*
X92380952Y-91202380D01*
X92285714Y-91154761D01*
X92238095Y-91107142D01*
X92190476Y-91011904D01*
X92190476Y-90202380D01*
X91238095Y-90202380D02*
X91714285Y-90202380D01*
X91761904Y-90678571D01*
X91714285Y-90630952D01*
X91619047Y-90583333D01*
X91380952Y-90583333D01*
X91285714Y-90630952D01*
X91238095Y-90678571D01*
X91190476Y-90773809D01*
X91190476Y-91011904D01*
X91238095Y-91107142D01*
X91285714Y-91154761D01*
X91380952Y-91202380D01*
X91619047Y-91202380D01*
X91714285Y-91154761D01*
X91761904Y-91107142D01*
%TO.C,C21*%
X104206857Y-90107142D02*
X104254476Y-90154761D01*
X104397333Y-90202380D01*
X104492571Y-90202380D01*
X104635428Y-90154761D01*
X104730666Y-90059523D01*
X104778285Y-89964285D01*
X104825904Y-89773809D01*
X104825904Y-89630952D01*
X104778285Y-89440476D01*
X104730666Y-89345238D01*
X104635428Y-89250000D01*
X104492571Y-89202380D01*
X104397333Y-89202380D01*
X104254476Y-89250000D01*
X104206857Y-89297619D01*
X103825904Y-89297619D02*
X103778285Y-89250000D01*
X103683047Y-89202380D01*
X103444952Y-89202380D01*
X103349714Y-89250000D01*
X103302095Y-89297619D01*
X103254476Y-89392857D01*
X103254476Y-89488095D01*
X103302095Y-89630952D01*
X103873523Y-90202380D01*
X103254476Y-90202380D01*
X102302095Y-90202380D02*
X102873523Y-90202380D01*
X102587809Y-90202380D02*
X102587809Y-89202380D01*
X102683047Y-89345238D01*
X102778285Y-89440476D01*
X102873523Y-89488095D01*
%TO.C,U3*%
X107011904Y-105952380D02*
X107011904Y-106761904D01*
X106964285Y-106857142D01*
X106916666Y-106904761D01*
X106821428Y-106952380D01*
X106630952Y-106952380D01*
X106535714Y-106904761D01*
X106488095Y-106857142D01*
X106440476Y-106761904D01*
X106440476Y-105952380D01*
X106059523Y-105952380D02*
X105440476Y-105952380D01*
X105773809Y-106333333D01*
X105630952Y-106333333D01*
X105535714Y-106380952D01*
X105488095Y-106428571D01*
X105440476Y-106523809D01*
X105440476Y-106761904D01*
X105488095Y-106857142D01*
X105535714Y-106904761D01*
X105630952Y-106952380D01*
X105916666Y-106952380D01*
X106011904Y-106904761D01*
X106059523Y-106857142D01*
%TO.C,C20*%
X103642857Y-108607142D02*
X103690476Y-108654761D01*
X103833333Y-108702380D01*
X103928571Y-108702380D01*
X104071428Y-108654761D01*
X104166666Y-108559523D01*
X104214285Y-108464285D01*
X104261904Y-108273809D01*
X104261904Y-108130952D01*
X104214285Y-107940476D01*
X104166666Y-107845238D01*
X104071428Y-107750000D01*
X103928571Y-107702380D01*
X103833333Y-107702380D01*
X103690476Y-107750000D01*
X103642857Y-107797619D01*
X103261904Y-107797619D02*
X103214285Y-107750000D01*
X103119047Y-107702380D01*
X102880952Y-107702380D01*
X102785714Y-107750000D01*
X102738095Y-107797619D01*
X102690476Y-107892857D01*
X102690476Y-107988095D01*
X102738095Y-108130952D01*
X103309523Y-108702380D01*
X102690476Y-108702380D01*
X102071428Y-107702380D02*
X101976190Y-107702380D01*
X101880952Y-107750000D01*
X101833333Y-107797619D01*
X101785714Y-107892857D01*
X101738095Y-108083333D01*
X101738095Y-108321428D01*
X101785714Y-108511904D01*
X101833333Y-108607142D01*
X101880952Y-108654761D01*
X101976190Y-108702380D01*
X102071428Y-108702380D01*
X102166666Y-108654761D01*
X102214285Y-108607142D01*
X102261904Y-108511904D01*
X102309523Y-108321428D01*
X102309523Y-108083333D01*
X102261904Y-107892857D01*
X102214285Y-107797619D01*
X102166666Y-107750000D01*
X102071428Y-107702380D01*
%TO.C,R10*%
X64142857Y-93202380D02*
X64476190Y-92726190D01*
X64714285Y-93202380D02*
X64714285Y-92202380D01*
X64333333Y-92202380D01*
X64238095Y-92250000D01*
X64190476Y-92297619D01*
X64142857Y-92392857D01*
X64142857Y-92535714D01*
X64190476Y-92630952D01*
X64238095Y-92678571D01*
X64333333Y-92726190D01*
X64714285Y-92726190D01*
X63190476Y-93202380D02*
X63761904Y-93202380D01*
X63476190Y-93202380D02*
X63476190Y-92202380D01*
X63571428Y-92345238D01*
X63666666Y-92440476D01*
X63761904Y-92488095D01*
X62571428Y-92202380D02*
X62476190Y-92202380D01*
X62380952Y-92250000D01*
X62333333Y-92297619D01*
X62285714Y-92392857D01*
X62238095Y-92583333D01*
X62238095Y-92821428D01*
X62285714Y-93011904D01*
X62333333Y-93107142D01*
X62380952Y-93154761D01*
X62476190Y-93202380D01*
X62571428Y-93202380D01*
X62666666Y-93154761D01*
X62714285Y-93107142D01*
X62761904Y-93011904D01*
X62809523Y-92821428D01*
X62809523Y-92583333D01*
X62761904Y-92392857D01*
X62714285Y-92297619D01*
X62666666Y-92250000D01*
X62571428Y-92202380D01*
%TO.C,R7*%
X90952380Y-117833333D02*
X90476190Y-117500000D01*
X90952380Y-117261904D02*
X89952380Y-117261904D01*
X89952380Y-117642857D01*
X90000000Y-117738095D01*
X90047619Y-117785714D01*
X90142857Y-117833333D01*
X90285714Y-117833333D01*
X90380952Y-117785714D01*
X90428571Y-117738095D01*
X90476190Y-117642857D01*
X90476190Y-117261904D01*
X89952380Y-118166666D02*
X89952380Y-118833333D01*
X90952380Y-118404761D01*
%TO.C,R6*%
X90952380Y-114333333D02*
X90476190Y-114000000D01*
X90952380Y-113761904D02*
X89952380Y-113761904D01*
X89952380Y-114142857D01*
X90000000Y-114238095D01*
X90047619Y-114285714D01*
X90142857Y-114333333D01*
X90285714Y-114333333D01*
X90380952Y-114285714D01*
X90428571Y-114238095D01*
X90476190Y-114142857D01*
X90476190Y-113761904D01*
X89952380Y-115190476D02*
X89952380Y-115000000D01*
X90000000Y-114904761D01*
X90047619Y-114857142D01*
X90190476Y-114761904D01*
X90380952Y-114714285D01*
X90761904Y-114714285D01*
X90857142Y-114761904D01*
X90904761Y-114809523D01*
X90952380Y-114904761D01*
X90952380Y-115095238D01*
X90904761Y-115190476D01*
X90857142Y-115238095D01*
X90761904Y-115285714D01*
X90523809Y-115285714D01*
X90428571Y-115238095D01*
X90380952Y-115190476D01*
X90333333Y-115095238D01*
X90333333Y-114904761D01*
X90380952Y-114809523D01*
X90428571Y-114761904D01*
X90523809Y-114714285D01*
%TO.C,U6*%
X90011904Y-68952380D02*
X90011904Y-69761904D01*
X89964285Y-69857142D01*
X89916666Y-69904761D01*
X89821428Y-69952380D01*
X89630952Y-69952380D01*
X89535714Y-69904761D01*
X89488095Y-69857142D01*
X89440476Y-69761904D01*
X89440476Y-68952380D01*
X88535714Y-68952380D02*
X88726190Y-68952380D01*
X88821428Y-69000000D01*
X88869047Y-69047619D01*
X88964285Y-69190476D01*
X89011904Y-69380952D01*
X89011904Y-69761904D01*
X88964285Y-69857142D01*
X88916666Y-69904761D01*
X88821428Y-69952380D01*
X88630952Y-69952380D01*
X88535714Y-69904761D01*
X88488095Y-69857142D01*
X88440476Y-69761904D01*
X88440476Y-69523809D01*
X88488095Y-69428571D01*
X88535714Y-69380952D01*
X88630952Y-69333333D01*
X88821428Y-69333333D01*
X88916666Y-69380952D01*
X88964285Y-69428571D01*
X89011904Y-69523809D01*
%TO.C,U4*%
X83761904Y-119702380D02*
X83761904Y-120511904D01*
X83714285Y-120607142D01*
X83666666Y-120654761D01*
X83571428Y-120702380D01*
X83380952Y-120702380D01*
X83285714Y-120654761D01*
X83238095Y-120607142D01*
X83190476Y-120511904D01*
X83190476Y-119702380D01*
X82285714Y-120035714D02*
X82285714Y-120702380D01*
X82523809Y-119654761D02*
X82761904Y-120369047D01*
X82142857Y-120369047D01*
%TO.C,U2*%
X132761904Y-121952380D02*
X132761904Y-122761904D01*
X132714285Y-122857142D01*
X132666666Y-122904761D01*
X132571428Y-122952380D01*
X132380952Y-122952380D01*
X132285714Y-122904761D01*
X132238095Y-122857142D01*
X132190476Y-122761904D01*
X132190476Y-121952380D01*
X131761904Y-122047619D02*
X131714285Y-122000000D01*
X131619047Y-121952380D01*
X131380952Y-121952380D01*
X131285714Y-122000000D01*
X131238095Y-122047619D01*
X131190476Y-122142857D01*
X131190476Y-122238095D01*
X131238095Y-122380952D01*
X131809523Y-122952380D01*
X131190476Y-122952380D01*
%TO.C,U1*%
X85761904Y-94702380D02*
X85761904Y-95511904D01*
X85714285Y-95607142D01*
X85666666Y-95654761D01*
X85571428Y-95702380D01*
X85380952Y-95702380D01*
X85285714Y-95654761D01*
X85238095Y-95607142D01*
X85190476Y-95511904D01*
X85190476Y-94702380D01*
X84190476Y-95702380D02*
X84761904Y-95702380D01*
X84476190Y-95702380D02*
X84476190Y-94702380D01*
X84571428Y-94845238D01*
X84666666Y-94940476D01*
X84761904Y-94988095D01*
%TO.C,RN7*%
X71440476Y-85202380D02*
X71773809Y-84726190D01*
X72011904Y-85202380D02*
X72011904Y-84202380D01*
X71630952Y-84202380D01*
X71535714Y-84250000D01*
X71488095Y-84297619D01*
X71440476Y-84392857D01*
X71440476Y-84535714D01*
X71488095Y-84630952D01*
X71535714Y-84678571D01*
X71630952Y-84726190D01*
X72011904Y-84726190D01*
X71011904Y-85202380D02*
X71011904Y-84202380D01*
X70440476Y-85202380D01*
X70440476Y-84202380D01*
X70059523Y-84202380D02*
X69392857Y-84202380D01*
X69821428Y-85202380D01*
%TO.C,RN6*%
X69440476Y-117702380D02*
X69773809Y-117226190D01*
X70011904Y-117702380D02*
X70011904Y-116702380D01*
X69630952Y-116702380D01*
X69535714Y-116750000D01*
X69488095Y-116797619D01*
X69440476Y-116892857D01*
X69440476Y-117035714D01*
X69488095Y-117130952D01*
X69535714Y-117178571D01*
X69630952Y-117226190D01*
X70011904Y-117226190D01*
X69011904Y-117702380D02*
X69011904Y-116702380D01*
X68440476Y-117702380D01*
X68440476Y-116702380D01*
X67535714Y-116702380D02*
X67726190Y-116702380D01*
X67821428Y-116750000D01*
X67869047Y-116797619D01*
X67964285Y-116940476D01*
X68011904Y-117130952D01*
X68011904Y-117511904D01*
X67964285Y-117607142D01*
X67916666Y-117654761D01*
X67821428Y-117702380D01*
X67630952Y-117702380D01*
X67535714Y-117654761D01*
X67488095Y-117607142D01*
X67440476Y-117511904D01*
X67440476Y-117273809D01*
X67488095Y-117178571D01*
X67535714Y-117130952D01*
X67630952Y-117083333D01*
X67821428Y-117083333D01*
X67916666Y-117130952D01*
X67964285Y-117178571D01*
X68011904Y-117273809D01*
%TO.C,RN5*%
X113440476Y-76952380D02*
X113773809Y-76476190D01*
X114011904Y-76952380D02*
X114011904Y-75952380D01*
X113630952Y-75952380D01*
X113535714Y-76000000D01*
X113488095Y-76047619D01*
X113440476Y-76142857D01*
X113440476Y-76285714D01*
X113488095Y-76380952D01*
X113535714Y-76428571D01*
X113630952Y-76476190D01*
X114011904Y-76476190D01*
X113011904Y-76952380D02*
X113011904Y-75952380D01*
X112440476Y-76952380D01*
X112440476Y-75952380D01*
X111488095Y-75952380D02*
X111964285Y-75952380D01*
X112011904Y-76428571D01*
X111964285Y-76380952D01*
X111869047Y-76333333D01*
X111630952Y-76333333D01*
X111535714Y-76380952D01*
X111488095Y-76428571D01*
X111440476Y-76523809D01*
X111440476Y-76761904D01*
X111488095Y-76857142D01*
X111535714Y-76904761D01*
X111630952Y-76952380D01*
X111869047Y-76952380D01*
X111964285Y-76904761D01*
X112011904Y-76857142D01*
%TO.C,RN4*%
X94940476Y-113202380D02*
X95273809Y-112726190D01*
X95511904Y-113202380D02*
X95511904Y-112202380D01*
X95130952Y-112202380D01*
X95035714Y-112250000D01*
X94988095Y-112297619D01*
X94940476Y-112392857D01*
X94940476Y-112535714D01*
X94988095Y-112630952D01*
X95035714Y-112678571D01*
X95130952Y-112726190D01*
X95511904Y-112726190D01*
X94511904Y-113202380D02*
X94511904Y-112202380D01*
X93940476Y-113202380D01*
X93940476Y-112202380D01*
X93035714Y-112535714D02*
X93035714Y-113202380D01*
X93273809Y-112154761D02*
X93511904Y-112869047D01*
X92892857Y-112869047D01*
%TO.C,RN3*%
X80940476Y-87452380D02*
X81273809Y-86976190D01*
X81511904Y-87452380D02*
X81511904Y-86452380D01*
X81130952Y-86452380D01*
X81035714Y-86500000D01*
X80988095Y-86547619D01*
X80940476Y-86642857D01*
X80940476Y-86785714D01*
X80988095Y-86880952D01*
X81035714Y-86928571D01*
X81130952Y-86976190D01*
X81511904Y-86976190D01*
X80511904Y-87452380D02*
X80511904Y-86452380D01*
X79940476Y-87452380D01*
X79940476Y-86452380D01*
X79559523Y-86452380D02*
X78940476Y-86452380D01*
X79273809Y-86833333D01*
X79130952Y-86833333D01*
X79035714Y-86880952D01*
X78988095Y-86928571D01*
X78940476Y-87023809D01*
X78940476Y-87261904D01*
X78988095Y-87357142D01*
X79035714Y-87404761D01*
X79130952Y-87452380D01*
X79416666Y-87452380D01*
X79511904Y-87404761D01*
X79559523Y-87357142D01*
%TO.C,RN2*%
X96690476Y-131452380D02*
X97023809Y-130976190D01*
X97261904Y-131452380D02*
X97261904Y-130452380D01*
X96880952Y-130452380D01*
X96785714Y-130500000D01*
X96738095Y-130547619D01*
X96690476Y-130642857D01*
X96690476Y-130785714D01*
X96738095Y-130880952D01*
X96785714Y-130928571D01*
X96880952Y-130976190D01*
X97261904Y-130976190D01*
X96261904Y-131452380D02*
X96261904Y-130452380D01*
X95690476Y-131452380D01*
X95690476Y-130452380D01*
X95261904Y-130547619D02*
X95214285Y-130500000D01*
X95119047Y-130452380D01*
X94880952Y-130452380D01*
X94785714Y-130500000D01*
X94738095Y-130547619D01*
X94690476Y-130642857D01*
X94690476Y-130738095D01*
X94738095Y-130880952D01*
X95309523Y-131452380D01*
X94690476Y-131452380D01*
%TO.C,RN1*%
X90190476Y-131452380D02*
X90523809Y-130976190D01*
X90761904Y-131452380D02*
X90761904Y-130452380D01*
X90380952Y-130452380D01*
X90285714Y-130500000D01*
X90238095Y-130547619D01*
X90190476Y-130642857D01*
X90190476Y-130785714D01*
X90238095Y-130880952D01*
X90285714Y-130928571D01*
X90380952Y-130976190D01*
X90761904Y-130976190D01*
X89761904Y-131452380D02*
X89761904Y-130452380D01*
X89190476Y-131452380D01*
X89190476Y-130452380D01*
X88190476Y-131452380D02*
X88761904Y-131452380D01*
X88476190Y-131452380D02*
X88476190Y-130452380D01*
X88571428Y-130595238D01*
X88666666Y-130690476D01*
X88761904Y-130738095D01*
%TO.C,R5*%
X67166666Y-110202380D02*
X67500000Y-109726190D01*
X67738095Y-110202380D02*
X67738095Y-109202380D01*
X67357142Y-109202380D01*
X67261904Y-109250000D01*
X67214285Y-109297619D01*
X67166666Y-109392857D01*
X67166666Y-109535714D01*
X67214285Y-109630952D01*
X67261904Y-109678571D01*
X67357142Y-109726190D01*
X67738095Y-109726190D01*
X66261904Y-109202380D02*
X66738095Y-109202380D01*
X66785714Y-109678571D01*
X66738095Y-109630952D01*
X66642857Y-109583333D01*
X66404761Y-109583333D01*
X66309523Y-109630952D01*
X66261904Y-109678571D01*
X66214285Y-109773809D01*
X66214285Y-110011904D01*
X66261904Y-110107142D01*
X66309523Y-110154761D01*
X66404761Y-110202380D01*
X66642857Y-110202380D01*
X66738095Y-110154761D01*
X66785714Y-110107142D01*
%TO.C,R4*%
X82916666Y-107652380D02*
X83250000Y-107176190D01*
X83488095Y-107652380D02*
X83488095Y-106652380D01*
X83107142Y-106652380D01*
X83011904Y-106700000D01*
X82964285Y-106747619D01*
X82916666Y-106842857D01*
X82916666Y-106985714D01*
X82964285Y-107080952D01*
X83011904Y-107128571D01*
X83107142Y-107176190D01*
X83488095Y-107176190D01*
X82059523Y-106985714D02*
X82059523Y-107652380D01*
X82297619Y-106604761D02*
X82535714Y-107319047D01*
X81916666Y-107319047D01*
%TO.C,R3*%
X72666666Y-103702380D02*
X73000000Y-103226190D01*
X73238095Y-103702380D02*
X73238095Y-102702380D01*
X72857142Y-102702380D01*
X72761904Y-102750000D01*
X72714285Y-102797619D01*
X72666666Y-102892857D01*
X72666666Y-103035714D01*
X72714285Y-103130952D01*
X72761904Y-103178571D01*
X72857142Y-103226190D01*
X73238095Y-103226190D01*
X72333333Y-102702380D02*
X71714285Y-102702380D01*
X72047619Y-103083333D01*
X71904761Y-103083333D01*
X71809523Y-103130952D01*
X71761904Y-103178571D01*
X71714285Y-103273809D01*
X71714285Y-103511904D01*
X71761904Y-103607142D01*
X71809523Y-103654761D01*
X71904761Y-103702380D01*
X72190476Y-103702380D01*
X72285714Y-103654761D01*
X72333333Y-103607142D01*
%TO.C,R2*%
X69166666Y-98452380D02*
X69500000Y-97976190D01*
X69738095Y-98452380D02*
X69738095Y-97452380D01*
X69357142Y-97452380D01*
X69261904Y-97500000D01*
X69214285Y-97547619D01*
X69166666Y-97642857D01*
X69166666Y-97785714D01*
X69214285Y-97880952D01*
X69261904Y-97928571D01*
X69357142Y-97976190D01*
X69738095Y-97976190D01*
X68785714Y-97547619D02*
X68738095Y-97500000D01*
X68642857Y-97452380D01*
X68404761Y-97452380D01*
X68309523Y-97500000D01*
X68261904Y-97547619D01*
X68214285Y-97642857D01*
X68214285Y-97738095D01*
X68261904Y-97880952D01*
X68833333Y-98452380D01*
X68214285Y-98452380D01*
%TO.C,R1*%
X69166666Y-102952380D02*
X69500000Y-102476190D01*
X69738095Y-102952380D02*
X69738095Y-101952380D01*
X69357142Y-101952380D01*
X69261904Y-102000000D01*
X69214285Y-102047619D01*
X69166666Y-102142857D01*
X69166666Y-102285714D01*
X69214285Y-102380952D01*
X69261904Y-102428571D01*
X69357142Y-102476190D01*
X69738095Y-102476190D01*
X68214285Y-102952380D02*
X68785714Y-102952380D01*
X68500000Y-102952380D02*
X68500000Y-101952380D01*
X68595238Y-102095238D01*
X68690476Y-102190476D01*
X68785714Y-102238095D01*
%TO.C,J1*%
X65952380Y-95666666D02*
X66666666Y-95666666D01*
X66809523Y-95619047D01*
X66904761Y-95523809D01*
X66952380Y-95380952D01*
X66952380Y-95285714D01*
X66952380Y-96666666D02*
X66952380Y-96095238D01*
X66952380Y-96380952D02*
X65952380Y-96380952D01*
X66095238Y-96285714D01*
X66190476Y-96190476D01*
X66238095Y-96095238D01*
%TO.C,D9*%
X112238095Y-67952380D02*
X112238095Y-66952380D01*
X112000000Y-66952380D01*
X111857142Y-67000000D01*
X111761904Y-67095238D01*
X111714285Y-67190476D01*
X111666666Y-67380952D01*
X111666666Y-67523809D01*
X111714285Y-67714285D01*
X111761904Y-67809523D01*
X111857142Y-67904761D01*
X112000000Y-67952380D01*
X112238095Y-67952380D01*
X111190476Y-67952380D02*
X111000000Y-67952380D01*
X110904761Y-67904761D01*
X110857142Y-67857142D01*
X110761904Y-67714285D01*
X110714285Y-67523809D01*
X110714285Y-67142857D01*
X110761904Y-67047619D01*
X110809523Y-67000000D01*
X110904761Y-66952380D01*
X111095238Y-66952380D01*
X111190476Y-67000000D01*
X111238095Y-67047619D01*
X111285714Y-67142857D01*
X111285714Y-67380952D01*
X111238095Y-67476190D01*
X111190476Y-67523809D01*
X111095238Y-67571428D01*
X110904761Y-67571428D01*
X110809523Y-67523809D01*
X110761904Y-67476190D01*
X110714285Y-67380952D01*
%TO.C,C19*%
X106142857Y-124607142D02*
X106190476Y-124654761D01*
X106333333Y-124702380D01*
X106428571Y-124702380D01*
X106571428Y-124654761D01*
X106666666Y-124559523D01*
X106714285Y-124464285D01*
X106761904Y-124273809D01*
X106761904Y-124130952D01*
X106714285Y-123940476D01*
X106666666Y-123845238D01*
X106571428Y-123750000D01*
X106428571Y-123702380D01*
X106333333Y-123702380D01*
X106190476Y-123750000D01*
X106142857Y-123797619D01*
X105190476Y-124702380D02*
X105761904Y-124702380D01*
X105476190Y-124702380D02*
X105476190Y-123702380D01*
X105571428Y-123845238D01*
X105666666Y-123940476D01*
X105761904Y-123988095D01*
X104714285Y-124702380D02*
X104523809Y-124702380D01*
X104428571Y-124654761D01*
X104380952Y-124607142D01*
X104285714Y-124464285D01*
X104238095Y-124273809D01*
X104238095Y-123892857D01*
X104285714Y-123797619D01*
X104333333Y-123750000D01*
X104428571Y-123702380D01*
X104619047Y-123702380D01*
X104714285Y-123750000D01*
X104761904Y-123797619D01*
X104809523Y-123892857D01*
X104809523Y-124130952D01*
X104761904Y-124226190D01*
X104714285Y-124273809D01*
X104619047Y-124321428D01*
X104428571Y-124321428D01*
X104333333Y-124273809D01*
X104285714Y-124226190D01*
X104238095Y-124130952D01*
%TO.C,C18*%
X99142857Y-77107142D02*
X99190476Y-77154761D01*
X99333333Y-77202380D01*
X99428571Y-77202380D01*
X99571428Y-77154761D01*
X99666666Y-77059523D01*
X99714285Y-76964285D01*
X99761904Y-76773809D01*
X99761904Y-76630952D01*
X99714285Y-76440476D01*
X99666666Y-76345238D01*
X99571428Y-76250000D01*
X99428571Y-76202380D01*
X99333333Y-76202380D01*
X99190476Y-76250000D01*
X99142857Y-76297619D01*
X98190476Y-77202380D02*
X98761904Y-77202380D01*
X98476190Y-77202380D02*
X98476190Y-76202380D01*
X98571428Y-76345238D01*
X98666666Y-76440476D01*
X98761904Y-76488095D01*
X97619047Y-76630952D02*
X97714285Y-76583333D01*
X97761904Y-76535714D01*
X97809523Y-76440476D01*
X97809523Y-76392857D01*
X97761904Y-76297619D01*
X97714285Y-76250000D01*
X97619047Y-76202380D01*
X97428571Y-76202380D01*
X97333333Y-76250000D01*
X97285714Y-76297619D01*
X97238095Y-76392857D01*
X97238095Y-76440476D01*
X97285714Y-76535714D01*
X97333333Y-76583333D01*
X97428571Y-76630952D01*
X97619047Y-76630952D01*
X97714285Y-76678571D01*
X97761904Y-76726190D01*
X97809523Y-76821428D01*
X97809523Y-77011904D01*
X97761904Y-77107142D01*
X97714285Y-77154761D01*
X97619047Y-77202380D01*
X97428571Y-77202380D01*
X97333333Y-77154761D01*
X97285714Y-77107142D01*
X97238095Y-77011904D01*
X97238095Y-76821428D01*
X97285714Y-76726190D01*
X97333333Y-76678571D01*
X97428571Y-76630952D01*
%TO.C,C17*%
X96607142Y-68107142D02*
X96654761Y-68059523D01*
X96702380Y-67916666D01*
X96702380Y-67821428D01*
X96654761Y-67678571D01*
X96559523Y-67583333D01*
X96464285Y-67535714D01*
X96273809Y-67488095D01*
X96130952Y-67488095D01*
X95940476Y-67535714D01*
X95845238Y-67583333D01*
X95750000Y-67678571D01*
X95702380Y-67821428D01*
X95702380Y-67916666D01*
X95750000Y-68059523D01*
X95797619Y-68107142D01*
X96702380Y-69059523D02*
X96702380Y-68488095D01*
X96702380Y-68773809D02*
X95702380Y-68773809D01*
X95845238Y-68678571D01*
X95940476Y-68583333D01*
X95988095Y-68488095D01*
X95702380Y-69392857D02*
X95702380Y-70059523D01*
X96702380Y-69630952D01*
%TO.C,C16*%
X99142857Y-75107142D02*
X99190476Y-75154761D01*
X99333333Y-75202380D01*
X99428571Y-75202380D01*
X99571428Y-75154761D01*
X99666666Y-75059523D01*
X99714285Y-74964285D01*
X99761904Y-74773809D01*
X99761904Y-74630952D01*
X99714285Y-74440476D01*
X99666666Y-74345238D01*
X99571428Y-74250000D01*
X99428571Y-74202380D01*
X99333333Y-74202380D01*
X99190476Y-74250000D01*
X99142857Y-74297619D01*
X98190476Y-75202380D02*
X98761904Y-75202380D01*
X98476190Y-75202380D02*
X98476190Y-74202380D01*
X98571428Y-74345238D01*
X98666666Y-74440476D01*
X98761904Y-74488095D01*
X97333333Y-74202380D02*
X97523809Y-74202380D01*
X97619047Y-74250000D01*
X97666666Y-74297619D01*
X97761904Y-74440476D01*
X97809523Y-74630952D01*
X97809523Y-75011904D01*
X97761904Y-75107142D01*
X97714285Y-75154761D01*
X97619047Y-75202380D01*
X97428571Y-75202380D01*
X97333333Y-75154761D01*
X97285714Y-75107142D01*
X97238095Y-75011904D01*
X97238095Y-74773809D01*
X97285714Y-74678571D01*
X97333333Y-74630952D01*
X97428571Y-74583333D01*
X97619047Y-74583333D01*
X97714285Y-74630952D01*
X97761904Y-74678571D01*
X97809523Y-74773809D01*
%TO.C,C15*%
X84357142Y-74357142D02*
X84404761Y-74309523D01*
X84452380Y-74166666D01*
X84452380Y-74071428D01*
X84404761Y-73928571D01*
X84309523Y-73833333D01*
X84214285Y-73785714D01*
X84023809Y-73738095D01*
X83880952Y-73738095D01*
X83690476Y-73785714D01*
X83595238Y-73833333D01*
X83500000Y-73928571D01*
X83452380Y-74071428D01*
X83452380Y-74166666D01*
X83500000Y-74309523D01*
X83547619Y-74357142D01*
X84452380Y-75309523D02*
X84452380Y-74738095D01*
X84452380Y-75023809D02*
X83452380Y-75023809D01*
X83595238Y-74928571D01*
X83690476Y-74833333D01*
X83738095Y-74738095D01*
X83452380Y-76214285D02*
X83452380Y-75738095D01*
X83928571Y-75690476D01*
X83880952Y-75738095D01*
X83833333Y-75833333D01*
X83833333Y-76071428D01*
X83880952Y-76166666D01*
X83928571Y-76214285D01*
X84023809Y-76261904D01*
X84261904Y-76261904D01*
X84357142Y-76214285D01*
X84404761Y-76166666D01*
X84452380Y-76071428D01*
X84452380Y-75833333D01*
X84404761Y-75738095D01*
X84357142Y-75690476D01*
%TO.C,C14*%
X94857142Y-68107142D02*
X94904761Y-68059523D01*
X94952380Y-67916666D01*
X94952380Y-67821428D01*
X94904761Y-67678571D01*
X94809523Y-67583333D01*
X94714285Y-67535714D01*
X94523809Y-67488095D01*
X94380952Y-67488095D01*
X94190476Y-67535714D01*
X94095238Y-67583333D01*
X94000000Y-67678571D01*
X93952380Y-67821428D01*
X93952380Y-67916666D01*
X94000000Y-68059523D01*
X94047619Y-68107142D01*
X94952380Y-69059523D02*
X94952380Y-68488095D01*
X94952380Y-68773809D02*
X93952380Y-68773809D01*
X94095238Y-68678571D01*
X94190476Y-68583333D01*
X94238095Y-68488095D01*
X94285714Y-69916666D02*
X94952380Y-69916666D01*
X93904761Y-69678571D02*
X94619047Y-69440476D01*
X94619047Y-70059523D01*
%TO.C,C13*%
X104206857Y-92107142D02*
X104254476Y-92154761D01*
X104397333Y-92202380D01*
X104492571Y-92202380D01*
X104635428Y-92154761D01*
X104730666Y-92059523D01*
X104778285Y-91964285D01*
X104825904Y-91773809D01*
X104825904Y-91630952D01*
X104778285Y-91440476D01*
X104730666Y-91345238D01*
X104635428Y-91250000D01*
X104492571Y-91202380D01*
X104397333Y-91202380D01*
X104254476Y-91250000D01*
X104206857Y-91297619D01*
X103254476Y-92202380D02*
X103825904Y-92202380D01*
X103540190Y-92202380D02*
X103540190Y-91202380D01*
X103635428Y-91345238D01*
X103730666Y-91440476D01*
X103825904Y-91488095D01*
X102921142Y-91202380D02*
X102302095Y-91202380D01*
X102635428Y-91583333D01*
X102492571Y-91583333D01*
X102397333Y-91630952D01*
X102349714Y-91678571D01*
X102302095Y-91773809D01*
X102302095Y-92011904D01*
X102349714Y-92107142D01*
X102397333Y-92154761D01*
X102492571Y-92202380D01*
X102778285Y-92202380D01*
X102873523Y-92154761D01*
X102921142Y-92107142D01*
%TO.C,C12*%
X131357142Y-114357142D02*
X131404761Y-114309523D01*
X131452380Y-114166666D01*
X131452380Y-114071428D01*
X131404761Y-113928571D01*
X131309523Y-113833333D01*
X131214285Y-113785714D01*
X131023809Y-113738095D01*
X130880952Y-113738095D01*
X130690476Y-113785714D01*
X130595238Y-113833333D01*
X130500000Y-113928571D01*
X130452380Y-114071428D01*
X130452380Y-114166666D01*
X130500000Y-114309523D01*
X130547619Y-114357142D01*
X131452380Y-115309523D02*
X131452380Y-114738095D01*
X131452380Y-115023809D02*
X130452380Y-115023809D01*
X130595238Y-114928571D01*
X130690476Y-114833333D01*
X130738095Y-114738095D01*
X130547619Y-115690476D02*
X130500000Y-115738095D01*
X130452380Y-115833333D01*
X130452380Y-116071428D01*
X130500000Y-116166666D01*
X130547619Y-116214285D01*
X130642857Y-116261904D01*
X130738095Y-116261904D01*
X130880952Y-116214285D01*
X131452380Y-115642857D01*
X131452380Y-116261904D01*
%TO.C,C11*%
X124607142Y-116107142D02*
X124654761Y-116059523D01*
X124702380Y-115916666D01*
X124702380Y-115821428D01*
X124654761Y-115678571D01*
X124559523Y-115583333D01*
X124464285Y-115535714D01*
X124273809Y-115488095D01*
X124130952Y-115488095D01*
X123940476Y-115535714D01*
X123845238Y-115583333D01*
X123750000Y-115678571D01*
X123702380Y-115821428D01*
X123702380Y-115916666D01*
X123750000Y-116059523D01*
X123797619Y-116107142D01*
X124702380Y-117059523D02*
X124702380Y-116488095D01*
X124702380Y-116773809D02*
X123702380Y-116773809D01*
X123845238Y-116678571D01*
X123940476Y-116583333D01*
X123988095Y-116488095D01*
X124702380Y-118011904D02*
X124702380Y-117440476D01*
X124702380Y-117726190D02*
X123702380Y-117726190D01*
X123845238Y-117630952D01*
X123940476Y-117535714D01*
X123988095Y-117440476D01*
%TO.C,C10*%
X110642857Y-100107142D02*
X110690476Y-100154761D01*
X110833333Y-100202380D01*
X110928571Y-100202380D01*
X111071428Y-100154761D01*
X111166666Y-100059523D01*
X111214285Y-99964285D01*
X111261904Y-99773809D01*
X111261904Y-99630952D01*
X111214285Y-99440476D01*
X111166666Y-99345238D01*
X111071428Y-99250000D01*
X110928571Y-99202380D01*
X110833333Y-99202380D01*
X110690476Y-99250000D01*
X110642857Y-99297619D01*
X109690476Y-100202380D02*
X110261904Y-100202380D01*
X109976190Y-100202380D02*
X109976190Y-99202380D01*
X110071428Y-99345238D01*
X110166666Y-99440476D01*
X110261904Y-99488095D01*
X109071428Y-99202380D02*
X108976190Y-99202380D01*
X108880952Y-99250000D01*
X108833333Y-99297619D01*
X108785714Y-99392857D01*
X108738095Y-99583333D01*
X108738095Y-99821428D01*
X108785714Y-100011904D01*
X108833333Y-100107142D01*
X108880952Y-100154761D01*
X108976190Y-100202380D01*
X109071428Y-100202380D01*
X109166666Y-100154761D01*
X109214285Y-100107142D01*
X109261904Y-100011904D01*
X109309523Y-99821428D01*
X109309523Y-99583333D01*
X109261904Y-99392857D01*
X109214285Y-99297619D01*
X109166666Y-99250000D01*
X109071428Y-99202380D01*
%TO.C,C9*%
X110166666Y-105357142D02*
X110214285Y-105404761D01*
X110357142Y-105452380D01*
X110452380Y-105452380D01*
X110595238Y-105404761D01*
X110690476Y-105309523D01*
X110738095Y-105214285D01*
X110785714Y-105023809D01*
X110785714Y-104880952D01*
X110738095Y-104690476D01*
X110690476Y-104595238D01*
X110595238Y-104500000D01*
X110452380Y-104452380D01*
X110357142Y-104452380D01*
X110214285Y-104500000D01*
X110166666Y-104547619D01*
X109690476Y-105452380D02*
X109500000Y-105452380D01*
X109404761Y-105404761D01*
X109357142Y-105357142D01*
X109261904Y-105214285D01*
X109214285Y-105023809D01*
X109214285Y-104642857D01*
X109261904Y-104547619D01*
X109309523Y-104500000D01*
X109404761Y-104452380D01*
X109595238Y-104452380D01*
X109690476Y-104500000D01*
X109738095Y-104547619D01*
X109785714Y-104642857D01*
X109785714Y-104880952D01*
X109738095Y-104976190D01*
X109690476Y-105023809D01*
X109595238Y-105071428D01*
X109404761Y-105071428D01*
X109309523Y-105023809D01*
X109261904Y-104976190D01*
X109214285Y-104880952D01*
%TO.C,C8*%
X115166666Y-132107142D02*
X115214285Y-132154761D01*
X115357142Y-132202380D01*
X115452380Y-132202380D01*
X115595238Y-132154761D01*
X115690476Y-132059523D01*
X115738095Y-131964285D01*
X115785714Y-131773809D01*
X115785714Y-131630952D01*
X115738095Y-131440476D01*
X115690476Y-131345238D01*
X115595238Y-131250000D01*
X115452380Y-131202380D01*
X115357142Y-131202380D01*
X115214285Y-131250000D01*
X115166666Y-131297619D01*
X114595238Y-131630952D02*
X114690476Y-131583333D01*
X114738095Y-131535714D01*
X114785714Y-131440476D01*
X114785714Y-131392857D01*
X114738095Y-131297619D01*
X114690476Y-131250000D01*
X114595238Y-131202380D01*
X114404761Y-131202380D01*
X114309523Y-131250000D01*
X114261904Y-131297619D01*
X114214285Y-131392857D01*
X114214285Y-131440476D01*
X114261904Y-131535714D01*
X114309523Y-131583333D01*
X114404761Y-131630952D01*
X114595238Y-131630952D01*
X114690476Y-131678571D01*
X114738095Y-131726190D01*
X114785714Y-131821428D01*
X114785714Y-132011904D01*
X114738095Y-132107142D01*
X114690476Y-132154761D01*
X114595238Y-132202380D01*
X114404761Y-132202380D01*
X114309523Y-132154761D01*
X114261904Y-132107142D01*
X114214285Y-132011904D01*
X114214285Y-131821428D01*
X114261904Y-131726190D01*
X114309523Y-131678571D01*
X114404761Y-131630952D01*
%TO.C,C7*%
X133166666Y-130857142D02*
X133214285Y-130904761D01*
X133357142Y-130952380D01*
X133452380Y-130952380D01*
X133595238Y-130904761D01*
X133690476Y-130809523D01*
X133738095Y-130714285D01*
X133785714Y-130523809D01*
X133785714Y-130380952D01*
X133738095Y-130190476D01*
X133690476Y-130095238D01*
X133595238Y-130000000D01*
X133452380Y-129952380D01*
X133357142Y-129952380D01*
X133214285Y-130000000D01*
X133166666Y-130047619D01*
X132833333Y-129952380D02*
X132166666Y-129952380D01*
X132595238Y-130952380D01*
%TO.C,C6*%
X76666666Y-92357142D02*
X76714285Y-92404761D01*
X76857142Y-92452380D01*
X76952380Y-92452380D01*
X77095238Y-92404761D01*
X77190476Y-92309523D01*
X77238095Y-92214285D01*
X77285714Y-92023809D01*
X77285714Y-91880952D01*
X77238095Y-91690476D01*
X77190476Y-91595238D01*
X77095238Y-91500000D01*
X76952380Y-91452380D01*
X76857142Y-91452380D01*
X76714285Y-91500000D01*
X76666666Y-91547619D01*
X75809523Y-91452380D02*
X76000000Y-91452380D01*
X76095238Y-91500000D01*
X76142857Y-91547619D01*
X76238095Y-91690476D01*
X76285714Y-91880952D01*
X76285714Y-92261904D01*
X76238095Y-92357142D01*
X76190476Y-92404761D01*
X76095238Y-92452380D01*
X75904761Y-92452380D01*
X75809523Y-92404761D01*
X75761904Y-92357142D01*
X75714285Y-92261904D01*
X75714285Y-92023809D01*
X75761904Y-91928571D01*
X75809523Y-91880952D01*
X75904761Y-91833333D01*
X76095238Y-91833333D01*
X76190476Y-91880952D01*
X76238095Y-91928571D01*
X76285714Y-92023809D01*
%TO.C,C5*%
X82916666Y-109107142D02*
X82964285Y-109154761D01*
X83107142Y-109202380D01*
X83202380Y-109202380D01*
X83345238Y-109154761D01*
X83440476Y-109059523D01*
X83488095Y-108964285D01*
X83535714Y-108773809D01*
X83535714Y-108630952D01*
X83488095Y-108440476D01*
X83440476Y-108345238D01*
X83345238Y-108250000D01*
X83202380Y-108202380D01*
X83107142Y-108202380D01*
X82964285Y-108250000D01*
X82916666Y-108297619D01*
X82011904Y-108202380D02*
X82488095Y-108202380D01*
X82535714Y-108678571D01*
X82488095Y-108630952D01*
X82392857Y-108583333D01*
X82154761Y-108583333D01*
X82059523Y-108630952D01*
X82011904Y-108678571D01*
X81964285Y-108773809D01*
X81964285Y-109011904D01*
X82011904Y-109107142D01*
X82059523Y-109154761D01*
X82154761Y-109202380D01*
X82392857Y-109202380D01*
X82488095Y-109154761D01*
X82535714Y-109107142D01*
%TO.C,C4*%
X76357142Y-106833333D02*
X76404761Y-106785714D01*
X76452380Y-106642857D01*
X76452380Y-106547619D01*
X76404761Y-106404761D01*
X76309523Y-106309523D01*
X76214285Y-106261904D01*
X76023809Y-106214285D01*
X75880952Y-106214285D01*
X75690476Y-106261904D01*
X75595238Y-106309523D01*
X75500000Y-106404761D01*
X75452380Y-106547619D01*
X75452380Y-106642857D01*
X75500000Y-106785714D01*
X75547619Y-106833333D01*
X75785714Y-107690476D02*
X76452380Y-107690476D01*
X75404761Y-107452380D02*
X76119047Y-107214285D01*
X76119047Y-107833333D01*
%TO.C,C3*%
X72666666Y-99107142D02*
X72714285Y-99154761D01*
X72857142Y-99202380D01*
X72952380Y-99202380D01*
X73095238Y-99154761D01*
X73190476Y-99059523D01*
X73238095Y-98964285D01*
X73285714Y-98773809D01*
X73285714Y-98630952D01*
X73238095Y-98440476D01*
X73190476Y-98345238D01*
X73095238Y-98250000D01*
X72952380Y-98202380D01*
X72857142Y-98202380D01*
X72714285Y-98250000D01*
X72666666Y-98297619D01*
X72333333Y-98202380D02*
X71714285Y-98202380D01*
X72047619Y-98583333D01*
X71904761Y-98583333D01*
X71809523Y-98630952D01*
X71761904Y-98678571D01*
X71714285Y-98773809D01*
X71714285Y-99011904D01*
X71761904Y-99107142D01*
X71809523Y-99154761D01*
X71904761Y-99202380D01*
X72190476Y-99202380D01*
X72285714Y-99154761D01*
X72333333Y-99107142D01*
%TO.C,C2*%
X76666666Y-112357142D02*
X76714285Y-112404761D01*
X76857142Y-112452380D01*
X76952380Y-112452380D01*
X77095238Y-112404761D01*
X77190476Y-112309523D01*
X77238095Y-112214285D01*
X77285714Y-112023809D01*
X77285714Y-111880952D01*
X77238095Y-111690476D01*
X77190476Y-111595238D01*
X77095238Y-111500000D01*
X76952380Y-111452380D01*
X76857142Y-111452380D01*
X76714285Y-111500000D01*
X76666666Y-111547619D01*
X76285714Y-111547619D02*
X76238095Y-111500000D01*
X76142857Y-111452380D01*
X75904761Y-111452380D01*
X75809523Y-111500000D01*
X75761904Y-111547619D01*
X75714285Y-111642857D01*
X75714285Y-111738095D01*
X75761904Y-111880952D01*
X76333333Y-112452380D01*
X75714285Y-112452380D01*
%TO.C,C1*%
X82666666Y-110607142D02*
X82714285Y-110654761D01*
X82857142Y-110702380D01*
X82952380Y-110702380D01*
X83095238Y-110654761D01*
X83190476Y-110559523D01*
X83238095Y-110464285D01*
X83285714Y-110273809D01*
X83285714Y-110130952D01*
X83238095Y-109940476D01*
X83190476Y-109845238D01*
X83095238Y-109750000D01*
X82952380Y-109702380D01*
X82857142Y-109702380D01*
X82714285Y-109750000D01*
X82666666Y-109797619D01*
X81714285Y-110702380D02*
X82285714Y-110702380D01*
X82000000Y-110702380D02*
X82000000Y-109702380D01*
X82095238Y-109845238D01*
X82190476Y-109940476D01*
X82285714Y-109988095D01*
%TD*%
%LPC*%
D12*
%TO.C,RN7*%
G36*
X69450000Y-80100000D02*
G01*
X72050000Y-80100000D01*
X72050000Y-83400000D01*
X69450000Y-83400000D01*
X69450000Y-80100000D01*
G37*
X69450000Y-80100000D02*
X72050000Y-80100000D01*
X72050000Y-83400000D01*
X69450000Y-83400000D01*
X69450000Y-80100000D01*
%TO.C,RN6*%
G36*
X67450000Y-118350000D02*
G01*
X70050000Y-118350000D01*
X70050000Y-121650000D01*
X67450000Y-121650000D01*
X67450000Y-118350000D01*
G37*
X67450000Y-118350000D02*
X70050000Y-118350000D01*
X70050000Y-121650000D01*
X67450000Y-121650000D01*
X67450000Y-118350000D01*
%TO.C,RN5*%
G36*
X114050000Y-80900000D02*
G01*
X111450000Y-80900000D01*
X111450000Y-77600000D01*
X114050000Y-77600000D01*
X114050000Y-80900000D01*
G37*
X114050000Y-80900000D02*
X111450000Y-80900000D01*
X111450000Y-77600000D01*
X114050000Y-77600000D01*
X114050000Y-80900000D01*
%TO.C,RN4*%
G36*
X92500000Y-117550000D02*
G01*
X92500000Y-114450000D01*
X96000000Y-114450000D01*
X96000000Y-117550000D01*
X92500000Y-117550000D01*
G37*
X92500000Y-117550000D02*
X92500000Y-114450000D01*
X96000000Y-114450000D01*
X96000000Y-117550000D01*
X92500000Y-117550000D01*
%TO.C,RN3*%
G36*
X78500000Y-91800000D02*
G01*
X78500000Y-88700000D01*
X82000000Y-88700000D01*
X82000000Y-91800000D01*
X78500000Y-91800000D01*
G37*
X78500000Y-91800000D02*
X78500000Y-88700000D01*
X82000000Y-88700000D01*
X82000000Y-91800000D01*
X78500000Y-91800000D01*
%TO.C,RN2*%
G36*
X98100000Y-132300000D02*
G01*
X98100000Y-129700000D01*
X101400000Y-129700000D01*
X101400000Y-132300000D01*
X98100000Y-132300000D01*
G37*
X98100000Y-132300000D02*
X98100000Y-129700000D01*
X101400000Y-129700000D01*
X101400000Y-132300000D01*
X98100000Y-132300000D01*
%TO.C,RN1*%
G36*
X84100000Y-132300000D02*
G01*
X84100000Y-129700000D01*
X87400000Y-129700000D01*
X87400000Y-132300000D01*
X84100000Y-132300000D01*
G37*
X84100000Y-132300000D02*
X84100000Y-129700000D01*
X87400000Y-129700000D01*
X87400000Y-132300000D01*
X84100000Y-132300000D01*
%TD*%
D14*
%TO.C,SW1*%
X110250000Y-110750000D03*
X110250000Y-115250000D03*
X103750000Y-110750000D03*
X103750000Y-115250000D03*
%TD*%
D15*
%TO.C,R15*%
X125250000Y-100400000D03*
X125250000Y-98600000D03*
%TD*%
%TO.C,R14*%
X126750000Y-100400000D03*
X126750000Y-98600000D03*
%TD*%
D16*
%TO.C,J5*%
X131230000Y-99920000D03*
D17*
X133770000Y-99920000D03*
X131230000Y-102460000D03*
X133770000Y-102460000D03*
X131230000Y-105000000D03*
X133770000Y-105000000D03*
X131230000Y-107540000D03*
X133770000Y-107540000D03*
X131230000Y-110080000D03*
X133770000Y-110080000D03*
%TD*%
D18*
%TO.C,D10*%
X126500000Y-111400000D03*
X126500000Y-106600000D03*
%TD*%
D15*
%TO.C,R13*%
X129250000Y-91600000D03*
X129250000Y-93400000D03*
%TD*%
%TO.C,R12*%
X136750000Y-129400000D03*
X136750000Y-127600000D03*
%TD*%
%TO.C,R11*%
X135000000Y-129400000D03*
X135000000Y-127600000D03*
%TD*%
D19*
%TO.C,R9*%
X134400000Y-97250000D03*
X137600000Y-97250000D03*
%TD*%
D15*
%TO.C,R8*%
X136000000Y-86100000D03*
X136000000Y-87900000D03*
%TD*%
D20*
%TO.C,Q2*%
X126300000Y-95790000D03*
X126300000Y-93500000D03*
D21*
X119700000Y-93500000D03*
D20*
X126300000Y-91210000D03*
%TD*%
D22*
%TO.C,Q1*%
X136000000Y-91500000D03*
X135050000Y-94500000D03*
X136950000Y-94500000D03*
%TD*%
D23*
%TO.C,U5*%
X94950000Y-83075000D03*
X94950000Y-83725000D03*
X94950000Y-84375000D03*
X94950000Y-85025000D03*
X94950000Y-85675000D03*
X94950000Y-86325000D03*
X94950000Y-86975000D03*
X94950000Y-87625000D03*
X94950000Y-88275000D03*
X89050000Y-83075000D03*
X89050000Y-83725000D03*
X89050000Y-84375000D03*
X89050000Y-85025000D03*
X89050000Y-85675000D03*
X89050000Y-86325000D03*
X89050000Y-86975000D03*
X89050000Y-87625000D03*
X89050000Y-88275000D03*
X94950000Y-88925000D03*
X89050000Y-88925000D03*
%TD*%
D24*
%TO.C,C21*%
X100400000Y-89750000D03*
X98600000Y-89750000D03*
%TD*%
D25*
%TO.C,J2*%
X108270000Y-87540000D03*
X105730000Y-87540000D03*
X108270000Y-85000000D03*
X105730000Y-85000000D03*
X108270000Y-82460000D03*
X105730000Y-82460000D03*
D26*
X108770000Y-87540000D03*
X105230000Y-87540000D03*
X108770000Y-85000000D03*
X105230000Y-85000000D03*
X108770000Y-82460000D03*
X105230000Y-82460000D03*
%TD*%
D27*
%TO.C,U3*%
X104000000Y-94000000D03*
X103200000Y-94000000D03*
X102400000Y-94000000D03*
X101600000Y-94000000D03*
X100800000Y-94000000D03*
X100000000Y-94000000D03*
X99200000Y-94000000D03*
X98400000Y-94000000D03*
X97600000Y-94000000D03*
X96800000Y-94000000D03*
X96000000Y-94000000D03*
D28*
X94000000Y-96000000D03*
X94000000Y-96800000D03*
X94000000Y-97600000D03*
X94000000Y-98400000D03*
X94000000Y-99200000D03*
X94000000Y-100000000D03*
X94000000Y-100800000D03*
X94000000Y-101600000D03*
X94000000Y-102400000D03*
X94000000Y-103200000D03*
X94000000Y-104000000D03*
D27*
X96000000Y-106000000D03*
X96800000Y-106000000D03*
X97600000Y-106000000D03*
X98400000Y-106000000D03*
X99200000Y-106000000D03*
X100000000Y-106000000D03*
X100800000Y-106000000D03*
X101600000Y-106000000D03*
X102400000Y-106000000D03*
X103200000Y-106000000D03*
X104000000Y-106000000D03*
D28*
X106000000Y-104000000D03*
X106000000Y-103200000D03*
X106000000Y-102400000D03*
X106000000Y-101600000D03*
X106000000Y-100800000D03*
X106000000Y-100000000D03*
X106000000Y-99200000D03*
X106000000Y-98400000D03*
X106000000Y-97600000D03*
X106000000Y-96800000D03*
X106000000Y-96000000D03*
%TD*%
D24*
%TO.C,C20*%
X98850000Y-108250000D03*
X100650000Y-108250000D03*
%TD*%
%TO.C,R10*%
X64400000Y-94250000D03*
X62600000Y-94250000D03*
%TD*%
D15*
%TO.C,R7*%
X88750000Y-118900000D03*
X88750000Y-117100000D03*
%TD*%
%TO.C,R6*%
X88750000Y-115400000D03*
X88750000Y-113600000D03*
%TD*%
D29*
%TO.C,U6*%
X92250000Y-79945000D03*
X92250000Y-78675000D03*
X92250000Y-77405000D03*
X92250000Y-76135000D03*
X92250000Y-74865000D03*
X92250000Y-73595000D03*
X92250000Y-72325000D03*
X92250000Y-71055000D03*
X86250000Y-79945000D03*
X86250000Y-78675000D03*
X86250000Y-77405000D03*
X86250000Y-76135000D03*
X86250000Y-74865000D03*
X86250000Y-73595000D03*
X86250000Y-72325000D03*
X86250000Y-71055000D03*
%TD*%
D23*
%TO.C,U4*%
X80050000Y-118675000D03*
X80050000Y-118025000D03*
X80050000Y-117375000D03*
X80050000Y-116725000D03*
X80050000Y-116075000D03*
X80050000Y-115425000D03*
X80050000Y-114775000D03*
X80050000Y-114125000D03*
X80050000Y-113475000D03*
X85950000Y-118675000D03*
X85950000Y-118025000D03*
X85950000Y-117375000D03*
X85950000Y-116725000D03*
X85950000Y-116075000D03*
X85950000Y-115425000D03*
X85950000Y-114775000D03*
X85950000Y-114125000D03*
X85950000Y-113475000D03*
X80050000Y-112825000D03*
X85950000Y-112825000D03*
%TD*%
D30*
%TO.C,U2*%
X137290000Y-115950000D03*
X135000000Y-115950000D03*
D31*
X135000000Y-122550000D03*
D30*
X132710000Y-115950000D03*
%TD*%
%TO.C,U1*%
G36*
G01*
X77100000Y-104825000D02*
X77100000Y-103500000D01*
G75*
G02*
X77175000Y-103425000I75000J0D01*
G01*
X77325000Y-103425000D01*
G75*
G02*
X77400000Y-103500000I0J-75000D01*
G01*
X77400000Y-104825000D01*
G75*
G02*
X77325000Y-104900000I-75000J0D01*
G01*
X77175000Y-104900000D01*
G75*
G02*
X77100000Y-104825000I0J75000D01*
G01*
G37*
G36*
G01*
X77600000Y-104825000D02*
X77600000Y-103500000D01*
G75*
G02*
X77675000Y-103425000I75000J0D01*
G01*
X77825000Y-103425000D01*
G75*
G02*
X77900000Y-103500000I0J-75000D01*
G01*
X77900000Y-104825000D01*
G75*
G02*
X77825000Y-104900000I-75000J0D01*
G01*
X77675000Y-104900000D01*
G75*
G02*
X77600000Y-104825000I0J75000D01*
G01*
G37*
G36*
G01*
X78100000Y-104825000D02*
X78100000Y-103500000D01*
G75*
G02*
X78175000Y-103425000I75000J0D01*
G01*
X78325000Y-103425000D01*
G75*
G02*
X78400000Y-103500000I0J-75000D01*
G01*
X78400000Y-104825000D01*
G75*
G02*
X78325000Y-104900000I-75000J0D01*
G01*
X78175000Y-104900000D01*
G75*
G02*
X78100000Y-104825000I0J75000D01*
G01*
G37*
G36*
G01*
X78600000Y-104825000D02*
X78600000Y-103500000D01*
G75*
G02*
X78675000Y-103425000I75000J0D01*
G01*
X78825000Y-103425000D01*
G75*
G02*
X78900000Y-103500000I0J-75000D01*
G01*
X78900000Y-104825000D01*
G75*
G02*
X78825000Y-104900000I-75000J0D01*
G01*
X78675000Y-104900000D01*
G75*
G02*
X78600000Y-104825000I0J75000D01*
G01*
G37*
G36*
G01*
X79100000Y-104825000D02*
X79100000Y-103500000D01*
G75*
G02*
X79175000Y-103425000I75000J0D01*
G01*
X79325000Y-103425000D01*
G75*
G02*
X79400000Y-103500000I0J-75000D01*
G01*
X79400000Y-104825000D01*
G75*
G02*
X79325000Y-104900000I-75000J0D01*
G01*
X79175000Y-104900000D01*
G75*
G02*
X79100000Y-104825000I0J75000D01*
G01*
G37*
G36*
G01*
X79600000Y-104825000D02*
X79600000Y-103500000D01*
G75*
G02*
X79675000Y-103425000I75000J0D01*
G01*
X79825000Y-103425000D01*
G75*
G02*
X79900000Y-103500000I0J-75000D01*
G01*
X79900000Y-104825000D01*
G75*
G02*
X79825000Y-104900000I-75000J0D01*
G01*
X79675000Y-104900000D01*
G75*
G02*
X79600000Y-104825000I0J75000D01*
G01*
G37*
G36*
G01*
X80100000Y-104825000D02*
X80100000Y-103500000D01*
G75*
G02*
X80175000Y-103425000I75000J0D01*
G01*
X80325000Y-103425000D01*
G75*
G02*
X80400000Y-103500000I0J-75000D01*
G01*
X80400000Y-104825000D01*
G75*
G02*
X80325000Y-104900000I-75000J0D01*
G01*
X80175000Y-104900000D01*
G75*
G02*
X80100000Y-104825000I0J75000D01*
G01*
G37*
G36*
G01*
X80600000Y-104825000D02*
X80600000Y-103500000D01*
G75*
G02*
X80675000Y-103425000I75000J0D01*
G01*
X80825000Y-103425000D01*
G75*
G02*
X80900000Y-103500000I0J-75000D01*
G01*
X80900000Y-104825000D01*
G75*
G02*
X80825000Y-104900000I-75000J0D01*
G01*
X80675000Y-104900000D01*
G75*
G02*
X80600000Y-104825000I0J75000D01*
G01*
G37*
G36*
G01*
X81100000Y-104825000D02*
X81100000Y-103500000D01*
G75*
G02*
X81175000Y-103425000I75000J0D01*
G01*
X81325000Y-103425000D01*
G75*
G02*
X81400000Y-103500000I0J-75000D01*
G01*
X81400000Y-104825000D01*
G75*
G02*
X81325000Y-104900000I-75000J0D01*
G01*
X81175000Y-104900000D01*
G75*
G02*
X81100000Y-104825000I0J75000D01*
G01*
G37*
G36*
G01*
X81600000Y-104825000D02*
X81600000Y-103500000D01*
G75*
G02*
X81675000Y-103425000I75000J0D01*
G01*
X81825000Y-103425000D01*
G75*
G02*
X81900000Y-103500000I0J-75000D01*
G01*
X81900000Y-104825000D01*
G75*
G02*
X81825000Y-104900000I-75000J0D01*
G01*
X81675000Y-104900000D01*
G75*
G02*
X81600000Y-104825000I0J75000D01*
G01*
G37*
G36*
G01*
X82100000Y-104825000D02*
X82100000Y-103500000D01*
G75*
G02*
X82175000Y-103425000I75000J0D01*
G01*
X82325000Y-103425000D01*
G75*
G02*
X82400000Y-103500000I0J-75000D01*
G01*
X82400000Y-104825000D01*
G75*
G02*
X82325000Y-104900000I-75000J0D01*
G01*
X82175000Y-104900000D01*
G75*
G02*
X82100000Y-104825000I0J75000D01*
G01*
G37*
G36*
G01*
X82600000Y-104825000D02*
X82600000Y-103500000D01*
G75*
G02*
X82675000Y-103425000I75000J0D01*
G01*
X82825000Y-103425000D01*
G75*
G02*
X82900000Y-103500000I0J-75000D01*
G01*
X82900000Y-104825000D01*
G75*
G02*
X82825000Y-104900000I-75000J0D01*
G01*
X82675000Y-104900000D01*
G75*
G02*
X82600000Y-104825000I0J75000D01*
G01*
G37*
G36*
G01*
X83425000Y-102825000D02*
X83425000Y-102675000D01*
G75*
G02*
X83500000Y-102600000I75000J0D01*
G01*
X84825000Y-102600000D01*
G75*
G02*
X84900000Y-102675000I0J-75000D01*
G01*
X84900000Y-102825000D01*
G75*
G02*
X84825000Y-102900000I-75000J0D01*
G01*
X83500000Y-102900000D01*
G75*
G02*
X83425000Y-102825000I0J75000D01*
G01*
G37*
G36*
G01*
X83425000Y-102325000D02*
X83425000Y-102175000D01*
G75*
G02*
X83500000Y-102100000I75000J0D01*
G01*
X84825000Y-102100000D01*
G75*
G02*
X84900000Y-102175000I0J-75000D01*
G01*
X84900000Y-102325000D01*
G75*
G02*
X84825000Y-102400000I-75000J0D01*
G01*
X83500000Y-102400000D01*
G75*
G02*
X83425000Y-102325000I0J75000D01*
G01*
G37*
G36*
G01*
X83425000Y-101825000D02*
X83425000Y-101675000D01*
G75*
G02*
X83500000Y-101600000I75000J0D01*
G01*
X84825000Y-101600000D01*
G75*
G02*
X84900000Y-101675000I0J-75000D01*
G01*
X84900000Y-101825000D01*
G75*
G02*
X84825000Y-101900000I-75000J0D01*
G01*
X83500000Y-101900000D01*
G75*
G02*
X83425000Y-101825000I0J75000D01*
G01*
G37*
G36*
G01*
X83425000Y-101325000D02*
X83425000Y-101175000D01*
G75*
G02*
X83500000Y-101100000I75000J0D01*
G01*
X84825000Y-101100000D01*
G75*
G02*
X84900000Y-101175000I0J-75000D01*
G01*
X84900000Y-101325000D01*
G75*
G02*
X84825000Y-101400000I-75000J0D01*
G01*
X83500000Y-101400000D01*
G75*
G02*
X83425000Y-101325000I0J75000D01*
G01*
G37*
G36*
G01*
X83425000Y-100825000D02*
X83425000Y-100675000D01*
G75*
G02*
X83500000Y-100600000I75000J0D01*
G01*
X84825000Y-100600000D01*
G75*
G02*
X84900000Y-100675000I0J-75000D01*
G01*
X84900000Y-100825000D01*
G75*
G02*
X84825000Y-100900000I-75000J0D01*
G01*
X83500000Y-100900000D01*
G75*
G02*
X83425000Y-100825000I0J75000D01*
G01*
G37*
G36*
G01*
X83425000Y-100325000D02*
X83425000Y-100175000D01*
G75*
G02*
X83500000Y-100100000I75000J0D01*
G01*
X84825000Y-100100000D01*
G75*
G02*
X84900000Y-100175000I0J-75000D01*
G01*
X84900000Y-100325000D01*
G75*
G02*
X84825000Y-100400000I-75000J0D01*
G01*
X83500000Y-100400000D01*
G75*
G02*
X83425000Y-100325000I0J75000D01*
G01*
G37*
G36*
G01*
X83425000Y-99825000D02*
X83425000Y-99675000D01*
G75*
G02*
X83500000Y-99600000I75000J0D01*
G01*
X84825000Y-99600000D01*
G75*
G02*
X84900000Y-99675000I0J-75000D01*
G01*
X84900000Y-99825000D01*
G75*
G02*
X84825000Y-99900000I-75000J0D01*
G01*
X83500000Y-99900000D01*
G75*
G02*
X83425000Y-99825000I0J75000D01*
G01*
G37*
G36*
G01*
X83425000Y-99325000D02*
X83425000Y-99175000D01*
G75*
G02*
X83500000Y-99100000I75000J0D01*
G01*
X84825000Y-99100000D01*
G75*
G02*
X84900000Y-99175000I0J-75000D01*
G01*
X84900000Y-99325000D01*
G75*
G02*
X84825000Y-99400000I-75000J0D01*
G01*
X83500000Y-99400000D01*
G75*
G02*
X83425000Y-99325000I0J75000D01*
G01*
G37*
G36*
G01*
X83425000Y-98825000D02*
X83425000Y-98675000D01*
G75*
G02*
X83500000Y-98600000I75000J0D01*
G01*
X84825000Y-98600000D01*
G75*
G02*
X84900000Y-98675000I0J-75000D01*
G01*
X84900000Y-98825000D01*
G75*
G02*
X84825000Y-98900000I-75000J0D01*
G01*
X83500000Y-98900000D01*
G75*
G02*
X83425000Y-98825000I0J75000D01*
G01*
G37*
G36*
G01*
X83425000Y-98325000D02*
X83425000Y-98175000D01*
G75*
G02*
X83500000Y-98100000I75000J0D01*
G01*
X84825000Y-98100000D01*
G75*
G02*
X84900000Y-98175000I0J-75000D01*
G01*
X84900000Y-98325000D01*
G75*
G02*
X84825000Y-98400000I-75000J0D01*
G01*
X83500000Y-98400000D01*
G75*
G02*
X83425000Y-98325000I0J75000D01*
G01*
G37*
G36*
G01*
X83425000Y-97825000D02*
X83425000Y-97675000D01*
G75*
G02*
X83500000Y-97600000I75000J0D01*
G01*
X84825000Y-97600000D01*
G75*
G02*
X84900000Y-97675000I0J-75000D01*
G01*
X84900000Y-97825000D01*
G75*
G02*
X84825000Y-97900000I-75000J0D01*
G01*
X83500000Y-97900000D01*
G75*
G02*
X83425000Y-97825000I0J75000D01*
G01*
G37*
G36*
G01*
X83425000Y-97325000D02*
X83425000Y-97175000D01*
G75*
G02*
X83500000Y-97100000I75000J0D01*
G01*
X84825000Y-97100000D01*
G75*
G02*
X84900000Y-97175000I0J-75000D01*
G01*
X84900000Y-97325000D01*
G75*
G02*
X84825000Y-97400000I-75000J0D01*
G01*
X83500000Y-97400000D01*
G75*
G02*
X83425000Y-97325000I0J75000D01*
G01*
G37*
G36*
G01*
X82600000Y-96500000D02*
X82600000Y-95175000D01*
G75*
G02*
X82675000Y-95100000I75000J0D01*
G01*
X82825000Y-95100000D01*
G75*
G02*
X82900000Y-95175000I0J-75000D01*
G01*
X82900000Y-96500000D01*
G75*
G02*
X82825000Y-96575000I-75000J0D01*
G01*
X82675000Y-96575000D01*
G75*
G02*
X82600000Y-96500000I0J75000D01*
G01*
G37*
G36*
G01*
X82100000Y-96500000D02*
X82100000Y-95175000D01*
G75*
G02*
X82175000Y-95100000I75000J0D01*
G01*
X82325000Y-95100000D01*
G75*
G02*
X82400000Y-95175000I0J-75000D01*
G01*
X82400000Y-96500000D01*
G75*
G02*
X82325000Y-96575000I-75000J0D01*
G01*
X82175000Y-96575000D01*
G75*
G02*
X82100000Y-96500000I0J75000D01*
G01*
G37*
G36*
G01*
X81600000Y-96500000D02*
X81600000Y-95175000D01*
G75*
G02*
X81675000Y-95100000I75000J0D01*
G01*
X81825000Y-95100000D01*
G75*
G02*
X81900000Y-95175000I0J-75000D01*
G01*
X81900000Y-96500000D01*
G75*
G02*
X81825000Y-96575000I-75000J0D01*
G01*
X81675000Y-96575000D01*
G75*
G02*
X81600000Y-96500000I0J75000D01*
G01*
G37*
G36*
G01*
X81100000Y-96500000D02*
X81100000Y-95175000D01*
G75*
G02*
X81175000Y-95100000I75000J0D01*
G01*
X81325000Y-95100000D01*
G75*
G02*
X81400000Y-95175000I0J-75000D01*
G01*
X81400000Y-96500000D01*
G75*
G02*
X81325000Y-96575000I-75000J0D01*
G01*
X81175000Y-96575000D01*
G75*
G02*
X81100000Y-96500000I0J75000D01*
G01*
G37*
G36*
G01*
X80600000Y-96500000D02*
X80600000Y-95175000D01*
G75*
G02*
X80675000Y-95100000I75000J0D01*
G01*
X80825000Y-95100000D01*
G75*
G02*
X80900000Y-95175000I0J-75000D01*
G01*
X80900000Y-96500000D01*
G75*
G02*
X80825000Y-96575000I-75000J0D01*
G01*
X80675000Y-96575000D01*
G75*
G02*
X80600000Y-96500000I0J75000D01*
G01*
G37*
G36*
G01*
X80100000Y-96500000D02*
X80100000Y-95175000D01*
G75*
G02*
X80175000Y-95100000I75000J0D01*
G01*
X80325000Y-95100000D01*
G75*
G02*
X80400000Y-95175000I0J-75000D01*
G01*
X80400000Y-96500000D01*
G75*
G02*
X80325000Y-96575000I-75000J0D01*
G01*
X80175000Y-96575000D01*
G75*
G02*
X80100000Y-96500000I0J75000D01*
G01*
G37*
G36*
G01*
X79600000Y-96500000D02*
X79600000Y-95175000D01*
G75*
G02*
X79675000Y-95100000I75000J0D01*
G01*
X79825000Y-95100000D01*
G75*
G02*
X79900000Y-95175000I0J-75000D01*
G01*
X79900000Y-96500000D01*
G75*
G02*
X79825000Y-96575000I-75000J0D01*
G01*
X79675000Y-96575000D01*
G75*
G02*
X79600000Y-96500000I0J75000D01*
G01*
G37*
G36*
G01*
X79100000Y-96500000D02*
X79100000Y-95175000D01*
G75*
G02*
X79175000Y-95100000I75000J0D01*
G01*
X79325000Y-95100000D01*
G75*
G02*
X79400000Y-95175000I0J-75000D01*
G01*
X79400000Y-96500000D01*
G75*
G02*
X79325000Y-96575000I-75000J0D01*
G01*
X79175000Y-96575000D01*
G75*
G02*
X79100000Y-96500000I0J75000D01*
G01*
G37*
G36*
G01*
X78600000Y-96500000D02*
X78600000Y-95175000D01*
G75*
G02*
X78675000Y-95100000I75000J0D01*
G01*
X78825000Y-95100000D01*
G75*
G02*
X78900000Y-95175000I0J-75000D01*
G01*
X78900000Y-96500000D01*
G75*
G02*
X78825000Y-96575000I-75000J0D01*
G01*
X78675000Y-96575000D01*
G75*
G02*
X78600000Y-96500000I0J75000D01*
G01*
G37*
G36*
G01*
X78100000Y-96500000D02*
X78100000Y-95175000D01*
G75*
G02*
X78175000Y-95100000I75000J0D01*
G01*
X78325000Y-95100000D01*
G75*
G02*
X78400000Y-95175000I0J-75000D01*
G01*
X78400000Y-96500000D01*
G75*
G02*
X78325000Y-96575000I-75000J0D01*
G01*
X78175000Y-96575000D01*
G75*
G02*
X78100000Y-96500000I0J75000D01*
G01*
G37*
G36*
G01*
X77600000Y-96500000D02*
X77600000Y-95175000D01*
G75*
G02*
X77675000Y-95100000I75000J0D01*
G01*
X77825000Y-95100000D01*
G75*
G02*
X77900000Y-95175000I0J-75000D01*
G01*
X77900000Y-96500000D01*
G75*
G02*
X77825000Y-96575000I-75000J0D01*
G01*
X77675000Y-96575000D01*
G75*
G02*
X77600000Y-96500000I0J75000D01*
G01*
G37*
G36*
G01*
X77100000Y-96500000D02*
X77100000Y-95175000D01*
G75*
G02*
X77175000Y-95100000I75000J0D01*
G01*
X77325000Y-95100000D01*
G75*
G02*
X77400000Y-95175000I0J-75000D01*
G01*
X77400000Y-96500000D01*
G75*
G02*
X77325000Y-96575000I-75000J0D01*
G01*
X77175000Y-96575000D01*
G75*
G02*
X77100000Y-96500000I0J75000D01*
G01*
G37*
G36*
G01*
X75100000Y-97325000D02*
X75100000Y-97175000D01*
G75*
G02*
X75175000Y-97100000I75000J0D01*
G01*
X76500000Y-97100000D01*
G75*
G02*
X76575000Y-97175000I0J-75000D01*
G01*
X76575000Y-97325000D01*
G75*
G02*
X76500000Y-97400000I-75000J0D01*
G01*
X75175000Y-97400000D01*
G75*
G02*
X75100000Y-97325000I0J75000D01*
G01*
G37*
G36*
G01*
X75100000Y-97825000D02*
X75100000Y-97675000D01*
G75*
G02*
X75175000Y-97600000I75000J0D01*
G01*
X76500000Y-97600000D01*
G75*
G02*
X76575000Y-97675000I0J-75000D01*
G01*
X76575000Y-97825000D01*
G75*
G02*
X76500000Y-97900000I-75000J0D01*
G01*
X75175000Y-97900000D01*
G75*
G02*
X75100000Y-97825000I0J75000D01*
G01*
G37*
G36*
G01*
X75100000Y-98325000D02*
X75100000Y-98175000D01*
G75*
G02*
X75175000Y-98100000I75000J0D01*
G01*
X76500000Y-98100000D01*
G75*
G02*
X76575000Y-98175000I0J-75000D01*
G01*
X76575000Y-98325000D01*
G75*
G02*
X76500000Y-98400000I-75000J0D01*
G01*
X75175000Y-98400000D01*
G75*
G02*
X75100000Y-98325000I0J75000D01*
G01*
G37*
G36*
G01*
X75100000Y-98825000D02*
X75100000Y-98675000D01*
G75*
G02*
X75175000Y-98600000I75000J0D01*
G01*
X76500000Y-98600000D01*
G75*
G02*
X76575000Y-98675000I0J-75000D01*
G01*
X76575000Y-98825000D01*
G75*
G02*
X76500000Y-98900000I-75000J0D01*
G01*
X75175000Y-98900000D01*
G75*
G02*
X75100000Y-98825000I0J75000D01*
G01*
G37*
G36*
G01*
X75100000Y-99325000D02*
X75100000Y-99175000D01*
G75*
G02*
X75175000Y-99100000I75000J0D01*
G01*
X76500000Y-99100000D01*
G75*
G02*
X76575000Y-99175000I0J-75000D01*
G01*
X76575000Y-99325000D01*
G75*
G02*
X76500000Y-99400000I-75000J0D01*
G01*
X75175000Y-99400000D01*
G75*
G02*
X75100000Y-99325000I0J75000D01*
G01*
G37*
G36*
G01*
X75100000Y-99825000D02*
X75100000Y-99675000D01*
G75*
G02*
X75175000Y-99600000I75000J0D01*
G01*
X76500000Y-99600000D01*
G75*
G02*
X76575000Y-99675000I0J-75000D01*
G01*
X76575000Y-99825000D01*
G75*
G02*
X76500000Y-99900000I-75000J0D01*
G01*
X75175000Y-99900000D01*
G75*
G02*
X75100000Y-99825000I0J75000D01*
G01*
G37*
G36*
G01*
X75100000Y-100325000D02*
X75100000Y-100175000D01*
G75*
G02*
X75175000Y-100100000I75000J0D01*
G01*
X76500000Y-100100000D01*
G75*
G02*
X76575000Y-100175000I0J-75000D01*
G01*
X76575000Y-100325000D01*
G75*
G02*
X76500000Y-100400000I-75000J0D01*
G01*
X75175000Y-100400000D01*
G75*
G02*
X75100000Y-100325000I0J75000D01*
G01*
G37*
G36*
G01*
X75100000Y-100825000D02*
X75100000Y-100675000D01*
G75*
G02*
X75175000Y-100600000I75000J0D01*
G01*
X76500000Y-100600000D01*
G75*
G02*
X76575000Y-100675000I0J-75000D01*
G01*
X76575000Y-100825000D01*
G75*
G02*
X76500000Y-100900000I-75000J0D01*
G01*
X75175000Y-100900000D01*
G75*
G02*
X75100000Y-100825000I0J75000D01*
G01*
G37*
G36*
G01*
X75100000Y-101325000D02*
X75100000Y-101175000D01*
G75*
G02*
X75175000Y-101100000I75000J0D01*
G01*
X76500000Y-101100000D01*
G75*
G02*
X76575000Y-101175000I0J-75000D01*
G01*
X76575000Y-101325000D01*
G75*
G02*
X76500000Y-101400000I-75000J0D01*
G01*
X75175000Y-101400000D01*
G75*
G02*
X75100000Y-101325000I0J75000D01*
G01*
G37*
G36*
G01*
X75100000Y-101825000D02*
X75100000Y-101675000D01*
G75*
G02*
X75175000Y-101600000I75000J0D01*
G01*
X76500000Y-101600000D01*
G75*
G02*
X76575000Y-101675000I0J-75000D01*
G01*
X76575000Y-101825000D01*
G75*
G02*
X76500000Y-101900000I-75000J0D01*
G01*
X75175000Y-101900000D01*
G75*
G02*
X75100000Y-101825000I0J75000D01*
G01*
G37*
G36*
G01*
X75100000Y-102325000D02*
X75100000Y-102175000D01*
G75*
G02*
X75175000Y-102100000I75000J0D01*
G01*
X76500000Y-102100000D01*
G75*
G02*
X76575000Y-102175000I0J-75000D01*
G01*
X76575000Y-102325000D01*
G75*
G02*
X76500000Y-102400000I-75000J0D01*
G01*
X75175000Y-102400000D01*
G75*
G02*
X75100000Y-102325000I0J75000D01*
G01*
G37*
G36*
G01*
X75100000Y-102825000D02*
X75100000Y-102675000D01*
G75*
G02*
X75175000Y-102600000I75000J0D01*
G01*
X76500000Y-102600000D01*
G75*
G02*
X76575000Y-102675000I0J-75000D01*
G01*
X76575000Y-102825000D01*
G75*
G02*
X76500000Y-102900000I-75000J0D01*
G01*
X75175000Y-102900000D01*
G75*
G02*
X75100000Y-102825000I0J75000D01*
G01*
G37*
%TD*%
D32*
%TO.C,RN7*%
X71600000Y-82950000D03*
X71600000Y-82150000D03*
X71600000Y-81350000D03*
X71600000Y-80550000D03*
X69900000Y-82950000D03*
X69900000Y-82150000D03*
X69900000Y-81350000D03*
X69900000Y-80550000D03*
%TD*%
%TO.C,RN6*%
X69600000Y-121200000D03*
X69600000Y-120400000D03*
X69600000Y-119600000D03*
X69600000Y-118800000D03*
X67900000Y-121200000D03*
X67900000Y-120400000D03*
X67900000Y-119600000D03*
X67900000Y-118800000D03*
%TD*%
%TO.C,RN5*%
X111900000Y-78050000D03*
X111900000Y-78850000D03*
X111900000Y-79650000D03*
X111900000Y-80450000D03*
X113600000Y-78050000D03*
X113600000Y-78850000D03*
X113600000Y-79650000D03*
X113600000Y-80450000D03*
%TD*%
D33*
%TO.C,RN4*%
X92870000Y-115000000D03*
D34*
X94890000Y-115000000D03*
X94250000Y-115000000D03*
D33*
X95630000Y-115000000D03*
D34*
X93610000Y-115000000D03*
D33*
X95630000Y-117000000D03*
D34*
X94890000Y-117000000D03*
X94250000Y-117000000D03*
X93610000Y-117000000D03*
D33*
X92870000Y-117000000D03*
%TD*%
%TO.C,RN3*%
X78870000Y-89250000D03*
D34*
X80890000Y-89250000D03*
X80250000Y-89250000D03*
D33*
X81630000Y-89250000D03*
D34*
X79610000Y-89250000D03*
D33*
X81630000Y-91250000D03*
D34*
X80890000Y-91250000D03*
X80250000Y-91250000D03*
X79610000Y-91250000D03*
D33*
X78870000Y-91250000D03*
%TD*%
D35*
%TO.C,RN2*%
X100950000Y-130150000D03*
X100150000Y-130150000D03*
X99350000Y-130150000D03*
X98550000Y-130150000D03*
X100950000Y-131850000D03*
X100150000Y-131850000D03*
X99350000Y-131850000D03*
X98550000Y-131850000D03*
%TD*%
%TO.C,RN1*%
X86950000Y-130150000D03*
X86150000Y-130150000D03*
X85350000Y-130150000D03*
X84550000Y-130150000D03*
X86950000Y-131850000D03*
X86150000Y-131850000D03*
X85350000Y-131850000D03*
X84550000Y-131850000D03*
%TD*%
D36*
%TO.C,R5*%
X63800000Y-107000000D03*
X70200000Y-107000000D03*
%TD*%
D24*
%TO.C,R4*%
X79100000Y-107200000D03*
X80900000Y-107200000D03*
%TD*%
%TO.C,R3*%
X71600000Y-101700000D03*
X73400000Y-101700000D03*
%TD*%
%TO.C,R2*%
X68100000Y-99500000D03*
X69900000Y-99500000D03*
%TD*%
%TO.C,R1*%
X68100000Y-101000000D03*
X69900000Y-101000000D03*
%TD*%
D37*
%TO.C,J8*%
X65000000Y-74750000D03*
X65000000Y-71250000D03*
X65000000Y-81750000D03*
X65000000Y-78250000D03*
X65000000Y-85250000D03*
X65000000Y-88750000D03*
%TD*%
%TO.C,J7*%
X65000000Y-114750000D03*
X65000000Y-111250000D03*
X65000000Y-121750000D03*
X65000000Y-118250000D03*
X65000000Y-125250000D03*
X65000000Y-128750000D03*
%TD*%
D38*
%TO.C,J6*%
X133000000Y-79000000D03*
D39*
X130700000Y-83470000D03*
D40*
X128160000Y-82450000D03*
D39*
X130700000Y-85510000D03*
X128160000Y-84490000D03*
X130700000Y-87550000D03*
D38*
X133000000Y-91000000D03*
D39*
X128160000Y-86530000D03*
%TD*%
D16*
%TO.C,J4*%
X118770000Y-110080000D03*
D17*
X116230000Y-110080000D03*
X118770000Y-107540000D03*
X116230000Y-107540000D03*
X118770000Y-105000000D03*
X116230000Y-105000000D03*
X118770000Y-102460000D03*
X116230000Y-102460000D03*
X118770000Y-99920000D03*
X116230000Y-99920000D03*
%TD*%
D16*
%TO.C,J3*%
X116230000Y-82460000D03*
D17*
X118770000Y-82460000D03*
X116230000Y-85000000D03*
X118770000Y-85000000D03*
X116230000Y-87540000D03*
X118770000Y-87540000D03*
%TD*%
D41*
%TO.C,J1*%
X63750000Y-97340000D03*
D42*
X64260000Y-101300000D03*
X64260000Y-100650000D03*
X64260000Y-100000000D03*
X64260000Y-99350000D03*
D43*
X61450000Y-100840000D03*
D44*
X61450000Y-102910000D03*
D41*
X63750000Y-102660000D03*
D44*
X61450000Y-97090000D03*
D43*
X61450000Y-99160000D03*
D42*
X64260000Y-98700000D03*
%TD*%
D26*
%TO.C,E1*%
X114270000Y-121190000D03*
X114270000Y-126270000D03*
X114270000Y-128810000D03*
X114270000Y-123730000D03*
X110730000Y-121190000D03*
X110730000Y-123730000D03*
X110730000Y-128810000D03*
X110730000Y-126270000D03*
%TD*%
D45*
%TO.C,D9*%
X107600000Y-71500000D03*
X115400000Y-71500000D03*
%TD*%
D24*
%TO.C,C19*%
X104600000Y-126000000D03*
X106400000Y-126000000D03*
%TD*%
%TO.C,C18*%
X94600000Y-76750000D03*
X96400000Y-76750000D03*
%TD*%
D15*
%TO.C,C17*%
X96250000Y-73150000D03*
X96250000Y-71350000D03*
%TD*%
D24*
%TO.C,C16*%
X96400000Y-74750000D03*
X94600000Y-74750000D03*
%TD*%
D15*
%TO.C,C15*%
X84000000Y-70850000D03*
X84000000Y-72650000D03*
%TD*%
%TO.C,C14*%
X94500000Y-73150000D03*
X94500000Y-71350000D03*
%TD*%
D24*
%TO.C,C13*%
X100400000Y-91750000D03*
X98600000Y-91750000D03*
%TD*%
D46*
%TO.C,C12*%
X128500000Y-115300000D03*
X128500000Y-118700000D03*
%TD*%
D15*
%TO.C,C11*%
X126000000Y-115850000D03*
X126000000Y-117650000D03*
%TD*%
D24*
%TO.C,C10*%
X110900000Y-101500000D03*
X109100000Y-101500000D03*
%TD*%
%TO.C,C9*%
X110900000Y-103250000D03*
X109100000Y-103250000D03*
%TD*%
D46*
%TO.C,C8*%
X117500000Y-130050000D03*
X117500000Y-133450000D03*
%TD*%
D24*
%TO.C,C7*%
X132100000Y-132250000D03*
X133900000Y-132250000D03*
%TD*%
%TO.C,C6*%
X75600000Y-93750000D03*
X77400000Y-93750000D03*
%TD*%
%TO.C,C5*%
X79100000Y-108750000D03*
X80900000Y-108750000D03*
%TD*%
D15*
%TO.C,C4*%
X77500000Y-107900000D03*
X77500000Y-106100000D03*
%TD*%
D24*
%TO.C,C3*%
X71600000Y-100250000D03*
X73400000Y-100250000D03*
%TD*%
%TO.C,C2*%
X77400000Y-110250000D03*
X75600000Y-110250000D03*
%TD*%
%TO.C,C1*%
X79100000Y-110250000D03*
X80900000Y-110250000D03*
%TD*%
M02*
