M48
; DRILL file {KiCad 5.1.8-4.fc33} date Sun Dec 20 17:27:55 2020
; FORMAT={-:-/ absolute / metric / decimal}
; #@! TF.CreationDate,2020-12-20T17:27:55+03:00
; #@! TF.GenerationSoftware,Kicad,Pcbnew,5.1.8-4.fc33
FMAT,2
METRIC
T1C0.400
T2C0.500
T3C0.600
T4C0.900
T5C1.000
T6C1.016
T7C1.100
T8C2.500
%
G90
G05
T1
X66.5Y-98.5
X66.75Y-79.25
X66.75Y-95.25
X66.75Y-96.25
X67.0Y-128.25
X67.75Y-82.0
X67.75Y-83.0
X67.75Y-90.5
X67.75Y-92.0
X68.25Y-73.25
X68.5Y-80.5
X68.75Y-116.25
X68.75Y-124.0
X69.25Y-72.25
X69.25Y-84.25
X69.25Y-89.5
X70.0Y-90.25
X70.0Y-117.25
X70.75Y-89.5
X70.75Y-124.0
X70.75Y-126.0
X70.75Y-128.25
X71.0Y-76.0
X71.0Y-117.5
X71.5Y-90.25
X71.5Y-114.5
X72.0Y-75.0
X72.25Y-105.75
X72.5Y-95.5
X72.5Y-128.25
X73.25Y-103.0
X73.25Y-104.75
X73.5Y-90.75
X73.5Y-94.5
X73.75Y-98.0
X74.25Y-113.75
X74.25Y-125.0
X74.745Y-119.555
X74.75Y-90.75
X75.0Y-108.25
X75.25Y-121.25
X76.0Y-90.75
X76.0Y-95.5
X76.75Y-72.0
X77.5Y-73.25
X77.5Y-99.5
X77.5Y-101.0
X77.75Y-90.25
X78.0Y-112.75
X78.0Y-114.5
X78.0Y-117.0
X78.2Y-102.6
X78.5Y-86.5
X78.75Y-93.75
X79.0Y-106.0
X79.25Y-75.75
X79.25Y-77.0
X79.25Y-78.5
X79.75Y-94.25
X80.0Y-106.0
X80.5Y-87.25
X80.5Y-99.0
X80.5Y-101.25
X80.513Y-97.987
X80.75Y-85.75
X81.0Y-92.5
X81.505Y-111.264
X81.75Y-100.25
X82.0Y-84.0
X82.0Y-114.0
X82.0Y-115.25
X82.0Y-124.75
X82.487Y-98.487
X82.5Y-71.0
X82.5Y-72.75
X82.5Y-99.5
X82.5Y-108.25
X82.75Y-101.25
X82.75Y-102.75
X83.0Y-93.25
X83.013Y-94.263
X83.5Y-116.75
X83.75Y-67.25
X83.75Y-89.75
X83.75Y-115.0
X84.25Y-96.5
X84.25Y-118.5
X84.25Y-133.0
X84.487Y-86.513
X84.5Y-91.25
X84.5Y-120.0
X84.75Y-124.25
X85.25Y-94.0
X85.25Y-133.0
X85.5Y-87.5
X86.0Y-100.0
X86.0Y-101.5
X86.25Y-111.5
X86.25Y-133.0
X86.75Y-99.25
X86.75Y-102.25
X87.25Y-82.75
X87.25Y-122.25
X87.25Y-133.0
X87.5Y-95.5
X87.5Y-98.5
X87.5Y-101.5
X87.5Y-124.75
X88.25Y-72.25
X88.25Y-97.75
X88.25Y-102.25
X88.25Y-107.0
X88.5Y-122.25
X89.0Y-97.0
X89.0Y-101.5
X89.263Y-94.013
X89.75Y-96.25
X89.75Y-102.25
X90.0Y-107.0
X90.0Y-119.75
X90.25Y-72.25
X90.5Y-78.5
X90.5Y-79.75
X90.5Y-95.5
X90.5Y-101.5
X90.5Y-114.75
X90.5Y-122.0
X90.75Y-89.0
X90.75Y-90.0
X90.75Y-91.0
X91.0Y-124.0
X91.25Y-84.0
X91.5Y-93.25
X91.875Y-86.375
X92.5Y-88.5
X92.75Y-118.25
X92.75Y-132.5
X93.0Y-83.5
X94.5Y-122.5
X94.75Y-113.25
X95.5Y-99.5
X95.75Y-113.75
X95.75Y-120.75
X96.0Y-107.5
X96.475Y-88.275
X96.75Y-104.5
X97.0Y-109.0
X97.75Y-71.75
X97.75Y-76.5
X97.75Y-99.75
X97.75Y-101.25
X98.0Y-82.5
X98.0Y-122.5
X98.0Y-125.0
X98.25Y-133.0
X98.5Y-100.5
X98.75Y-102.0
X98.75Y-109.5
X99.0Y-103.25
X99.0Y-123.0
X99.25Y-83.5
X99.25Y-133.0
X99.5Y-86.5
X99.75Y-84.75
X100.0Y-104.5
X100.25Y-133.0
X100.491Y-122.991
X100.75Y-88.0
X100.75Y-95.75
X101.25Y-133.0
X102.0Y-91.25
X102.25Y-95.75
X103.25Y-126.0
X104.0Y-78.0
X104.0Y-80.25
X104.25Y-100.75
X104.5Y-95.75
X106.5Y-92.75
X107.0Y-90.25
X107.0Y-91.75
X107.0Y-114.25
X107.0Y-115.25
X107.5Y-100.5
X107.5Y-101.75
X107.75Y-122.25
X108.0Y-91.0
X108.75Y-114.25
X110.0Y-100.25
X110.5Y-98.5
X110.75Y-71.0
X110.75Y-72.75
X111.5Y-89.5
X112.0Y-96.25
X112.5Y-73.75
X112.5Y-86.75
X113.25Y-71.0
X113.5Y-107.5
X114.0Y-105.0
X114.25Y-101.75
X116.5Y-77.75
X116.75Y-98.0
X117.5Y-123.25
X117.5Y-124.75
X122.5Y-103.5
X124.25Y-101.5
X126.0Y-101.5
X127.5Y-101.25
X127.5Y-102.5
X128.5Y-100.0
X130.75Y-132.25
X136.0Y-84.5
X136.25Y-113.25
X136.5Y-68.75
X136.5Y-70.25
T2
X75.5Y-105.0
X78.0Y-97.832
X95.75Y-102.168
X99.5Y-95.75
X104.25Y-99.5
T3
X77.5Y-109.0
X83.25Y-111.0
X92.75Y-105.0
X96.5Y-89.5
X107.75Y-133.5
X109.5Y-133.5
X111.5Y-133.5
X113.5Y-133.5
X115.25Y-118.25
X116.5Y-91.0
X116.5Y-92.75
X116.5Y-94.5
X117.5Y-118.25
X117.5Y-121.25
X120.25Y-121.25
X120.25Y-123.0
X120.25Y-124.75
X120.25Y-129.25
X120.75Y-87.5
X123.75Y-113.5
X125.5Y-113.5
X127.25Y-113.5
X128.5Y-98.0
X130.0Y-129.25
X131.0Y-115.5
T4
X128.16Y-82.45
X128.16Y-84.49
X128.16Y-86.53
X130.7Y-83.47
X130.7Y-85.51
X130.7Y-87.55
T5
X65.0Y-111.25
X65.0Y-114.75
X65.0Y-118.25
X65.0Y-121.75
X65.0Y-125.25
X65.0Y-128.75
X105.73Y-82.46
X105.73Y-85.0
X105.73Y-87.54
X108.27Y-82.46
X108.27Y-85.0
X108.27Y-87.54
X111.23Y-121.19
X111.23Y-123.73
X111.23Y-126.27
X111.23Y-128.81
X113.77Y-121.19
X113.77Y-123.73
X113.77Y-126.27
X113.77Y-128.81
X65.0Y-71.25
X65.0Y-74.75
X65.0Y-78.25
X65.0Y-81.75
X65.0Y-85.25
X65.0Y-88.75
T6
X116.23Y-82.46
X116.23Y-85.0
X116.23Y-87.54
X118.77Y-82.46
X118.77Y-85.0
X118.77Y-87.54
X116.23Y-99.92
X116.23Y-102.46
X116.23Y-105.0
X116.23Y-107.54
X116.23Y-110.08
X118.77Y-99.92
X118.77Y-102.46
X118.77Y-105.0
X118.77Y-107.54
X118.77Y-110.08
X131.23Y-99.92
X131.23Y-102.46
X131.23Y-105.0
X131.23Y-107.54
X131.23Y-110.08
X133.77Y-99.92
X133.77Y-102.46
X133.77Y-105.0
X133.77Y-107.54
X133.77Y-110.08
T7
X103.75Y-110.75
X103.75Y-115.25
X110.25Y-110.75
X110.25Y-115.25
T8
X133.0Y-79.0
X133.0Y-91.0
T0
M30
