%TF.GenerationSoftware,KiCad,Pcbnew,5.1.8-4.fc33*%
%TF.CreationDate,2020-12-19T18:54:55+03:00*%
%TF.ProjectId,2232,32323332-2e6b-4696-9361-645f70636258,rev?*%
%TF.SameCoordinates,Original*%
%TF.FileFunction,Paste,Bot*%
%TF.FilePolarity,Positive*%
%FSLAX46Y46*%
G04 Gerber Fmt 4.6, Leading zero omitted, Abs format (unit mm)*
G04 Created by KiCad (PCBNEW 5.1.8-4.fc33) date 2020-12-19 18:54:55*
%MOMM*%
%LPD*%
G01*
G04 APERTURE LIST*
%ADD10R,2.400000X2.000000*%
%ADD11R,0.900000X0.800000*%
%ADD12R,1.200000X1.700000*%
%ADD13R,2.200000X0.900000*%
%ADD14R,2.400000X3.500000*%
%ADD15R,0.800000X1.600000*%
%ADD16R,1.800000X0.450000*%
%ADD17R,0.800000X0.900000*%
%ADD18R,0.400000X1.500000*%
%ADD19R,1.500000X0.400000*%
%ADD20R,2.000000X0.600000*%
%ADD21R,0.900000X2.200000*%
%ADD22R,3.500000X2.400000*%
%ADD23R,0.900000X0.440000*%
%ADD24R,0.600000X1.000000*%
%ADD25R,0.400000X1.000000*%
%ADD26R,0.440000X0.900000*%
%ADD27R,2.350000X3.700000*%
%ADD28R,2.100000X1.870000*%
%ADD29R,1.680000X0.450000*%
%ADD30R,1.900000X1.170000*%
%ADD31R,1.900000X2.375000*%
%ADD32R,2.200000X3.400000*%
%ADD33R,1.900000X1.400000*%
G04 APERTURE END LIST*
D10*
%TO.C,D10*%
X126500000Y-111400000D03*
X126500000Y-106600000D03*
%TD*%
D11*
%TO.C,R13*%
X129250000Y-91600000D03*
X129250000Y-93400000D03*
%TD*%
%TO.C,R12*%
X136750000Y-129400000D03*
X136750000Y-127600000D03*
%TD*%
%TO.C,R11*%
X135000000Y-129400000D03*
X135000000Y-127600000D03*
%TD*%
D12*
%TO.C,R9*%
X134400000Y-97250000D03*
X137600000Y-97250000D03*
%TD*%
D11*
%TO.C,R8*%
X136000000Y-86100000D03*
X136000000Y-87900000D03*
%TD*%
D13*
%TO.C,Q2*%
X126300000Y-95790000D03*
X126300000Y-93500000D03*
D14*
X119700000Y-93500000D03*
D13*
X126300000Y-91210000D03*
%TD*%
D15*
%TO.C,Q1*%
X136000000Y-91500000D03*
X135050000Y-94500000D03*
X136950000Y-94500000D03*
%TD*%
D16*
%TO.C,U5*%
X94950000Y-83075000D03*
X94950000Y-83725000D03*
X94950000Y-84375000D03*
X94950000Y-85025000D03*
X94950000Y-85675000D03*
X94950000Y-86325000D03*
X94950000Y-86975000D03*
X94950000Y-87625000D03*
X94950000Y-88275000D03*
X89050000Y-83075000D03*
X89050000Y-83725000D03*
X89050000Y-84375000D03*
X89050000Y-85025000D03*
X89050000Y-85675000D03*
X89050000Y-86325000D03*
X89050000Y-86975000D03*
X89050000Y-87625000D03*
X89050000Y-88275000D03*
X94950000Y-88925000D03*
X89050000Y-88925000D03*
%TD*%
D17*
%TO.C,C21*%
X100400000Y-89750000D03*
X98600000Y-89750000D03*
%TD*%
D18*
%TO.C,U3*%
X104000000Y-94000000D03*
X103200000Y-94000000D03*
X102400000Y-94000000D03*
X101600000Y-94000000D03*
X100800000Y-94000000D03*
X100000000Y-94000000D03*
X99200000Y-94000000D03*
X98400000Y-94000000D03*
X97600000Y-94000000D03*
X96800000Y-94000000D03*
X96000000Y-94000000D03*
D19*
X94000000Y-96000000D03*
X94000000Y-96800000D03*
X94000000Y-97600000D03*
X94000000Y-98400000D03*
X94000000Y-99200000D03*
X94000000Y-100000000D03*
X94000000Y-100800000D03*
X94000000Y-101600000D03*
X94000000Y-102400000D03*
X94000000Y-103200000D03*
X94000000Y-104000000D03*
D18*
X96000000Y-106000000D03*
X96800000Y-106000000D03*
X97600000Y-106000000D03*
X98400000Y-106000000D03*
X99200000Y-106000000D03*
X100000000Y-106000000D03*
X100800000Y-106000000D03*
X101600000Y-106000000D03*
X102400000Y-106000000D03*
X103200000Y-106000000D03*
X104000000Y-106000000D03*
D19*
X106000000Y-104000000D03*
X106000000Y-103200000D03*
X106000000Y-102400000D03*
X106000000Y-101600000D03*
X106000000Y-100800000D03*
X106000000Y-100000000D03*
X106000000Y-99200000D03*
X106000000Y-98400000D03*
X106000000Y-97600000D03*
X106000000Y-96800000D03*
X106000000Y-96000000D03*
%TD*%
D17*
%TO.C,C20*%
X98850000Y-108250000D03*
X100650000Y-108250000D03*
%TD*%
%TO.C,R10*%
X64400000Y-94250000D03*
X62600000Y-94250000D03*
%TD*%
D11*
%TO.C,R7*%
X88750000Y-118900000D03*
X88750000Y-117100000D03*
%TD*%
%TO.C,R6*%
X88750000Y-115400000D03*
X88750000Y-113600000D03*
%TD*%
D20*
%TO.C,U6*%
X92250000Y-79945000D03*
X92250000Y-78675000D03*
X92250000Y-77405000D03*
X92250000Y-76135000D03*
X92250000Y-74865000D03*
X92250000Y-73595000D03*
X92250000Y-72325000D03*
X92250000Y-71055000D03*
X86250000Y-79945000D03*
X86250000Y-78675000D03*
X86250000Y-77405000D03*
X86250000Y-76135000D03*
X86250000Y-74865000D03*
X86250000Y-73595000D03*
X86250000Y-72325000D03*
X86250000Y-71055000D03*
%TD*%
D16*
%TO.C,U4*%
X80050000Y-118675000D03*
X80050000Y-118025000D03*
X80050000Y-117375000D03*
X80050000Y-116725000D03*
X80050000Y-116075000D03*
X80050000Y-115425000D03*
X80050000Y-114775000D03*
X80050000Y-114125000D03*
X80050000Y-113475000D03*
X85950000Y-118675000D03*
X85950000Y-118025000D03*
X85950000Y-117375000D03*
X85950000Y-116725000D03*
X85950000Y-116075000D03*
X85950000Y-115425000D03*
X85950000Y-114775000D03*
X85950000Y-114125000D03*
X85950000Y-113475000D03*
X80050000Y-112825000D03*
X85950000Y-112825000D03*
%TD*%
D21*
%TO.C,U2*%
X137290000Y-115950000D03*
X135000000Y-115950000D03*
D22*
X135000000Y-122550000D03*
D21*
X132710000Y-115950000D03*
%TD*%
%TO.C,U1*%
G36*
G01*
X77100000Y-104825000D02*
X77100000Y-103500000D01*
G75*
G02*
X77175000Y-103425000I75000J0D01*
G01*
X77325000Y-103425000D01*
G75*
G02*
X77400000Y-103500000I0J-75000D01*
G01*
X77400000Y-104825000D01*
G75*
G02*
X77325000Y-104900000I-75000J0D01*
G01*
X77175000Y-104900000D01*
G75*
G02*
X77100000Y-104825000I0J75000D01*
G01*
G37*
G36*
G01*
X77600000Y-104825000D02*
X77600000Y-103500000D01*
G75*
G02*
X77675000Y-103425000I75000J0D01*
G01*
X77825000Y-103425000D01*
G75*
G02*
X77900000Y-103500000I0J-75000D01*
G01*
X77900000Y-104825000D01*
G75*
G02*
X77825000Y-104900000I-75000J0D01*
G01*
X77675000Y-104900000D01*
G75*
G02*
X77600000Y-104825000I0J75000D01*
G01*
G37*
G36*
G01*
X78100000Y-104825000D02*
X78100000Y-103500000D01*
G75*
G02*
X78175000Y-103425000I75000J0D01*
G01*
X78325000Y-103425000D01*
G75*
G02*
X78400000Y-103500000I0J-75000D01*
G01*
X78400000Y-104825000D01*
G75*
G02*
X78325000Y-104900000I-75000J0D01*
G01*
X78175000Y-104900000D01*
G75*
G02*
X78100000Y-104825000I0J75000D01*
G01*
G37*
G36*
G01*
X78600000Y-104825000D02*
X78600000Y-103500000D01*
G75*
G02*
X78675000Y-103425000I75000J0D01*
G01*
X78825000Y-103425000D01*
G75*
G02*
X78900000Y-103500000I0J-75000D01*
G01*
X78900000Y-104825000D01*
G75*
G02*
X78825000Y-104900000I-75000J0D01*
G01*
X78675000Y-104900000D01*
G75*
G02*
X78600000Y-104825000I0J75000D01*
G01*
G37*
G36*
G01*
X79100000Y-104825000D02*
X79100000Y-103500000D01*
G75*
G02*
X79175000Y-103425000I75000J0D01*
G01*
X79325000Y-103425000D01*
G75*
G02*
X79400000Y-103500000I0J-75000D01*
G01*
X79400000Y-104825000D01*
G75*
G02*
X79325000Y-104900000I-75000J0D01*
G01*
X79175000Y-104900000D01*
G75*
G02*
X79100000Y-104825000I0J75000D01*
G01*
G37*
G36*
G01*
X79600000Y-104825000D02*
X79600000Y-103500000D01*
G75*
G02*
X79675000Y-103425000I75000J0D01*
G01*
X79825000Y-103425000D01*
G75*
G02*
X79900000Y-103500000I0J-75000D01*
G01*
X79900000Y-104825000D01*
G75*
G02*
X79825000Y-104900000I-75000J0D01*
G01*
X79675000Y-104900000D01*
G75*
G02*
X79600000Y-104825000I0J75000D01*
G01*
G37*
G36*
G01*
X80100000Y-104825000D02*
X80100000Y-103500000D01*
G75*
G02*
X80175000Y-103425000I75000J0D01*
G01*
X80325000Y-103425000D01*
G75*
G02*
X80400000Y-103500000I0J-75000D01*
G01*
X80400000Y-104825000D01*
G75*
G02*
X80325000Y-104900000I-75000J0D01*
G01*
X80175000Y-104900000D01*
G75*
G02*
X80100000Y-104825000I0J75000D01*
G01*
G37*
G36*
G01*
X80600000Y-104825000D02*
X80600000Y-103500000D01*
G75*
G02*
X80675000Y-103425000I75000J0D01*
G01*
X80825000Y-103425000D01*
G75*
G02*
X80900000Y-103500000I0J-75000D01*
G01*
X80900000Y-104825000D01*
G75*
G02*
X80825000Y-104900000I-75000J0D01*
G01*
X80675000Y-104900000D01*
G75*
G02*
X80600000Y-104825000I0J75000D01*
G01*
G37*
G36*
G01*
X81100000Y-104825000D02*
X81100000Y-103500000D01*
G75*
G02*
X81175000Y-103425000I75000J0D01*
G01*
X81325000Y-103425000D01*
G75*
G02*
X81400000Y-103500000I0J-75000D01*
G01*
X81400000Y-104825000D01*
G75*
G02*
X81325000Y-104900000I-75000J0D01*
G01*
X81175000Y-104900000D01*
G75*
G02*
X81100000Y-104825000I0J75000D01*
G01*
G37*
G36*
G01*
X81600000Y-104825000D02*
X81600000Y-103500000D01*
G75*
G02*
X81675000Y-103425000I75000J0D01*
G01*
X81825000Y-103425000D01*
G75*
G02*
X81900000Y-103500000I0J-75000D01*
G01*
X81900000Y-104825000D01*
G75*
G02*
X81825000Y-104900000I-75000J0D01*
G01*
X81675000Y-104900000D01*
G75*
G02*
X81600000Y-104825000I0J75000D01*
G01*
G37*
G36*
G01*
X82100000Y-104825000D02*
X82100000Y-103500000D01*
G75*
G02*
X82175000Y-103425000I75000J0D01*
G01*
X82325000Y-103425000D01*
G75*
G02*
X82400000Y-103500000I0J-75000D01*
G01*
X82400000Y-104825000D01*
G75*
G02*
X82325000Y-104900000I-75000J0D01*
G01*
X82175000Y-104900000D01*
G75*
G02*
X82100000Y-104825000I0J75000D01*
G01*
G37*
G36*
G01*
X82600000Y-104825000D02*
X82600000Y-103500000D01*
G75*
G02*
X82675000Y-103425000I75000J0D01*
G01*
X82825000Y-103425000D01*
G75*
G02*
X82900000Y-103500000I0J-75000D01*
G01*
X82900000Y-104825000D01*
G75*
G02*
X82825000Y-104900000I-75000J0D01*
G01*
X82675000Y-104900000D01*
G75*
G02*
X82600000Y-104825000I0J75000D01*
G01*
G37*
G36*
G01*
X83425000Y-102825000D02*
X83425000Y-102675000D01*
G75*
G02*
X83500000Y-102600000I75000J0D01*
G01*
X84825000Y-102600000D01*
G75*
G02*
X84900000Y-102675000I0J-75000D01*
G01*
X84900000Y-102825000D01*
G75*
G02*
X84825000Y-102900000I-75000J0D01*
G01*
X83500000Y-102900000D01*
G75*
G02*
X83425000Y-102825000I0J75000D01*
G01*
G37*
G36*
G01*
X83425000Y-102325000D02*
X83425000Y-102175000D01*
G75*
G02*
X83500000Y-102100000I75000J0D01*
G01*
X84825000Y-102100000D01*
G75*
G02*
X84900000Y-102175000I0J-75000D01*
G01*
X84900000Y-102325000D01*
G75*
G02*
X84825000Y-102400000I-75000J0D01*
G01*
X83500000Y-102400000D01*
G75*
G02*
X83425000Y-102325000I0J75000D01*
G01*
G37*
G36*
G01*
X83425000Y-101825000D02*
X83425000Y-101675000D01*
G75*
G02*
X83500000Y-101600000I75000J0D01*
G01*
X84825000Y-101600000D01*
G75*
G02*
X84900000Y-101675000I0J-75000D01*
G01*
X84900000Y-101825000D01*
G75*
G02*
X84825000Y-101900000I-75000J0D01*
G01*
X83500000Y-101900000D01*
G75*
G02*
X83425000Y-101825000I0J75000D01*
G01*
G37*
G36*
G01*
X83425000Y-101325000D02*
X83425000Y-101175000D01*
G75*
G02*
X83500000Y-101100000I75000J0D01*
G01*
X84825000Y-101100000D01*
G75*
G02*
X84900000Y-101175000I0J-75000D01*
G01*
X84900000Y-101325000D01*
G75*
G02*
X84825000Y-101400000I-75000J0D01*
G01*
X83500000Y-101400000D01*
G75*
G02*
X83425000Y-101325000I0J75000D01*
G01*
G37*
G36*
G01*
X83425000Y-100825000D02*
X83425000Y-100675000D01*
G75*
G02*
X83500000Y-100600000I75000J0D01*
G01*
X84825000Y-100600000D01*
G75*
G02*
X84900000Y-100675000I0J-75000D01*
G01*
X84900000Y-100825000D01*
G75*
G02*
X84825000Y-100900000I-75000J0D01*
G01*
X83500000Y-100900000D01*
G75*
G02*
X83425000Y-100825000I0J75000D01*
G01*
G37*
G36*
G01*
X83425000Y-100325000D02*
X83425000Y-100175000D01*
G75*
G02*
X83500000Y-100100000I75000J0D01*
G01*
X84825000Y-100100000D01*
G75*
G02*
X84900000Y-100175000I0J-75000D01*
G01*
X84900000Y-100325000D01*
G75*
G02*
X84825000Y-100400000I-75000J0D01*
G01*
X83500000Y-100400000D01*
G75*
G02*
X83425000Y-100325000I0J75000D01*
G01*
G37*
G36*
G01*
X83425000Y-99825000D02*
X83425000Y-99675000D01*
G75*
G02*
X83500000Y-99600000I75000J0D01*
G01*
X84825000Y-99600000D01*
G75*
G02*
X84900000Y-99675000I0J-75000D01*
G01*
X84900000Y-99825000D01*
G75*
G02*
X84825000Y-99900000I-75000J0D01*
G01*
X83500000Y-99900000D01*
G75*
G02*
X83425000Y-99825000I0J75000D01*
G01*
G37*
G36*
G01*
X83425000Y-99325000D02*
X83425000Y-99175000D01*
G75*
G02*
X83500000Y-99100000I75000J0D01*
G01*
X84825000Y-99100000D01*
G75*
G02*
X84900000Y-99175000I0J-75000D01*
G01*
X84900000Y-99325000D01*
G75*
G02*
X84825000Y-99400000I-75000J0D01*
G01*
X83500000Y-99400000D01*
G75*
G02*
X83425000Y-99325000I0J75000D01*
G01*
G37*
G36*
G01*
X83425000Y-98825000D02*
X83425000Y-98675000D01*
G75*
G02*
X83500000Y-98600000I75000J0D01*
G01*
X84825000Y-98600000D01*
G75*
G02*
X84900000Y-98675000I0J-75000D01*
G01*
X84900000Y-98825000D01*
G75*
G02*
X84825000Y-98900000I-75000J0D01*
G01*
X83500000Y-98900000D01*
G75*
G02*
X83425000Y-98825000I0J75000D01*
G01*
G37*
G36*
G01*
X83425000Y-98325000D02*
X83425000Y-98175000D01*
G75*
G02*
X83500000Y-98100000I75000J0D01*
G01*
X84825000Y-98100000D01*
G75*
G02*
X84900000Y-98175000I0J-75000D01*
G01*
X84900000Y-98325000D01*
G75*
G02*
X84825000Y-98400000I-75000J0D01*
G01*
X83500000Y-98400000D01*
G75*
G02*
X83425000Y-98325000I0J75000D01*
G01*
G37*
G36*
G01*
X83425000Y-97825000D02*
X83425000Y-97675000D01*
G75*
G02*
X83500000Y-97600000I75000J0D01*
G01*
X84825000Y-97600000D01*
G75*
G02*
X84900000Y-97675000I0J-75000D01*
G01*
X84900000Y-97825000D01*
G75*
G02*
X84825000Y-97900000I-75000J0D01*
G01*
X83500000Y-97900000D01*
G75*
G02*
X83425000Y-97825000I0J75000D01*
G01*
G37*
G36*
G01*
X83425000Y-97325000D02*
X83425000Y-97175000D01*
G75*
G02*
X83500000Y-97100000I75000J0D01*
G01*
X84825000Y-97100000D01*
G75*
G02*
X84900000Y-97175000I0J-75000D01*
G01*
X84900000Y-97325000D01*
G75*
G02*
X84825000Y-97400000I-75000J0D01*
G01*
X83500000Y-97400000D01*
G75*
G02*
X83425000Y-97325000I0J75000D01*
G01*
G37*
G36*
G01*
X82600000Y-96500000D02*
X82600000Y-95175000D01*
G75*
G02*
X82675000Y-95100000I75000J0D01*
G01*
X82825000Y-95100000D01*
G75*
G02*
X82900000Y-95175000I0J-75000D01*
G01*
X82900000Y-96500000D01*
G75*
G02*
X82825000Y-96575000I-75000J0D01*
G01*
X82675000Y-96575000D01*
G75*
G02*
X82600000Y-96500000I0J75000D01*
G01*
G37*
G36*
G01*
X82100000Y-96500000D02*
X82100000Y-95175000D01*
G75*
G02*
X82175000Y-95100000I75000J0D01*
G01*
X82325000Y-95100000D01*
G75*
G02*
X82400000Y-95175000I0J-75000D01*
G01*
X82400000Y-96500000D01*
G75*
G02*
X82325000Y-96575000I-75000J0D01*
G01*
X82175000Y-96575000D01*
G75*
G02*
X82100000Y-96500000I0J75000D01*
G01*
G37*
G36*
G01*
X81600000Y-96500000D02*
X81600000Y-95175000D01*
G75*
G02*
X81675000Y-95100000I75000J0D01*
G01*
X81825000Y-95100000D01*
G75*
G02*
X81900000Y-95175000I0J-75000D01*
G01*
X81900000Y-96500000D01*
G75*
G02*
X81825000Y-96575000I-75000J0D01*
G01*
X81675000Y-96575000D01*
G75*
G02*
X81600000Y-96500000I0J75000D01*
G01*
G37*
G36*
G01*
X81100000Y-96500000D02*
X81100000Y-95175000D01*
G75*
G02*
X81175000Y-95100000I75000J0D01*
G01*
X81325000Y-95100000D01*
G75*
G02*
X81400000Y-95175000I0J-75000D01*
G01*
X81400000Y-96500000D01*
G75*
G02*
X81325000Y-96575000I-75000J0D01*
G01*
X81175000Y-96575000D01*
G75*
G02*
X81100000Y-96500000I0J75000D01*
G01*
G37*
G36*
G01*
X80600000Y-96500000D02*
X80600000Y-95175000D01*
G75*
G02*
X80675000Y-95100000I75000J0D01*
G01*
X80825000Y-95100000D01*
G75*
G02*
X80900000Y-95175000I0J-75000D01*
G01*
X80900000Y-96500000D01*
G75*
G02*
X80825000Y-96575000I-75000J0D01*
G01*
X80675000Y-96575000D01*
G75*
G02*
X80600000Y-96500000I0J75000D01*
G01*
G37*
G36*
G01*
X80100000Y-96500000D02*
X80100000Y-95175000D01*
G75*
G02*
X80175000Y-95100000I75000J0D01*
G01*
X80325000Y-95100000D01*
G75*
G02*
X80400000Y-95175000I0J-75000D01*
G01*
X80400000Y-96500000D01*
G75*
G02*
X80325000Y-96575000I-75000J0D01*
G01*
X80175000Y-96575000D01*
G75*
G02*
X80100000Y-96500000I0J75000D01*
G01*
G37*
G36*
G01*
X79600000Y-96500000D02*
X79600000Y-95175000D01*
G75*
G02*
X79675000Y-95100000I75000J0D01*
G01*
X79825000Y-95100000D01*
G75*
G02*
X79900000Y-95175000I0J-75000D01*
G01*
X79900000Y-96500000D01*
G75*
G02*
X79825000Y-96575000I-75000J0D01*
G01*
X79675000Y-96575000D01*
G75*
G02*
X79600000Y-96500000I0J75000D01*
G01*
G37*
G36*
G01*
X79100000Y-96500000D02*
X79100000Y-95175000D01*
G75*
G02*
X79175000Y-95100000I75000J0D01*
G01*
X79325000Y-95100000D01*
G75*
G02*
X79400000Y-95175000I0J-75000D01*
G01*
X79400000Y-96500000D01*
G75*
G02*
X79325000Y-96575000I-75000J0D01*
G01*
X79175000Y-96575000D01*
G75*
G02*
X79100000Y-96500000I0J75000D01*
G01*
G37*
G36*
G01*
X78600000Y-96500000D02*
X78600000Y-95175000D01*
G75*
G02*
X78675000Y-95100000I75000J0D01*
G01*
X78825000Y-95100000D01*
G75*
G02*
X78900000Y-95175000I0J-75000D01*
G01*
X78900000Y-96500000D01*
G75*
G02*
X78825000Y-96575000I-75000J0D01*
G01*
X78675000Y-96575000D01*
G75*
G02*
X78600000Y-96500000I0J75000D01*
G01*
G37*
G36*
G01*
X78100000Y-96500000D02*
X78100000Y-95175000D01*
G75*
G02*
X78175000Y-95100000I75000J0D01*
G01*
X78325000Y-95100000D01*
G75*
G02*
X78400000Y-95175000I0J-75000D01*
G01*
X78400000Y-96500000D01*
G75*
G02*
X78325000Y-96575000I-75000J0D01*
G01*
X78175000Y-96575000D01*
G75*
G02*
X78100000Y-96500000I0J75000D01*
G01*
G37*
G36*
G01*
X77600000Y-96500000D02*
X77600000Y-95175000D01*
G75*
G02*
X77675000Y-95100000I75000J0D01*
G01*
X77825000Y-95100000D01*
G75*
G02*
X77900000Y-95175000I0J-75000D01*
G01*
X77900000Y-96500000D01*
G75*
G02*
X77825000Y-96575000I-75000J0D01*
G01*
X77675000Y-96575000D01*
G75*
G02*
X77600000Y-96500000I0J75000D01*
G01*
G37*
G36*
G01*
X77100000Y-96500000D02*
X77100000Y-95175000D01*
G75*
G02*
X77175000Y-95100000I75000J0D01*
G01*
X77325000Y-95100000D01*
G75*
G02*
X77400000Y-95175000I0J-75000D01*
G01*
X77400000Y-96500000D01*
G75*
G02*
X77325000Y-96575000I-75000J0D01*
G01*
X77175000Y-96575000D01*
G75*
G02*
X77100000Y-96500000I0J75000D01*
G01*
G37*
G36*
G01*
X75100000Y-97325000D02*
X75100000Y-97175000D01*
G75*
G02*
X75175000Y-97100000I75000J0D01*
G01*
X76500000Y-97100000D01*
G75*
G02*
X76575000Y-97175000I0J-75000D01*
G01*
X76575000Y-97325000D01*
G75*
G02*
X76500000Y-97400000I-75000J0D01*
G01*
X75175000Y-97400000D01*
G75*
G02*
X75100000Y-97325000I0J75000D01*
G01*
G37*
G36*
G01*
X75100000Y-97825000D02*
X75100000Y-97675000D01*
G75*
G02*
X75175000Y-97600000I75000J0D01*
G01*
X76500000Y-97600000D01*
G75*
G02*
X76575000Y-97675000I0J-75000D01*
G01*
X76575000Y-97825000D01*
G75*
G02*
X76500000Y-97900000I-75000J0D01*
G01*
X75175000Y-97900000D01*
G75*
G02*
X75100000Y-97825000I0J75000D01*
G01*
G37*
G36*
G01*
X75100000Y-98325000D02*
X75100000Y-98175000D01*
G75*
G02*
X75175000Y-98100000I75000J0D01*
G01*
X76500000Y-98100000D01*
G75*
G02*
X76575000Y-98175000I0J-75000D01*
G01*
X76575000Y-98325000D01*
G75*
G02*
X76500000Y-98400000I-75000J0D01*
G01*
X75175000Y-98400000D01*
G75*
G02*
X75100000Y-98325000I0J75000D01*
G01*
G37*
G36*
G01*
X75100000Y-98825000D02*
X75100000Y-98675000D01*
G75*
G02*
X75175000Y-98600000I75000J0D01*
G01*
X76500000Y-98600000D01*
G75*
G02*
X76575000Y-98675000I0J-75000D01*
G01*
X76575000Y-98825000D01*
G75*
G02*
X76500000Y-98900000I-75000J0D01*
G01*
X75175000Y-98900000D01*
G75*
G02*
X75100000Y-98825000I0J75000D01*
G01*
G37*
G36*
G01*
X75100000Y-99325000D02*
X75100000Y-99175000D01*
G75*
G02*
X75175000Y-99100000I75000J0D01*
G01*
X76500000Y-99100000D01*
G75*
G02*
X76575000Y-99175000I0J-75000D01*
G01*
X76575000Y-99325000D01*
G75*
G02*
X76500000Y-99400000I-75000J0D01*
G01*
X75175000Y-99400000D01*
G75*
G02*
X75100000Y-99325000I0J75000D01*
G01*
G37*
G36*
G01*
X75100000Y-99825000D02*
X75100000Y-99675000D01*
G75*
G02*
X75175000Y-99600000I75000J0D01*
G01*
X76500000Y-99600000D01*
G75*
G02*
X76575000Y-99675000I0J-75000D01*
G01*
X76575000Y-99825000D01*
G75*
G02*
X76500000Y-99900000I-75000J0D01*
G01*
X75175000Y-99900000D01*
G75*
G02*
X75100000Y-99825000I0J75000D01*
G01*
G37*
G36*
G01*
X75100000Y-100325000D02*
X75100000Y-100175000D01*
G75*
G02*
X75175000Y-100100000I75000J0D01*
G01*
X76500000Y-100100000D01*
G75*
G02*
X76575000Y-100175000I0J-75000D01*
G01*
X76575000Y-100325000D01*
G75*
G02*
X76500000Y-100400000I-75000J0D01*
G01*
X75175000Y-100400000D01*
G75*
G02*
X75100000Y-100325000I0J75000D01*
G01*
G37*
G36*
G01*
X75100000Y-100825000D02*
X75100000Y-100675000D01*
G75*
G02*
X75175000Y-100600000I75000J0D01*
G01*
X76500000Y-100600000D01*
G75*
G02*
X76575000Y-100675000I0J-75000D01*
G01*
X76575000Y-100825000D01*
G75*
G02*
X76500000Y-100900000I-75000J0D01*
G01*
X75175000Y-100900000D01*
G75*
G02*
X75100000Y-100825000I0J75000D01*
G01*
G37*
G36*
G01*
X75100000Y-101325000D02*
X75100000Y-101175000D01*
G75*
G02*
X75175000Y-101100000I75000J0D01*
G01*
X76500000Y-101100000D01*
G75*
G02*
X76575000Y-101175000I0J-75000D01*
G01*
X76575000Y-101325000D01*
G75*
G02*
X76500000Y-101400000I-75000J0D01*
G01*
X75175000Y-101400000D01*
G75*
G02*
X75100000Y-101325000I0J75000D01*
G01*
G37*
G36*
G01*
X75100000Y-101825000D02*
X75100000Y-101675000D01*
G75*
G02*
X75175000Y-101600000I75000J0D01*
G01*
X76500000Y-101600000D01*
G75*
G02*
X76575000Y-101675000I0J-75000D01*
G01*
X76575000Y-101825000D01*
G75*
G02*
X76500000Y-101900000I-75000J0D01*
G01*
X75175000Y-101900000D01*
G75*
G02*
X75100000Y-101825000I0J75000D01*
G01*
G37*
G36*
G01*
X75100000Y-102325000D02*
X75100000Y-102175000D01*
G75*
G02*
X75175000Y-102100000I75000J0D01*
G01*
X76500000Y-102100000D01*
G75*
G02*
X76575000Y-102175000I0J-75000D01*
G01*
X76575000Y-102325000D01*
G75*
G02*
X76500000Y-102400000I-75000J0D01*
G01*
X75175000Y-102400000D01*
G75*
G02*
X75100000Y-102325000I0J75000D01*
G01*
G37*
G36*
G01*
X75100000Y-102825000D02*
X75100000Y-102675000D01*
G75*
G02*
X75175000Y-102600000I75000J0D01*
G01*
X76500000Y-102600000D01*
G75*
G02*
X76575000Y-102675000I0J-75000D01*
G01*
X76575000Y-102825000D01*
G75*
G02*
X76500000Y-102900000I-75000J0D01*
G01*
X75175000Y-102900000D01*
G75*
G02*
X75100000Y-102825000I0J75000D01*
G01*
G37*
%TD*%
D23*
%TO.C,RN7*%
X71600000Y-82950000D03*
X71600000Y-82150000D03*
X71600000Y-81350000D03*
X71600000Y-80550000D03*
X69900000Y-82950000D03*
X69900000Y-82150000D03*
X69900000Y-81350000D03*
X69900000Y-80550000D03*
%TD*%
%TO.C,RN6*%
X69600000Y-121200000D03*
X69600000Y-120400000D03*
X69600000Y-119600000D03*
X69600000Y-118800000D03*
X67900000Y-121200000D03*
X67900000Y-120400000D03*
X67900000Y-119600000D03*
X67900000Y-118800000D03*
%TD*%
%TO.C,RN5*%
X111900000Y-78050000D03*
X111900000Y-78850000D03*
X111900000Y-79650000D03*
X111900000Y-80450000D03*
X113600000Y-78050000D03*
X113600000Y-78850000D03*
X113600000Y-79650000D03*
X113600000Y-80450000D03*
%TD*%
D24*
%TO.C,RN4*%
X92870000Y-115000000D03*
D25*
X94890000Y-115000000D03*
X94250000Y-115000000D03*
D24*
X95630000Y-115000000D03*
D25*
X93610000Y-115000000D03*
D24*
X95630000Y-117000000D03*
D25*
X94890000Y-117000000D03*
X94250000Y-117000000D03*
X93610000Y-117000000D03*
D24*
X92870000Y-117000000D03*
%TD*%
%TO.C,RN3*%
X78870000Y-89250000D03*
D25*
X80890000Y-89250000D03*
X80250000Y-89250000D03*
D24*
X81630000Y-89250000D03*
D25*
X79610000Y-89250000D03*
D24*
X81630000Y-91250000D03*
D25*
X80890000Y-91250000D03*
X80250000Y-91250000D03*
X79610000Y-91250000D03*
D24*
X78870000Y-91250000D03*
%TD*%
D26*
%TO.C,RN2*%
X100950000Y-130150000D03*
X100150000Y-130150000D03*
X99350000Y-130150000D03*
X98550000Y-130150000D03*
X100950000Y-131850000D03*
X100150000Y-131850000D03*
X99350000Y-131850000D03*
X98550000Y-131850000D03*
%TD*%
%TO.C,RN1*%
X86950000Y-130150000D03*
X86150000Y-130150000D03*
X85350000Y-130150000D03*
X84550000Y-130150000D03*
X86950000Y-131850000D03*
X86150000Y-131850000D03*
X85350000Y-131850000D03*
X84550000Y-131850000D03*
%TD*%
D27*
%TO.C,R5*%
X63800000Y-107000000D03*
X70200000Y-107000000D03*
%TD*%
D17*
%TO.C,R4*%
X79100000Y-107200000D03*
X80900000Y-107200000D03*
%TD*%
%TO.C,R3*%
X71600000Y-101700000D03*
X73400000Y-101700000D03*
%TD*%
%TO.C,R2*%
X68100000Y-99500000D03*
X69900000Y-99500000D03*
%TD*%
%TO.C,R1*%
X68100000Y-101000000D03*
X69900000Y-101000000D03*
%TD*%
D28*
%TO.C,J1*%
X63750000Y-97340000D03*
D29*
X64260000Y-101300000D03*
X64260000Y-100650000D03*
X64260000Y-100000000D03*
X64260000Y-99350000D03*
D30*
X61450000Y-100840000D03*
D31*
X61450000Y-102910000D03*
D28*
X63750000Y-102660000D03*
D31*
X61450000Y-97090000D03*
D30*
X61450000Y-99160000D03*
D29*
X64260000Y-98700000D03*
%TD*%
D32*
%TO.C,D9*%
X107600000Y-71500000D03*
X115400000Y-71500000D03*
%TD*%
D17*
%TO.C,C19*%
X104600000Y-126000000D03*
X106400000Y-126000000D03*
%TD*%
%TO.C,C18*%
X94600000Y-76750000D03*
X96400000Y-76750000D03*
%TD*%
D11*
%TO.C,C17*%
X96250000Y-73150000D03*
X96250000Y-71350000D03*
%TD*%
D17*
%TO.C,C16*%
X96400000Y-74750000D03*
X94600000Y-74750000D03*
%TD*%
D11*
%TO.C,C15*%
X84000000Y-70850000D03*
X84000000Y-72650000D03*
%TD*%
%TO.C,C14*%
X94500000Y-73150000D03*
X94500000Y-71350000D03*
%TD*%
D17*
%TO.C,C13*%
X100400000Y-91750000D03*
X98600000Y-91750000D03*
%TD*%
D33*
%TO.C,C12*%
X128500000Y-115300000D03*
X128500000Y-118700000D03*
%TD*%
D11*
%TO.C,C11*%
X126000000Y-115850000D03*
X126000000Y-117650000D03*
%TD*%
D17*
%TO.C,C10*%
X110900000Y-101500000D03*
X109100000Y-101500000D03*
%TD*%
%TO.C,C9*%
X110900000Y-103250000D03*
X109100000Y-103250000D03*
%TD*%
D33*
%TO.C,C8*%
X117500000Y-130050000D03*
X117500000Y-133450000D03*
%TD*%
D17*
%TO.C,C7*%
X132100000Y-132250000D03*
X133900000Y-132250000D03*
%TD*%
%TO.C,C6*%
X75600000Y-93750000D03*
X77400000Y-93750000D03*
%TD*%
%TO.C,C5*%
X79100000Y-108750000D03*
X80900000Y-108750000D03*
%TD*%
D11*
%TO.C,C4*%
X77500000Y-107900000D03*
X77500000Y-106100000D03*
%TD*%
D17*
%TO.C,C3*%
X71600000Y-100250000D03*
X73400000Y-100250000D03*
%TD*%
%TO.C,C2*%
X77400000Y-110250000D03*
X75600000Y-110250000D03*
%TD*%
%TO.C,C1*%
X79100000Y-110250000D03*
X80900000Y-110250000D03*
%TD*%
M02*
