%TF.GenerationSoftware,KiCad,Pcbnew,5.1.8-4.fc33*%
%TF.CreationDate,2020-12-20T16:44:50+03:00*%
%TF.ProjectId,2232,32323332-2e6b-4696-9361-645f70636258,rev?*%
%TF.SameCoordinates,Original*%
%TF.FileFunction,Legend,Top*%
%TF.FilePolarity,Positive*%
%FSLAX46Y46*%
G04 Gerber Fmt 4.6, Leading zero omitted, Abs format (unit mm)*
G04 Created by KiCad (PCBNEW 5.1.8-4.fc33) date 2020-12-20 16:44:50*
%MOMM*%
%LPD*%
G01*
G04 APERTURE LIST*
%ADD10C,0.200000*%
%ADD11C,0.300000*%
%ADD12C,0.150000*%
%ADD13C,0.120000*%
%ADD14C,0.100000*%
%ADD15R,1.727200X1.727200*%
%ADD16O,1.727200X1.727200*%
%ADD17C,1.600000*%
%ADD18R,1.300000X5.100000*%
%ADD19R,5.100000X1.300000*%
%ADD20C,2.200000*%
%ADD21C,2.500000*%
%ADD22C,1.500000*%
%ADD23R,1.500000X1.500000*%
%ADD24O,3.000000X2.000000*%
G04 APERTURE END LIST*
D10*
X81500000Y-117404761D02*
X81500000Y-119023809D01*
X81595238Y-119214285D01*
X81690476Y-119309523D01*
X81880952Y-119404761D01*
X82261904Y-119404761D01*
X82452380Y-119309523D01*
X82547619Y-119214285D01*
X82642857Y-119023809D01*
X82642857Y-117404761D01*
X83500000Y-118833333D02*
X84452380Y-118833333D01*
X83309523Y-119404761D02*
X83976190Y-117404761D01*
X84642857Y-119404761D01*
X86452380Y-119404761D02*
X85785714Y-118452380D01*
X85309523Y-119404761D02*
X85309523Y-117404761D01*
X86071428Y-117404761D01*
X86261904Y-117500000D01*
X86357142Y-117595238D01*
X86452380Y-117785714D01*
X86452380Y-118071428D01*
X86357142Y-118261904D01*
X86261904Y-118357142D01*
X86071428Y-118452380D01*
X85309523Y-118452380D01*
X87023809Y-117404761D02*
X88166666Y-117404761D01*
X87595238Y-119404761D02*
X87595238Y-117404761D01*
X88738095Y-119309523D02*
X88928571Y-119404761D01*
X89309523Y-119404761D01*
X89500000Y-119309523D01*
X89595238Y-119119047D01*
X89595238Y-119023809D01*
X89500000Y-118833333D01*
X89309523Y-118738095D01*
X89023809Y-118738095D01*
X88833333Y-118642857D01*
X88738095Y-118452380D01*
X88738095Y-118357142D01*
X88833333Y-118166666D01*
X89023809Y-118071428D01*
X89309523Y-118071428D01*
X89500000Y-118166666D01*
D11*
X92500000Y-120500000D02*
X92500000Y-122000000D01*
X79000000Y-120500000D02*
X92500000Y-120500000D01*
X79000000Y-122000000D02*
X79000000Y-120500000D01*
D12*
X67928571Y-66452380D02*
X68166666Y-67452380D01*
X68357142Y-66738095D01*
X68547619Y-67452380D01*
X68785714Y-66452380D01*
X69166666Y-67452380D02*
X69166666Y-66452380D01*
X69547619Y-66452380D01*
X69642857Y-66500000D01*
X69690476Y-66547619D01*
X69738095Y-66642857D01*
X69738095Y-66785714D01*
X69690476Y-66880952D01*
X69642857Y-66928571D01*
X69547619Y-66976190D01*
X69166666Y-66976190D01*
X70738095Y-67452380D02*
X70404761Y-66976190D01*
X70166666Y-67452380D02*
X70166666Y-66452380D01*
X70547619Y-66452380D01*
X70642857Y-66500000D01*
X70690476Y-66547619D01*
X70738095Y-66642857D01*
X70738095Y-66785714D01*
X70690476Y-66880952D01*
X70642857Y-66928571D01*
X70547619Y-66976190D01*
X70166666Y-66976190D01*
X71357142Y-66452380D02*
X71547619Y-66452380D01*
X71642857Y-66500000D01*
X71738095Y-66595238D01*
X71785714Y-66785714D01*
X71785714Y-67119047D01*
X71738095Y-67309523D01*
X71642857Y-67404761D01*
X71547619Y-67452380D01*
X71357142Y-67452380D01*
X71261904Y-67404761D01*
X71166666Y-67309523D01*
X71119047Y-67119047D01*
X71119047Y-66785714D01*
X71166666Y-66595238D01*
X71261904Y-66500000D01*
X71357142Y-66452380D01*
X72738095Y-66500000D02*
X72642857Y-66452380D01*
X72500000Y-66452380D01*
X72357142Y-66500000D01*
X72261904Y-66595238D01*
X72214285Y-66690476D01*
X72166666Y-66880952D01*
X72166666Y-67023809D01*
X72214285Y-67214285D01*
X72261904Y-67309523D01*
X72357142Y-67404761D01*
X72500000Y-67452380D01*
X72595238Y-67452380D01*
X72738095Y-67404761D01*
X72785714Y-67357142D01*
X72785714Y-67023809D01*
X72595238Y-67023809D01*
X73880952Y-66785714D02*
X74119047Y-67452380D01*
X74357142Y-66785714D01*
X75119047Y-67404761D02*
X75023809Y-67452380D01*
X74833333Y-67452380D01*
X74738095Y-67404761D01*
X74690476Y-67309523D01*
X74690476Y-66928571D01*
X74738095Y-66833333D01*
X74833333Y-66785714D01*
X75023809Y-66785714D01*
X75119047Y-66833333D01*
X75166666Y-66928571D01*
X75166666Y-67023809D01*
X74690476Y-67119047D01*
X75595238Y-67452380D02*
X75595238Y-66785714D01*
X75595238Y-66976190D02*
X75642857Y-66880952D01*
X75690476Y-66833333D01*
X75785714Y-66785714D01*
X75880952Y-66785714D01*
X76166666Y-67404761D02*
X76261904Y-67452380D01*
X76452380Y-67452380D01*
X76547619Y-67404761D01*
X76595238Y-67309523D01*
X76595238Y-67261904D01*
X76547619Y-67166666D01*
X76452380Y-67119047D01*
X76309523Y-67119047D01*
X76214285Y-67071428D01*
X76166666Y-66976190D01*
X76166666Y-66928571D01*
X76214285Y-66833333D01*
X76309523Y-66785714D01*
X76452380Y-66785714D01*
X76547619Y-66833333D01*
X77023809Y-67452380D02*
X77023809Y-66785714D01*
X77023809Y-66452380D02*
X76976190Y-66500000D01*
X77023809Y-66547619D01*
X77071428Y-66500000D01*
X77023809Y-66452380D01*
X77023809Y-66547619D01*
X77642857Y-67452380D02*
X77547619Y-67404761D01*
X77500000Y-67357142D01*
X77452380Y-67261904D01*
X77452380Y-66976190D01*
X77500000Y-66880952D01*
X77547619Y-66833333D01*
X77642857Y-66785714D01*
X77785714Y-66785714D01*
X77880952Y-66833333D01*
X77928571Y-66880952D01*
X77976190Y-66976190D01*
X77976190Y-67261904D01*
X77928571Y-67357142D01*
X77880952Y-67404761D01*
X77785714Y-67452380D01*
X77642857Y-67452380D01*
X78404761Y-66785714D02*
X78404761Y-67452380D01*
X78404761Y-66880952D02*
X78452380Y-66833333D01*
X78547619Y-66785714D01*
X78690476Y-66785714D01*
X78785714Y-66833333D01*
X78833333Y-66928571D01*
X78833333Y-67452380D01*
X80595238Y-67452380D02*
X80023809Y-67452380D01*
X80309523Y-67452380D02*
X80309523Y-66452380D01*
X80214285Y-66595238D01*
X80119047Y-66690476D01*
X80023809Y-66738095D01*
X81023809Y-67357142D02*
X81071428Y-67404761D01*
X81023809Y-67452380D01*
X80976190Y-67404761D01*
X81023809Y-67357142D01*
X81023809Y-67452380D01*
X81690476Y-66452380D02*
X81785714Y-66452380D01*
X81880952Y-66500000D01*
X81928571Y-66547619D01*
X81976190Y-66642857D01*
X82023809Y-66833333D01*
X82023809Y-67071428D01*
X81976190Y-67261904D01*
X81928571Y-67357142D01*
X81880952Y-67404761D01*
X81785714Y-67452380D01*
X81690476Y-67452380D01*
X81595238Y-67404761D01*
X81547619Y-67357142D01*
X81500000Y-67261904D01*
X81452380Y-67071428D01*
X81452380Y-66833333D01*
X81500000Y-66642857D01*
X81547619Y-66547619D01*
X81595238Y-66500000D01*
X81690476Y-66452380D01*
D10*
X101607142Y-90321428D02*
X101678571Y-90107142D01*
X101678571Y-89750000D01*
X101607142Y-89607142D01*
X101535714Y-89535714D01*
X101392857Y-89464285D01*
X101250000Y-89464285D01*
X101107142Y-89535714D01*
X101035714Y-89607142D01*
X100964285Y-89750000D01*
X100892857Y-90035714D01*
X100821428Y-90178571D01*
X100750000Y-90250000D01*
X100607142Y-90321428D01*
X100464285Y-90321428D01*
X100321428Y-90250000D01*
X100250000Y-90178571D01*
X100178571Y-90035714D01*
X100178571Y-89678571D01*
X100250000Y-89464285D01*
X101607142Y-88250000D02*
X101678571Y-88392857D01*
X101678571Y-88678571D01*
X101607142Y-88821428D01*
X101464285Y-88892857D01*
X100892857Y-88892857D01*
X100750000Y-88821428D01*
X100678571Y-88678571D01*
X100678571Y-88392857D01*
X100750000Y-88250000D01*
X100892857Y-88178571D01*
X101035714Y-88178571D01*
X101178571Y-88892857D01*
X101678571Y-87321428D02*
X101607142Y-87464285D01*
X101464285Y-87535714D01*
X100178571Y-87535714D01*
X100678571Y-86964285D02*
X100678571Y-86392857D01*
X101678571Y-86750000D02*
X100392857Y-86750000D01*
X100250000Y-86678571D01*
X100178571Y-86535714D01*
X100178571Y-86392857D01*
X101107142Y-85892857D02*
X101107142Y-84750000D01*
X100678571Y-84035714D02*
X102178571Y-84035714D01*
X100750000Y-84035714D02*
X100678571Y-83892857D01*
X100678571Y-83607142D01*
X100750000Y-83464285D01*
X100821428Y-83392857D01*
X100964285Y-83321428D01*
X101392857Y-83321428D01*
X101535714Y-83392857D01*
X101607142Y-83464285D01*
X101678571Y-83607142D01*
X101678571Y-83892857D01*
X101607142Y-84035714D01*
X101678571Y-82678571D02*
X100678571Y-82678571D01*
X100964285Y-82678571D02*
X100821428Y-82607142D01*
X100750000Y-82535714D01*
X100678571Y-82392857D01*
X100678571Y-82250000D01*
X101678571Y-81535714D02*
X101607142Y-81678571D01*
X101535714Y-81750000D01*
X101392857Y-81821428D01*
X100964285Y-81821428D01*
X100821428Y-81750000D01*
X100750000Y-81678571D01*
X100678571Y-81535714D01*
X100678571Y-81321428D01*
X100750000Y-81178571D01*
X100821428Y-81107142D01*
X100964285Y-81035714D01*
X101392857Y-81035714D01*
X101535714Y-81107142D01*
X101607142Y-81178571D01*
X101678571Y-81321428D01*
X101678571Y-81535714D01*
X100678571Y-79750000D02*
X101892857Y-79750000D01*
X102035714Y-79821428D01*
X102107142Y-79892857D01*
X102178571Y-80035714D01*
X102178571Y-80250000D01*
X102107142Y-80392857D01*
X101607142Y-79750000D02*
X101678571Y-79892857D01*
X101678571Y-80178571D01*
X101607142Y-80321428D01*
X101535714Y-80392857D01*
X101392857Y-80464285D01*
X100964285Y-80464285D01*
X100821428Y-80392857D01*
X100750000Y-80321428D01*
X100678571Y-80178571D01*
X100678571Y-79892857D01*
X100750000Y-79750000D01*
D11*
X105728571Y-126519285D02*
X105814285Y-126305000D01*
X105814285Y-125947857D01*
X105728571Y-125805000D01*
X105642857Y-125733571D01*
X105471428Y-125662142D01*
X105300000Y-125662142D01*
X105128571Y-125733571D01*
X105042857Y-125805000D01*
X104957142Y-125947857D01*
X104871428Y-126233571D01*
X104785714Y-126376428D01*
X104700000Y-126447857D01*
X104528571Y-126519285D01*
X104357142Y-126519285D01*
X104185714Y-126447857D01*
X104100000Y-126376428D01*
X104014285Y-126233571D01*
X104014285Y-125876428D01*
X104100000Y-125662142D01*
X104014285Y-125233571D02*
X104014285Y-124376428D01*
X105814285Y-124805000D02*
X104014285Y-124805000D01*
X105300000Y-123947857D02*
X105300000Y-123233571D01*
X105814285Y-124090714D02*
X104014285Y-123590714D01*
X105814285Y-123090714D01*
X104014285Y-122805000D02*
X104014285Y-121947857D01*
X105814285Y-122376428D02*
X104014285Y-122376428D01*
X104014285Y-121447857D02*
X105471428Y-121447857D01*
X105642857Y-121376428D01*
X105728571Y-121305000D01*
X105814285Y-121162142D01*
X105814285Y-120876428D01*
X105728571Y-120733571D01*
X105642857Y-120662142D01*
X105471428Y-120590714D01*
X104014285Y-120590714D01*
X105728571Y-119947857D02*
X105814285Y-119733571D01*
X105814285Y-119376428D01*
X105728571Y-119233571D01*
X105642857Y-119162142D01*
X105471428Y-119090714D01*
X105300000Y-119090714D01*
X105128571Y-119162142D01*
X105042857Y-119233571D01*
X104957142Y-119376428D01*
X104871428Y-119662142D01*
X104785714Y-119805000D01*
X104700000Y-119876428D01*
X104528571Y-119947857D01*
X104357142Y-119947857D01*
X104185714Y-119876428D01*
X104100000Y-119805000D01*
X104014285Y-119662142D01*
X104014285Y-119305000D01*
X104100000Y-119090714D01*
X102314285Y-126447857D02*
X100514285Y-126447857D01*
X101800000Y-125947857D01*
X100514285Y-125447857D01*
X102314285Y-125447857D01*
X102314285Y-124733571D02*
X100514285Y-124733571D01*
X100514285Y-124162142D01*
X100600000Y-124019285D01*
X100685714Y-123947857D01*
X100857142Y-123876428D01*
X101114285Y-123876428D01*
X101285714Y-123947857D01*
X101371428Y-124019285D01*
X101457142Y-124162142D01*
X101457142Y-124733571D01*
X102314285Y-122376428D02*
X101457142Y-122876428D01*
X102314285Y-123233571D02*
X100514285Y-123233571D01*
X100514285Y-122662142D01*
X100600000Y-122519285D01*
X100685714Y-122447857D01*
X100857142Y-122376428D01*
X101114285Y-122376428D01*
X101285714Y-122447857D01*
X101371428Y-122519285D01*
X101457142Y-122662142D01*
X101457142Y-123233571D01*
X100514285Y-121447857D02*
X100514285Y-121162142D01*
X100600000Y-121019285D01*
X100771428Y-120876428D01*
X101114285Y-120805000D01*
X101714285Y-120805000D01*
X102057142Y-120876428D01*
X102228571Y-121019285D01*
X102314285Y-121162142D01*
X102314285Y-121447857D01*
X102228571Y-121590714D01*
X102057142Y-121733571D01*
X101714285Y-121805000D01*
X101114285Y-121805000D01*
X100771428Y-121733571D01*
X100600000Y-121590714D01*
X100514285Y-121447857D01*
X100600000Y-119376428D02*
X100514285Y-119519285D01*
X100514285Y-119733571D01*
X100600000Y-119947857D01*
X100771428Y-120090714D01*
X100942857Y-120162142D01*
X101285714Y-120233571D01*
X101542857Y-120233571D01*
X101885714Y-120162142D01*
X102057142Y-120090714D01*
X102228571Y-119947857D01*
X102314285Y-119733571D01*
X102314285Y-119590714D01*
X102228571Y-119376428D01*
X102142857Y-119305000D01*
X101542857Y-119305000D01*
X101542857Y-119590714D01*
X97185714Y-126519285D02*
X97100000Y-126447857D01*
X97014285Y-126305000D01*
X97014285Y-125947857D01*
X97100000Y-125805000D01*
X97185714Y-125733571D01*
X97357142Y-125662142D01*
X97528571Y-125662142D01*
X97785714Y-125733571D01*
X98814285Y-126590714D01*
X98814285Y-125662142D01*
X97185714Y-125090714D02*
X97100000Y-125019285D01*
X97014285Y-124876428D01*
X97014285Y-124519285D01*
X97100000Y-124376428D01*
X97185714Y-124305000D01*
X97357142Y-124233571D01*
X97528571Y-124233571D01*
X97785714Y-124305000D01*
X98814285Y-125162142D01*
X98814285Y-124233571D01*
X97014285Y-123733571D02*
X97014285Y-122805000D01*
X97700000Y-123305000D01*
X97700000Y-123090714D01*
X97785714Y-122947857D01*
X97871428Y-122876428D01*
X98042857Y-122805000D01*
X98471428Y-122805000D01*
X98642857Y-122876428D01*
X98728571Y-122947857D01*
X98814285Y-123090714D01*
X98814285Y-123519285D01*
X98728571Y-123662142D01*
X98642857Y-123733571D01*
X97185714Y-122233571D02*
X97100000Y-122162142D01*
X97014285Y-122019285D01*
X97014285Y-121662142D01*
X97100000Y-121519285D01*
X97185714Y-121447857D01*
X97357142Y-121376428D01*
X97528571Y-121376428D01*
X97785714Y-121447857D01*
X98814285Y-122305000D01*
X98814285Y-121376428D01*
X98814285Y-120733571D02*
X97014285Y-120733571D01*
X97871428Y-120733571D02*
X97871428Y-119876428D01*
X98814285Y-119876428D02*
X97014285Y-119876428D01*
X98814285Y-119162142D02*
X97014285Y-119162142D01*
X97014285Y-118162142D02*
X97014285Y-117876428D01*
X97100000Y-117733571D01*
X97271428Y-117590714D01*
X97614285Y-117519285D01*
X98214285Y-117519285D01*
X98557142Y-117590714D01*
X98728571Y-117733571D01*
X98814285Y-117876428D01*
X98814285Y-118162142D01*
X98728571Y-118305000D01*
X98557142Y-118447857D01*
X98214285Y-118519285D01*
X97614285Y-118519285D01*
X97271428Y-118447857D01*
X97100000Y-118305000D01*
X97014285Y-118162142D01*
X93514285Y-126447857D02*
X94971428Y-126447857D01*
X95142857Y-126376428D01*
X95228571Y-126305000D01*
X95314285Y-126162142D01*
X95314285Y-125876428D01*
X95228571Y-125733571D01*
X95142857Y-125662142D01*
X94971428Y-125590714D01*
X93514285Y-125590714D01*
X94800000Y-124947857D02*
X94800000Y-124233571D01*
X95314285Y-125090714D02*
X93514285Y-124590714D01*
X95314285Y-124090714D01*
X95314285Y-122733571D02*
X94457142Y-123233571D01*
X95314285Y-123590714D02*
X93514285Y-123590714D01*
X93514285Y-123019285D01*
X93600000Y-122876428D01*
X93685714Y-122805000D01*
X93857142Y-122733571D01*
X94114285Y-122733571D01*
X94285714Y-122805000D01*
X94371428Y-122876428D01*
X94457142Y-123019285D01*
X94457142Y-123590714D01*
X93514285Y-122305000D02*
X93514285Y-121447857D01*
X95314285Y-121876428D02*
X93514285Y-121876428D01*
X90014285Y-126633571D02*
X90014285Y-125605000D01*
X91814285Y-126119285D02*
X90014285Y-126119285D01*
X91814285Y-125176428D02*
X90614285Y-124233571D01*
X90614285Y-125176428D02*
X91814285Y-124233571D01*
X90185714Y-123633571D02*
X90100000Y-123547857D01*
X90014285Y-123376428D01*
X90014285Y-122947857D01*
X90100000Y-122776428D01*
X90185714Y-122690714D01*
X90357142Y-122605000D01*
X90528571Y-122605000D01*
X90785714Y-122690714D01*
X91814285Y-123719285D01*
X91814285Y-122605000D01*
X88314285Y-125347857D02*
X87457142Y-125947857D01*
X88314285Y-126376428D02*
X86514285Y-126376428D01*
X86514285Y-125690714D01*
X86600000Y-125519285D01*
X86685714Y-125433571D01*
X86857142Y-125347857D01*
X87114285Y-125347857D01*
X87285714Y-125433571D01*
X87371428Y-125519285D01*
X87457142Y-125690714D01*
X87457142Y-126376428D01*
X88314285Y-124747857D02*
X87114285Y-123805000D01*
X87114285Y-124747857D02*
X88314285Y-123805000D01*
X86685714Y-123205000D02*
X86600000Y-123119285D01*
X86514285Y-122947857D01*
X86514285Y-122519285D01*
X86600000Y-122347857D01*
X86685714Y-122262142D01*
X86857142Y-122176428D01*
X87028571Y-122176428D01*
X87285714Y-122262142D01*
X88314285Y-123290714D01*
X88314285Y-122176428D01*
X83014285Y-126633571D02*
X83014285Y-125605000D01*
X84814285Y-126119285D02*
X83014285Y-126119285D01*
X84814285Y-125176428D02*
X83614285Y-124233571D01*
X83614285Y-125176428D02*
X84814285Y-124233571D01*
X84814285Y-122605000D02*
X84814285Y-123633571D01*
X84814285Y-123119285D02*
X83014285Y-123119285D01*
X83271428Y-123290714D01*
X83442857Y-123462142D01*
X83528571Y-123633571D01*
X81314285Y-125347857D02*
X80457142Y-125947857D01*
X81314285Y-126376428D02*
X79514285Y-126376428D01*
X79514285Y-125690714D01*
X79600000Y-125519285D01*
X79685714Y-125433571D01*
X79857142Y-125347857D01*
X80114285Y-125347857D01*
X80285714Y-125433571D01*
X80371428Y-125519285D01*
X80457142Y-125690714D01*
X80457142Y-126376428D01*
X81314285Y-124747857D02*
X80114285Y-123805000D01*
X80114285Y-124747857D02*
X81314285Y-123805000D01*
X81314285Y-122176428D02*
X81314285Y-123205000D01*
X81314285Y-122690714D02*
X79514285Y-122690714D01*
X79771428Y-122862142D01*
X79942857Y-123033571D01*
X80028571Y-123205000D01*
X117714285Y-124785714D02*
X118714285Y-124785714D01*
X119142857Y-126357142D02*
X117714285Y-126357142D01*
X117714285Y-123357142D01*
X119142857Y-123357142D01*
X120285714Y-126214285D02*
X120714285Y-126357142D01*
X121428571Y-126357142D01*
X121714285Y-126214285D01*
X121857142Y-126071428D01*
X122000000Y-125785714D01*
X122000000Y-125500000D01*
X121857142Y-125214285D01*
X121714285Y-125071428D01*
X121428571Y-124928571D01*
X120857142Y-124785714D01*
X120571428Y-124642857D01*
X120428571Y-124500000D01*
X120285714Y-124214285D01*
X120285714Y-123928571D01*
X120428571Y-123642857D01*
X120571428Y-123500000D01*
X120857142Y-123357142D01*
X121571428Y-123357142D01*
X122000000Y-123500000D01*
X123285714Y-126357142D02*
X123285714Y-123357142D01*
X124428571Y-123357142D01*
X124714285Y-123500000D01*
X124857142Y-123642857D01*
X125000000Y-123928571D01*
X125000000Y-124357142D01*
X124857142Y-124642857D01*
X124714285Y-124785714D01*
X124428571Y-124928571D01*
X123285714Y-124928571D01*
X126285714Y-125214285D02*
X128571428Y-125214285D01*
X130571428Y-123357142D02*
X130857142Y-123357142D01*
X131142857Y-123500000D01*
X131285714Y-123642857D01*
X131428571Y-123928571D01*
X131571428Y-124500000D01*
X131571428Y-125214285D01*
X131428571Y-125785714D01*
X131285714Y-126071428D01*
X131142857Y-126214285D01*
X130857142Y-126357142D01*
X130571428Y-126357142D01*
X130285714Y-126214285D01*
X130142857Y-126071428D01*
X130000000Y-125785714D01*
X129857142Y-125214285D01*
X129857142Y-124500000D01*
X130000000Y-123928571D01*
X130142857Y-123642857D01*
X130285714Y-123500000D01*
X130571428Y-123357142D01*
X134428571Y-126357142D02*
X132714285Y-126357142D01*
X133571428Y-126357142D02*
X133571428Y-123357142D01*
X133285714Y-123785714D01*
X133000000Y-124071428D01*
X132714285Y-124214285D01*
D13*
X112500000Y-117000000D02*
X113500000Y-117000000D01*
X111000000Y-117000000D02*
X112000000Y-117000000D01*
X109500000Y-117000000D02*
X110500000Y-117000000D01*
X108000000Y-117000000D02*
X109000000Y-117000000D01*
X108000000Y-118500000D02*
X108000000Y-117500000D01*
X108000000Y-120000000D02*
X108000000Y-119000000D01*
X108000000Y-121500000D02*
X108000000Y-120500000D01*
X108000000Y-123000000D02*
X108000000Y-122000000D01*
X108000000Y-124500000D02*
X108000000Y-123500000D01*
X108000000Y-126000000D02*
X108000000Y-125000000D01*
X108000000Y-127500000D02*
X108000000Y-126500000D01*
X108000000Y-131000000D02*
X108000000Y-130000000D01*
X108000000Y-132500000D02*
X108000000Y-131500000D01*
X112500000Y-133000000D02*
X113500000Y-133000000D01*
X111000000Y-133000000D02*
X112000000Y-133000000D01*
X109500000Y-133000000D02*
X110500000Y-133000000D01*
X108000000Y-133000000D02*
X109000000Y-133000000D01*
D11*
X132095238Y-76738095D02*
X132000000Y-76642857D01*
X131904761Y-76452380D01*
X131904761Y-75976190D01*
X132000000Y-75785714D01*
X132095238Y-75690476D01*
X132285714Y-75595238D01*
X132476190Y-75595238D01*
X132761904Y-75690476D01*
X133904761Y-76833333D01*
X133904761Y-75595238D01*
X133809523Y-73880952D02*
X133904761Y-74071428D01*
X133904761Y-74452380D01*
X133809523Y-74642857D01*
X133714285Y-74738095D01*
X133523809Y-74833333D01*
X132952380Y-74833333D01*
X132761904Y-74738095D01*
X132666666Y-74642857D01*
X132571428Y-74452380D01*
X132571428Y-74071428D01*
X132666666Y-73880952D01*
X133904761Y-72166666D02*
X132857142Y-72166666D01*
X132666666Y-72261904D01*
X132571428Y-72452380D01*
X132571428Y-72833333D01*
X132666666Y-73023809D01*
X133809523Y-72166666D02*
X133904761Y-72357142D01*
X133904761Y-72833333D01*
X133809523Y-73023809D01*
X133619047Y-73119047D01*
X133428571Y-73119047D01*
X133238095Y-73023809D01*
X133142857Y-72833333D01*
X133142857Y-72357142D01*
X133047619Y-72166666D01*
X132571428Y-71214285D02*
X133904761Y-71214285D01*
X132761904Y-71214285D02*
X132666666Y-71119047D01*
X132571428Y-70928571D01*
X132571428Y-70642857D01*
X132666666Y-70452380D01*
X132857142Y-70357142D01*
X133904761Y-70357142D01*
X117904761Y-75452380D02*
X115904761Y-75452380D01*
X117809523Y-74595238D02*
X117904761Y-74309523D01*
X117904761Y-73833333D01*
X117809523Y-73642857D01*
X117714285Y-73547619D01*
X117523809Y-73452380D01*
X117333333Y-73452380D01*
X117142857Y-73547619D01*
X117047619Y-73642857D01*
X116952380Y-73833333D01*
X116857142Y-74214285D01*
X116761904Y-74404761D01*
X116666666Y-74500000D01*
X116476190Y-74595238D01*
X116285714Y-74595238D01*
X116095238Y-74500000D01*
X116000000Y-74404761D01*
X115904761Y-74214285D01*
X115904761Y-73738095D01*
X116000000Y-73452380D01*
X117904761Y-72595238D02*
X115904761Y-72595238D01*
X115904761Y-71833333D01*
X116000000Y-71642857D01*
X116095238Y-71547619D01*
X116285714Y-71452380D01*
X116571428Y-71452380D01*
X116761904Y-71547619D01*
X116857142Y-71642857D01*
X116952380Y-71833333D01*
X116952380Y-72595238D01*
X125904761Y-115857142D02*
X123904761Y-115857142D01*
X125809523Y-115214285D02*
X125904761Y-115000000D01*
X125904761Y-114642857D01*
X125809523Y-114500000D01*
X125714285Y-114428571D01*
X125523809Y-114357142D01*
X125333333Y-114357142D01*
X125142857Y-114428571D01*
X125047619Y-114500000D01*
X124952380Y-114642857D01*
X124857142Y-114928571D01*
X124761904Y-115071428D01*
X124666666Y-115142857D01*
X124476190Y-115214285D01*
X124285714Y-115214285D01*
X124095238Y-115142857D01*
X124000000Y-115071428D01*
X123904761Y-114928571D01*
X123904761Y-114571428D01*
X124000000Y-114357142D01*
X125904761Y-113714285D02*
X123904761Y-113714285D01*
X123904761Y-113142857D01*
X124000000Y-113000000D01*
X124095238Y-112928571D01*
X124285714Y-112857142D01*
X124571428Y-112857142D01*
X124761904Y-112928571D01*
X124857142Y-113000000D01*
X124952380Y-113142857D01*
X124952380Y-113714285D01*
X126666666Y-110642857D02*
X126571428Y-110714285D01*
X126285714Y-110857142D01*
X126095238Y-110928571D01*
X125809523Y-111000000D01*
X125333333Y-111071428D01*
X124952380Y-111071428D01*
X124476190Y-111000000D01*
X124190476Y-110928571D01*
X124000000Y-110857142D01*
X123714285Y-110714285D01*
X123619047Y-110642857D01*
X125904761Y-110214285D02*
X124571428Y-109428571D01*
X124571428Y-110214285D02*
X125904761Y-109428571D01*
X124095238Y-108928571D02*
X124000000Y-108857142D01*
X123904761Y-108714285D01*
X123904761Y-108357142D01*
X124000000Y-108214285D01*
X124095238Y-108142857D01*
X124285714Y-108071428D01*
X124476190Y-108071428D01*
X124761904Y-108142857D01*
X125904761Y-109000000D01*
X125904761Y-108071428D01*
X125904761Y-106285714D02*
X124571428Y-106285714D01*
X123904761Y-106285714D02*
X124000000Y-106357142D01*
X124095238Y-106285714D01*
X124000000Y-106214285D01*
X123904761Y-106285714D01*
X124095238Y-106285714D01*
X124571428Y-105571428D02*
X125904761Y-105571428D01*
X124761904Y-105571428D02*
X124666666Y-105500000D01*
X124571428Y-105357142D01*
X124571428Y-105142857D01*
X124666666Y-105000000D01*
X124857142Y-104928571D01*
X125904761Y-104928571D01*
X124571428Y-103071428D02*
X126571428Y-103071428D01*
X124666666Y-103071428D02*
X124571428Y-102928571D01*
X124571428Y-102642857D01*
X124666666Y-102500000D01*
X124761904Y-102428571D01*
X124952380Y-102357142D01*
X125523809Y-102357142D01*
X125714285Y-102428571D01*
X125809523Y-102500000D01*
X125904761Y-102642857D01*
X125904761Y-102928571D01*
X125809523Y-103071428D01*
X125904761Y-101071428D02*
X124857142Y-101071428D01*
X124666666Y-101142857D01*
X124571428Y-101285714D01*
X124571428Y-101571428D01*
X124666666Y-101714285D01*
X125809523Y-101071428D02*
X125904761Y-101214285D01*
X125904761Y-101571428D01*
X125809523Y-101714285D01*
X125619047Y-101785714D01*
X125428571Y-101785714D01*
X125238095Y-101714285D01*
X125142857Y-101571428D01*
X125142857Y-101214285D01*
X125047619Y-101071428D01*
X125904761Y-100357142D02*
X124571428Y-100357142D01*
X124952380Y-100357142D02*
X124761904Y-100285714D01*
X124666666Y-100214285D01*
X124571428Y-100071428D01*
X124571428Y-99928571D01*
X125904761Y-98785714D02*
X124857142Y-98785714D01*
X124666666Y-98857142D01*
X124571428Y-99000000D01*
X124571428Y-99285714D01*
X124666666Y-99428571D01*
X125809523Y-98785714D02*
X125904761Y-98928571D01*
X125904761Y-99285714D01*
X125809523Y-99428571D01*
X125619047Y-99500000D01*
X125428571Y-99500000D01*
X125238095Y-99428571D01*
X125142857Y-99285714D01*
X125142857Y-98928571D01*
X125047619Y-98785714D01*
X125904761Y-97857142D02*
X125809523Y-98000000D01*
X125619047Y-98071428D01*
X123904761Y-98071428D01*
X125904761Y-97071428D02*
X125809523Y-97214285D01*
X125619047Y-97285714D01*
X123904761Y-97285714D01*
X125809523Y-95928571D02*
X125904761Y-96071428D01*
X125904761Y-96357142D01*
X125809523Y-96500000D01*
X125619047Y-96571428D01*
X124857142Y-96571428D01*
X124666666Y-96500000D01*
X124571428Y-96357142D01*
X124571428Y-96071428D01*
X124666666Y-95928571D01*
X124857142Y-95857142D01*
X125047619Y-95857142D01*
X125238095Y-96571428D01*
X125904761Y-95000000D02*
X125809523Y-95142857D01*
X125619047Y-95214285D01*
X123904761Y-95214285D01*
X126666666Y-94571428D02*
X126571428Y-94500000D01*
X126285714Y-94357142D01*
X126095238Y-94285714D01*
X125809523Y-94214285D01*
X125333333Y-94142857D01*
X124952380Y-94142857D01*
X124476190Y-94214285D01*
X124190476Y-94285714D01*
X124000000Y-94357142D01*
X123714285Y-94500000D01*
X123619047Y-94571428D01*
D13*
X75000000Y-113000000D02*
X73000000Y-113000000D01*
X75000000Y-127000000D02*
X75000000Y-113000000D01*
D11*
X77535714Y-124428571D02*
X77607142Y-124499999D01*
X77678571Y-124714285D01*
X77678571Y-124857142D01*
X77607142Y-125071428D01*
X77464285Y-125214285D01*
X77321428Y-125285714D01*
X77035714Y-125357142D01*
X76821428Y-125357142D01*
X76535714Y-125285714D01*
X76392857Y-125214285D01*
X76250000Y-125071428D01*
X76178571Y-124857142D01*
X76178571Y-124714285D01*
X76250000Y-124499999D01*
X76321428Y-124428571D01*
X77678571Y-123785714D02*
X76178571Y-123785714D01*
X77250000Y-123285714D01*
X76178571Y-122785714D01*
X77678571Y-122785714D01*
X76178571Y-121785714D02*
X76178571Y-121499999D01*
X76250000Y-121357142D01*
X76392857Y-121214285D01*
X76678571Y-121142857D01*
X77178571Y-121142857D01*
X77464285Y-121214285D01*
X77607142Y-121357142D01*
X77678571Y-121499999D01*
X77678571Y-121785714D01*
X77607142Y-121928571D01*
X77464285Y-122071428D01*
X77178571Y-122142857D01*
X76678571Y-122142857D01*
X76392857Y-122071428D01*
X76250000Y-121928571D01*
X76178571Y-121785714D01*
X77607142Y-120571428D02*
X77678571Y-120357142D01*
X77678571Y-119999999D01*
X77607142Y-119857142D01*
X77535714Y-119785714D01*
X77392857Y-119714285D01*
X77250000Y-119714285D01*
X77107142Y-119785714D01*
X77035714Y-119857142D01*
X76964285Y-119999999D01*
X76892857Y-120285714D01*
X76821428Y-120428571D01*
X76750000Y-120499999D01*
X76607142Y-120571428D01*
X76464285Y-120571428D01*
X76321428Y-120499999D01*
X76250000Y-120428571D01*
X76178571Y-120285714D01*
X76178571Y-119928571D01*
X76250000Y-119714285D01*
X76107142Y-118000000D02*
X78035714Y-119285714D01*
X76178571Y-117714285D02*
X76178571Y-116857142D01*
X77678571Y-117285714D02*
X76178571Y-117285714D01*
X76178571Y-116571428D02*
X76178571Y-115714285D01*
X77678571Y-116142857D02*
X76178571Y-116142857D01*
X77678571Y-114500000D02*
X77678571Y-115214285D01*
X76178571Y-115214285D01*
D13*
X73000000Y-127000000D02*
X75000000Y-127000000D01*
D11*
X77678571Y-83321428D02*
X76964285Y-83821428D01*
X77678571Y-84178571D02*
X76178571Y-84178571D01*
X76178571Y-83607142D01*
X76250000Y-83464285D01*
X76321428Y-83392857D01*
X76464285Y-83321428D01*
X76678571Y-83321428D01*
X76821428Y-83392857D01*
X76892857Y-83464285D01*
X76964285Y-83607142D01*
X76964285Y-84178571D01*
X77607142Y-82750000D02*
X77678571Y-82535714D01*
X77678571Y-82178571D01*
X77607142Y-82035714D01*
X77535714Y-81964285D01*
X77392857Y-81892857D01*
X77250000Y-81892857D01*
X77107142Y-81964285D01*
X77035714Y-82035714D01*
X76964285Y-82178571D01*
X76892857Y-82464285D01*
X76821428Y-82607142D01*
X76750000Y-82678571D01*
X76607142Y-82750000D01*
X76464285Y-82750000D01*
X76321428Y-82678571D01*
X76250000Y-82607142D01*
X76178571Y-82464285D01*
X76178571Y-82107142D01*
X76250000Y-81892857D01*
X77107142Y-81250000D02*
X77107142Y-80107142D01*
X76321428Y-79464285D02*
X76250000Y-79392857D01*
X76178571Y-79250000D01*
X76178571Y-78892857D01*
X76250000Y-78750000D01*
X76321428Y-78678571D01*
X76464285Y-78607142D01*
X76607142Y-78607142D01*
X76821428Y-78678571D01*
X77678571Y-79535714D01*
X77678571Y-78607142D01*
X76178571Y-78107142D02*
X76178571Y-77178571D01*
X76750000Y-77678571D01*
X76750000Y-77464285D01*
X76821428Y-77321428D01*
X76892857Y-77250000D01*
X77035714Y-77178571D01*
X77392857Y-77178571D01*
X77535714Y-77250000D01*
X77607142Y-77321428D01*
X77678571Y-77464285D01*
X77678571Y-77892857D01*
X77607142Y-78035714D01*
X77535714Y-78107142D01*
X76321428Y-76607142D02*
X76250000Y-76535714D01*
X76178571Y-76392857D01*
X76178571Y-76035714D01*
X76250000Y-75892857D01*
X76321428Y-75821428D01*
X76464285Y-75750000D01*
X76607142Y-75750000D01*
X76821428Y-75821428D01*
X77678571Y-76678571D01*
X77678571Y-75750000D01*
D13*
X75000000Y-73000000D02*
X73000000Y-73000000D01*
X75000000Y-87000000D02*
X75000000Y-73000000D01*
X73000000Y-87000000D02*
X75000000Y-87000000D01*
D11*
X65107142Y-96178571D02*
X65107142Y-97392857D01*
X65178571Y-97535714D01*
X65250000Y-97607142D01*
X65392857Y-97678571D01*
X65678571Y-97678571D01*
X65821428Y-97607142D01*
X65892857Y-97535714D01*
X65964285Y-97392857D01*
X65964285Y-96178571D01*
X66607142Y-97607142D02*
X66821428Y-97678571D01*
X67178571Y-97678571D01*
X67321428Y-97607142D01*
X67392857Y-97535714D01*
X67464285Y-97392857D01*
X67464285Y-97250000D01*
X67392857Y-97107142D01*
X67321428Y-97035714D01*
X67178571Y-96964285D01*
X66892857Y-96892857D01*
X66750000Y-96821428D01*
X66678571Y-96750000D01*
X66607142Y-96607142D01*
X66607142Y-96464285D01*
X66678571Y-96321428D01*
X66750000Y-96250000D01*
X66892857Y-96178571D01*
X67250000Y-96178571D01*
X67464285Y-96250000D01*
X68607142Y-96892857D02*
X68821428Y-96964285D01*
X68892857Y-97035714D01*
X68964285Y-97178571D01*
X68964285Y-97392857D01*
X68892857Y-97535714D01*
X68821428Y-97607142D01*
X68678571Y-97678571D01*
X68107142Y-97678571D01*
X68107142Y-96178571D01*
X68607142Y-96178571D01*
X68750000Y-96250000D01*
X68821428Y-96321428D01*
X68892857Y-96464285D01*
X68892857Y-96607142D01*
X68821428Y-96750000D01*
X68750000Y-96821428D01*
X68607142Y-96892857D01*
X68107142Y-96892857D01*
D14*
G36*
X64000000Y-99000000D02*
G01*
X69000000Y-99000000D01*
X69000000Y-101000000D01*
X64000000Y-101000000D01*
X64000000Y-103000000D01*
X61000000Y-100000000D01*
X64000000Y-97000000D01*
X64000000Y-99000000D01*
G37*
X64000000Y-99000000D02*
X69000000Y-99000000D01*
X69000000Y-101000000D01*
X64000000Y-101000000D01*
X64000000Y-103000000D01*
X61000000Y-100000000D01*
X64000000Y-97000000D01*
X64000000Y-99000000D01*
D11*
X70552142Y-128857142D02*
X71695000Y-128857142D01*
X71123571Y-129428571D02*
X71123571Y-128285714D01*
X72266428Y-127928571D02*
X73195000Y-127928571D01*
X72695000Y-128500000D01*
X72909285Y-128500000D01*
X73052142Y-128571428D01*
X73123571Y-128642857D01*
X73195000Y-128785714D01*
X73195000Y-129142857D01*
X73123571Y-129285714D01*
X73052142Y-129357142D01*
X72909285Y-129428571D01*
X72480714Y-129428571D01*
X72337857Y-129357142D01*
X72266428Y-129285714D01*
X73837857Y-129285714D02*
X73909285Y-129357142D01*
X73837857Y-129428571D01*
X73766428Y-129357142D01*
X73837857Y-129285714D01*
X73837857Y-129428571D01*
X74409285Y-127928571D02*
X75337857Y-127928571D01*
X74837857Y-128500000D01*
X75052142Y-128500000D01*
X75195000Y-128571428D01*
X75266428Y-128642857D01*
X75337857Y-128785714D01*
X75337857Y-129142857D01*
X75266428Y-129285714D01*
X75195000Y-129357142D01*
X75052142Y-129428571D01*
X74623571Y-129428571D01*
X74480714Y-129357142D01*
X74409285Y-129285714D01*
X75766428Y-127928571D02*
X76266428Y-129428571D01*
X76766428Y-127928571D01*
X70337857Y-124428571D02*
X71195000Y-124428571D01*
X70766428Y-125928571D02*
X70766428Y-124428571D01*
X71552142Y-125928571D02*
X72337857Y-124928571D01*
X71552142Y-124928571D02*
X72337857Y-125928571D01*
X73695000Y-125928571D02*
X72837857Y-125928571D01*
X73266428Y-125928571D02*
X73266428Y-124428571D01*
X73123571Y-124642857D01*
X72980714Y-124785714D01*
X72837857Y-124857142D01*
X71409285Y-122428571D02*
X70909285Y-121714285D01*
X70552142Y-122428571D02*
X70552142Y-120928571D01*
X71123571Y-120928571D01*
X71266428Y-121000000D01*
X71337857Y-121071428D01*
X71409285Y-121214285D01*
X71409285Y-121428571D01*
X71337857Y-121571428D01*
X71266428Y-121642857D01*
X71123571Y-121714285D01*
X70552142Y-121714285D01*
X71909285Y-122428571D02*
X72695000Y-121428571D01*
X71909285Y-121428571D02*
X72695000Y-122428571D01*
X74052142Y-122428571D02*
X73195000Y-122428571D01*
X73623571Y-122428571D02*
X73623571Y-120928571D01*
X73480714Y-121142857D01*
X73337857Y-121285714D01*
X73195000Y-121357142D01*
X70337857Y-117428571D02*
X71195000Y-117428571D01*
X70766428Y-118928571D02*
X70766428Y-117428571D01*
X71552142Y-118928571D02*
X72337857Y-117928571D01*
X71552142Y-117928571D02*
X72337857Y-118928571D01*
X72837857Y-117571428D02*
X72909285Y-117500000D01*
X73052142Y-117428571D01*
X73409285Y-117428571D01*
X73552142Y-117500000D01*
X73623571Y-117571428D01*
X73695000Y-117714285D01*
X73695000Y-117857142D01*
X73623571Y-118071428D01*
X72766428Y-118928571D01*
X73695000Y-118928571D01*
X71409285Y-115428571D02*
X70909285Y-114714285D01*
X70552142Y-115428571D02*
X70552142Y-113928571D01*
X71123571Y-113928571D01*
X71266428Y-114000000D01*
X71337857Y-114071428D01*
X71409285Y-114214285D01*
X71409285Y-114428571D01*
X71337857Y-114571428D01*
X71266428Y-114642857D01*
X71123571Y-114714285D01*
X70552142Y-114714285D01*
X71909285Y-115428571D02*
X72695000Y-114428571D01*
X71909285Y-114428571D02*
X72695000Y-115428571D01*
X73195000Y-114071428D02*
X73266428Y-114000000D01*
X73409285Y-113928571D01*
X73766428Y-113928571D01*
X73909285Y-114000000D01*
X73980714Y-114071428D01*
X74052142Y-114214285D01*
X74052142Y-114357142D01*
X73980714Y-114571428D01*
X73123571Y-115428571D01*
X74052142Y-115428571D01*
X71337857Y-110500000D02*
X71195000Y-110428571D01*
X70980714Y-110428571D01*
X70766428Y-110500000D01*
X70623571Y-110642857D01*
X70552142Y-110785714D01*
X70480714Y-111071428D01*
X70480714Y-111285714D01*
X70552142Y-111571428D01*
X70623571Y-111714285D01*
X70766428Y-111857142D01*
X70980714Y-111928571D01*
X71123571Y-111928571D01*
X71337857Y-111857142D01*
X71409285Y-111785714D01*
X71409285Y-111285714D01*
X71123571Y-111285714D01*
X72052142Y-111928571D02*
X72052142Y-110428571D01*
X72909285Y-111928571D01*
X72909285Y-110428571D01*
X73623571Y-111928571D02*
X73623571Y-110428571D01*
X73980714Y-110428571D01*
X74195000Y-110500000D01*
X74337857Y-110642857D01*
X74409285Y-110785714D01*
X74480714Y-111071428D01*
X74480714Y-111285714D01*
X74409285Y-111571428D01*
X74337857Y-111714285D01*
X74195000Y-111857142D01*
X73980714Y-111928571D01*
X73623571Y-111928571D01*
X70552142Y-88857142D02*
X71695000Y-88857142D01*
X71123571Y-89428571D02*
X71123571Y-88285714D01*
X73195000Y-89428571D02*
X72337857Y-89428571D01*
X72766428Y-89428571D02*
X72766428Y-87928571D01*
X72623571Y-88142857D01*
X72480714Y-88285714D01*
X72337857Y-88357142D01*
X73766428Y-88071428D02*
X73837857Y-88000000D01*
X73980714Y-87928571D01*
X74337857Y-87928571D01*
X74480714Y-88000000D01*
X74552142Y-88071428D01*
X74623571Y-88214285D01*
X74623571Y-88357142D01*
X74552142Y-88571428D01*
X73695000Y-89428571D01*
X74623571Y-89428571D01*
X75052142Y-87928571D02*
X75552142Y-89428571D01*
X76052142Y-87928571D01*
X70337857Y-84428571D02*
X71195000Y-84428571D01*
X70766428Y-85928571D02*
X70766428Y-84428571D01*
X71552142Y-85928571D02*
X72337857Y-84928571D01*
X71552142Y-84928571D02*
X72337857Y-85928571D01*
X73695000Y-85928571D02*
X72837857Y-85928571D01*
X73266428Y-85928571D02*
X73266428Y-84428571D01*
X73123571Y-84642857D01*
X72980714Y-84785714D01*
X72837857Y-84857142D01*
X71409285Y-82428571D02*
X70909285Y-81714285D01*
X70552142Y-82428571D02*
X70552142Y-80928571D01*
X71123571Y-80928571D01*
X71266428Y-81000000D01*
X71337857Y-81071428D01*
X71409285Y-81214285D01*
X71409285Y-81428571D01*
X71337857Y-81571428D01*
X71266428Y-81642857D01*
X71123571Y-81714285D01*
X70552142Y-81714285D01*
X71909285Y-82428571D02*
X72695000Y-81428571D01*
X71909285Y-81428571D02*
X72695000Y-82428571D01*
X74052142Y-82428571D02*
X73195000Y-82428571D01*
X73623571Y-82428571D02*
X73623571Y-80928571D01*
X73480714Y-81142857D01*
X73337857Y-81285714D01*
X73195000Y-81357142D01*
X70337857Y-77428571D02*
X71195000Y-77428571D01*
X70766428Y-78928571D02*
X70766428Y-77428571D01*
X71552142Y-78928571D02*
X72337857Y-77928571D01*
X71552142Y-77928571D02*
X72337857Y-78928571D01*
X72837857Y-77571428D02*
X72909285Y-77500000D01*
X73052142Y-77428571D01*
X73409285Y-77428571D01*
X73552142Y-77500000D01*
X73623571Y-77571428D01*
X73695000Y-77714285D01*
X73695000Y-77857142D01*
X73623571Y-78071428D01*
X72766428Y-78928571D01*
X73695000Y-78928571D01*
X71409285Y-75428571D02*
X70909285Y-74714285D01*
X70552142Y-75428571D02*
X70552142Y-73928571D01*
X71123571Y-73928571D01*
X71266428Y-74000000D01*
X71337857Y-74071428D01*
X71409285Y-74214285D01*
X71409285Y-74428571D01*
X71337857Y-74571428D01*
X71266428Y-74642857D01*
X71123571Y-74714285D01*
X70552142Y-74714285D01*
X71909285Y-75428571D02*
X72695000Y-74428571D01*
X71909285Y-74428571D02*
X72695000Y-75428571D01*
X73195000Y-74071428D02*
X73266428Y-74000000D01*
X73409285Y-73928571D01*
X73766428Y-73928571D01*
X73909285Y-74000000D01*
X73980714Y-74071428D01*
X74052142Y-74214285D01*
X74052142Y-74357142D01*
X73980714Y-74571428D01*
X73123571Y-75428571D01*
X74052142Y-75428571D01*
X71337857Y-70500000D02*
X71195000Y-70428571D01*
X70980714Y-70428571D01*
X70766428Y-70500000D01*
X70623571Y-70642857D01*
X70552142Y-70785714D01*
X70480714Y-71071428D01*
X70480714Y-71285714D01*
X70552142Y-71571428D01*
X70623571Y-71714285D01*
X70766428Y-71857142D01*
X70980714Y-71928571D01*
X71123571Y-71928571D01*
X71337857Y-71857142D01*
X71409285Y-71785714D01*
X71409285Y-71285714D01*
X71123571Y-71285714D01*
X72052142Y-71928571D02*
X72052142Y-70428571D01*
X72909285Y-71928571D01*
X72909285Y-70428571D01*
X73623571Y-71928571D02*
X73623571Y-70428571D01*
X73980714Y-70428571D01*
X74195000Y-70500000D01*
X74337857Y-70642857D01*
X74409285Y-70785714D01*
X74480714Y-71071428D01*
X74480714Y-71285714D01*
X74409285Y-71571428D01*
X74337857Y-71714285D01*
X74195000Y-71857142D01*
X73980714Y-71928571D01*
X73623571Y-71928571D01*
D13*
%TO.C,J5*%
X127700000Y-94590000D02*
X137300000Y-94590000D01*
X127700000Y-115410000D02*
X127700000Y-94590000D01*
X137300000Y-115410000D02*
X127700000Y-115410000D01*
X137300000Y-94590000D02*
X137300000Y-115410000D01*
D12*
%TO.C,J2*%
X109794000Y-80936000D02*
X104206000Y-80936000D01*
X109794000Y-89064000D02*
X109794000Y-80936000D01*
X104206000Y-89064000D02*
X109794000Y-89064000D01*
X104206000Y-80936000D02*
X104206000Y-89064000D01*
D11*
G36*
X105730000Y-80428000D02*
G01*
X104968000Y-79666000D01*
X106492000Y-79666000D01*
X105730000Y-80428000D01*
G37*
X105730000Y-80428000D02*
X104968000Y-79666000D01*
X106492000Y-79666000D01*
X105730000Y-80428000D01*
D12*
%TO.C,Y2*%
X111600000Y-95350000D02*
X111600000Y-107150000D01*
X111600000Y-107150000D02*
X110000000Y-107150000D01*
X110000000Y-95350000D02*
X111600000Y-95350000D01*
X106500000Y-95350000D02*
X108100000Y-95350000D01*
X106500000Y-107150000D02*
X106500000Y-95350000D01*
X108100000Y-107150000D02*
X106500000Y-107150000D01*
%TO.C,Y1*%
X73600000Y-104400000D02*
X85400000Y-104400000D01*
X85400000Y-104400000D02*
X85400000Y-106000000D01*
X73600000Y-106000000D02*
X73600000Y-104400000D01*
X73600000Y-109500000D02*
X73600000Y-107900000D01*
X85400000Y-109500000D02*
X73600000Y-109500000D01*
X85400000Y-107900000D02*
X85400000Y-109500000D01*
D10*
%TO.C,J8*%
X68550000Y-72500000D02*
X68200000Y-72500000D01*
X61450000Y-76500000D02*
X68550000Y-76500000D01*
X68550000Y-76000000D02*
X68200000Y-76000000D01*
D12*
X67500000Y-74750000D02*
X69000000Y-74750000D01*
D10*
X68550000Y-69500000D02*
X68550000Y-76500000D01*
X68200000Y-72500000D02*
X68200000Y-70000000D01*
X68200000Y-73500000D02*
X68550000Y-73500000D01*
X66900000Y-76150000D02*
X66900000Y-69850000D01*
X68200000Y-70000000D02*
X68550000Y-70000000D01*
D12*
X67500000Y-71250000D02*
X69000000Y-71250000D01*
D10*
X68200000Y-76000000D02*
X68200000Y-73500000D01*
X61450000Y-76500000D02*
X61450000Y-69500000D01*
X63100000Y-76150000D02*
X63100000Y-69850000D01*
X61450000Y-69500000D02*
X68550000Y-69500000D01*
D12*
X67500000Y-81750000D02*
X69000000Y-81750000D01*
D10*
X63100000Y-83150000D02*
X63100000Y-76850000D01*
X68200000Y-83000000D02*
X68200000Y-80500000D01*
X68200000Y-77000000D02*
X68550000Y-77000000D01*
X68200000Y-80500000D02*
X68550000Y-80500000D01*
X68550000Y-79500000D02*
X68200000Y-79500000D01*
X66900000Y-83150000D02*
X66900000Y-76850000D01*
X68550000Y-76500000D02*
X68550000Y-83500000D01*
D12*
X67500000Y-78250000D02*
X69000000Y-78250000D01*
D10*
X68550000Y-83000000D02*
X68200000Y-83000000D01*
X68200000Y-79500000D02*
X68200000Y-77000000D01*
X61450000Y-83500000D02*
X61450000Y-76500000D01*
D12*
X67500000Y-85250000D02*
X69000000Y-85250000D01*
X67500000Y-88750000D02*
X69000000Y-88750000D01*
D10*
X68200000Y-86500000D02*
X68200000Y-84000000D01*
X68200000Y-84000000D02*
X68550000Y-84000000D01*
X68550000Y-86500000D02*
X68200000Y-86500000D01*
X66900000Y-90150000D02*
X66900000Y-83850000D01*
X63100000Y-90150000D02*
X63100000Y-83850000D01*
X68200000Y-87500000D02*
X68550000Y-87500000D01*
X68200000Y-90000000D02*
X68200000Y-87500000D01*
X68550000Y-90000000D02*
X68200000Y-90000000D01*
X68550000Y-90500000D02*
X61450000Y-90500000D01*
X68550000Y-83500000D02*
X68550000Y-90500000D01*
X61450000Y-83500000D02*
X68550000Y-83500000D01*
X61450000Y-90500000D02*
X61450000Y-83500000D01*
%TO.C,J7*%
X68550000Y-112500000D02*
X68200000Y-112500000D01*
X61450000Y-116500000D02*
X68550000Y-116500000D01*
X68550000Y-116000000D02*
X68200000Y-116000000D01*
D12*
X67500000Y-114750000D02*
X69000000Y-114750000D01*
D10*
X68550000Y-109500000D02*
X68550000Y-116500000D01*
X68200000Y-112500000D02*
X68200000Y-110000000D01*
X68200000Y-113500000D02*
X68550000Y-113500000D01*
X66900000Y-116150000D02*
X66900000Y-109850000D01*
X68200000Y-110000000D02*
X68550000Y-110000000D01*
D12*
X67500000Y-111250000D02*
X69000000Y-111250000D01*
D10*
X68200000Y-116000000D02*
X68200000Y-113500000D01*
X61450000Y-116500000D02*
X61450000Y-109500000D01*
X63100000Y-116150000D02*
X63100000Y-109850000D01*
X61450000Y-109500000D02*
X68550000Y-109500000D01*
D12*
X67500000Y-121750000D02*
X69000000Y-121750000D01*
D10*
X63100000Y-123150000D02*
X63100000Y-116850000D01*
X68200000Y-123000000D02*
X68200000Y-120500000D01*
X68200000Y-117000000D02*
X68550000Y-117000000D01*
X68200000Y-120500000D02*
X68550000Y-120500000D01*
X68550000Y-119500000D02*
X68200000Y-119500000D01*
X66900000Y-123150000D02*
X66900000Y-116850000D01*
X68550000Y-116500000D02*
X68550000Y-123500000D01*
D12*
X67500000Y-118250000D02*
X69000000Y-118250000D01*
D10*
X68550000Y-123000000D02*
X68200000Y-123000000D01*
X68200000Y-119500000D02*
X68200000Y-117000000D01*
X61450000Y-123500000D02*
X61450000Y-116500000D01*
D12*
X67500000Y-125250000D02*
X69000000Y-125250000D01*
X67500000Y-128750000D02*
X69000000Y-128750000D01*
D10*
X68200000Y-126500000D02*
X68200000Y-124000000D01*
X68200000Y-124000000D02*
X68550000Y-124000000D01*
X68550000Y-126500000D02*
X68200000Y-126500000D01*
X66900000Y-130150000D02*
X66900000Y-123850000D01*
X63100000Y-130150000D02*
X63100000Y-123850000D01*
X68200000Y-127500000D02*
X68550000Y-127500000D01*
X68200000Y-130000000D02*
X68200000Y-127500000D01*
X68550000Y-130000000D02*
X68200000Y-130000000D01*
X68550000Y-130500000D02*
X61450000Y-130500000D01*
X68550000Y-123500000D02*
X68550000Y-130500000D01*
X61450000Y-123500000D02*
X68550000Y-123500000D01*
X61450000Y-130500000D02*
X61450000Y-123500000D01*
D13*
%TO.C,J6*%
X127535000Y-77900000D02*
X126005000Y-77900000D01*
X131700000Y-91100000D02*
X126000000Y-91100000D01*
X126000000Y-91100000D02*
X126000000Y-78900000D01*
X131700000Y-78900000D02*
X126000000Y-78900000D01*
X139000000Y-91100000D02*
X134300000Y-91100000D01*
X139000000Y-78900000D02*
X134300000Y-78900000D01*
%TO.C,J4*%
X122300000Y-115410000D02*
X112700000Y-115410000D01*
X122300000Y-94590000D02*
X122300000Y-115410000D01*
X112700000Y-94590000D02*
X122300000Y-94590000D01*
X112700000Y-115410000D02*
X112700000Y-94590000D01*
%TO.C,J3*%
X112700000Y-77130000D02*
X122300000Y-77130000D01*
X112700000Y-92870000D02*
X112700000Y-77130000D01*
X122300000Y-92870000D02*
X112700000Y-92870000D01*
X122300000Y-77130000D02*
X122300000Y-92870000D01*
D12*
%TO.C,E1*%
X116310000Y-119920000D02*
X116310000Y-130080000D01*
X116310000Y-119920000D02*
X108690000Y-119920000D01*
X108690000Y-119920000D02*
X108690000Y-130080000D01*
X108690000Y-130080000D02*
X116310000Y-130080000D01*
X108690000Y-128810000D02*
X107420000Y-128175000D01*
X107420000Y-128175000D02*
X107420000Y-129445000D01*
X107420000Y-129445000D02*
X108690000Y-128810000D01*
D10*
%TO.C,D8*%
X104200000Y-130400000D02*
X104200000Y-129600000D01*
X105800000Y-130400000D02*
X105800000Y-129600000D01*
D14*
G36*
X104500000Y-130300000D02*
G01*
X105500000Y-130300000D01*
X105000000Y-129700000D01*
X104500000Y-130300000D01*
G37*
X104500000Y-130300000D02*
X105500000Y-130300000D01*
X105000000Y-129700000D01*
X104500000Y-130300000D01*
D10*
X104000000Y-129250000D02*
X104000000Y-127750000D01*
X104000000Y-127750000D02*
X106000000Y-127750000D01*
X106000000Y-127750000D02*
X106000000Y-129250000D01*
%TO.C,D7*%
X100700000Y-130400000D02*
X100700000Y-129600000D01*
X102300000Y-130400000D02*
X102300000Y-129600000D01*
D14*
G36*
X101000000Y-130300000D02*
G01*
X102000000Y-130300000D01*
X101500000Y-129700000D01*
X101000000Y-130300000D01*
G37*
X101000000Y-130300000D02*
X102000000Y-130300000D01*
X101500000Y-129700000D01*
X101000000Y-130300000D01*
D10*
X100500000Y-129250000D02*
X100500000Y-127750000D01*
X100500000Y-127750000D02*
X102500000Y-127750000D01*
X102500000Y-127750000D02*
X102500000Y-129250000D01*
%TO.C,D6*%
X97200000Y-130400000D02*
X97200000Y-129600000D01*
X98800000Y-130400000D02*
X98800000Y-129600000D01*
D14*
G36*
X97500000Y-130300000D02*
G01*
X98500000Y-130300000D01*
X98000000Y-129700000D01*
X97500000Y-130300000D01*
G37*
X97500000Y-130300000D02*
X98500000Y-130300000D01*
X98000000Y-129700000D01*
X97500000Y-130300000D01*
D10*
X97000000Y-129250000D02*
X97000000Y-127750000D01*
X97000000Y-127750000D02*
X99000000Y-127750000D01*
X99000000Y-127750000D02*
X99000000Y-129250000D01*
%TO.C,D5*%
X93700000Y-130400000D02*
X93700000Y-129600000D01*
X95300000Y-130400000D02*
X95300000Y-129600000D01*
D14*
G36*
X94000000Y-130300000D02*
G01*
X95000000Y-130300000D01*
X94500000Y-129700000D01*
X94000000Y-130300000D01*
G37*
X94000000Y-130300000D02*
X95000000Y-130300000D01*
X94500000Y-129700000D01*
X94000000Y-130300000D01*
D10*
X93500000Y-129250000D02*
X93500000Y-127750000D01*
X93500000Y-127750000D02*
X95500000Y-127750000D01*
X95500000Y-127750000D02*
X95500000Y-129250000D01*
%TO.C,D4*%
X90200000Y-130400000D02*
X90200000Y-129600000D01*
X91800000Y-130400000D02*
X91800000Y-129600000D01*
D14*
G36*
X90500000Y-130300000D02*
G01*
X91500000Y-130300000D01*
X91000000Y-129700000D01*
X90500000Y-130300000D01*
G37*
X90500000Y-130300000D02*
X91500000Y-130300000D01*
X91000000Y-129700000D01*
X90500000Y-130300000D01*
D10*
X90000000Y-129250000D02*
X90000000Y-127750000D01*
X90000000Y-127750000D02*
X92000000Y-127750000D01*
X92000000Y-127750000D02*
X92000000Y-129250000D01*
%TO.C,D3*%
X86700000Y-130400000D02*
X86700000Y-129600000D01*
X88300000Y-130400000D02*
X88300000Y-129600000D01*
D14*
G36*
X87000000Y-130300000D02*
G01*
X88000000Y-130300000D01*
X87500000Y-129700000D01*
X87000000Y-130300000D01*
G37*
X87000000Y-130300000D02*
X88000000Y-130300000D01*
X87500000Y-129700000D01*
X87000000Y-130300000D01*
D10*
X86500000Y-129250000D02*
X86500000Y-127750000D01*
X86500000Y-127750000D02*
X88500000Y-127750000D01*
X88500000Y-127750000D02*
X88500000Y-129250000D01*
%TO.C,D2*%
X83200000Y-130400000D02*
X83200000Y-129600000D01*
X84800000Y-130400000D02*
X84800000Y-129600000D01*
D14*
G36*
X83500000Y-130300000D02*
G01*
X84500000Y-130300000D01*
X84000000Y-129700000D01*
X83500000Y-130300000D01*
G37*
X83500000Y-130300000D02*
X84500000Y-130300000D01*
X84000000Y-129700000D01*
X83500000Y-130300000D01*
D10*
X83000000Y-129250000D02*
X83000000Y-127750000D01*
X83000000Y-127750000D02*
X85000000Y-127750000D01*
X85000000Y-127750000D02*
X85000000Y-129250000D01*
%TO.C,D1*%
X79700000Y-130400000D02*
X79700000Y-129600000D01*
X81300000Y-130400000D02*
X81300000Y-129600000D01*
D14*
G36*
X80000000Y-130300000D02*
G01*
X81000000Y-130300000D01*
X80500000Y-129700000D01*
X80000000Y-130300000D01*
G37*
X80000000Y-130300000D02*
X81000000Y-130300000D01*
X80500000Y-129700000D01*
X80000000Y-130300000D01*
D10*
X79500000Y-129250000D02*
X79500000Y-127750000D01*
X79500000Y-127750000D02*
X81500000Y-127750000D01*
X81500000Y-127750000D02*
X81500000Y-129250000D01*
%TO.C,J5*%
D12*
X132166666Y-96452380D02*
X132166666Y-97166666D01*
X132119047Y-97309523D01*
X132023809Y-97404761D01*
X131880952Y-97452380D01*
X131785714Y-97452380D01*
X133119047Y-96452380D02*
X132642857Y-96452380D01*
X132595238Y-96928571D01*
X132642857Y-96880952D01*
X132738095Y-96833333D01*
X132976190Y-96833333D01*
X133071428Y-96880952D01*
X133119047Y-96928571D01*
X133166666Y-97023809D01*
X133166666Y-97261904D01*
X133119047Y-97357142D01*
X133071428Y-97404761D01*
X132976190Y-97452380D01*
X132738095Y-97452380D01*
X132642857Y-97404761D01*
X132595238Y-97357142D01*
D13*
X129285714Y-100452380D02*
X128714285Y-100452380D01*
X129000000Y-100452380D02*
X129000000Y-99452380D01*
X128904761Y-99595238D01*
X128809523Y-99690476D01*
X128714285Y-99738095D01*
%TO.C,J2*%
D12*
X106666666Y-89532380D02*
X106666666Y-90246666D01*
X106619047Y-90389523D01*
X106523809Y-90484761D01*
X106380952Y-90532380D01*
X106285714Y-90532380D01*
X107095238Y-89627619D02*
X107142857Y-89580000D01*
X107238095Y-89532380D01*
X107476190Y-89532380D01*
X107571428Y-89580000D01*
X107619047Y-89627619D01*
X107666666Y-89722857D01*
X107666666Y-89818095D01*
X107619047Y-89960952D01*
X107047619Y-90532380D01*
X107666666Y-90532380D01*
%TO.C,Y2*%
X105276190Y-101726190D02*
X105752380Y-101726190D01*
X104752380Y-102059523D02*
X105276190Y-101726190D01*
X104752380Y-101392857D01*
X104847619Y-101107142D02*
X104800000Y-101059523D01*
X104752380Y-100964285D01*
X104752380Y-100726190D01*
X104800000Y-100630952D01*
X104847619Y-100583333D01*
X104942857Y-100535714D01*
X105038095Y-100535714D01*
X105180952Y-100583333D01*
X105752380Y-101154761D01*
X105752380Y-100535714D01*
%TO.C,Y1*%
X84023809Y-102976190D02*
X84023809Y-103452380D01*
X83690476Y-102452380D02*
X84023809Y-102976190D01*
X84357142Y-102452380D01*
X85214285Y-103452380D02*
X84642857Y-103452380D01*
X84928571Y-103452380D02*
X84928571Y-102452380D01*
X84833333Y-102595238D01*
X84738095Y-102690476D01*
X84642857Y-102738095D01*
%TO.C,J8*%
X64666666Y-67452380D02*
X64666666Y-68166666D01*
X64619047Y-68309523D01*
X64523809Y-68404761D01*
X64380952Y-68452380D01*
X64285714Y-68452380D01*
X65285714Y-67880952D02*
X65190476Y-67833333D01*
X65142857Y-67785714D01*
X65095238Y-67690476D01*
X65095238Y-67642857D01*
X65142857Y-67547619D01*
X65190476Y-67500000D01*
X65285714Y-67452380D01*
X65476190Y-67452380D01*
X65571428Y-67500000D01*
X65619047Y-67547619D01*
X65666666Y-67642857D01*
X65666666Y-67690476D01*
X65619047Y-67785714D01*
X65571428Y-67833333D01*
X65476190Y-67880952D01*
X65285714Y-67880952D01*
X65190476Y-67928571D01*
X65142857Y-67976190D01*
X65095238Y-68071428D01*
X65095238Y-68261904D01*
X65142857Y-68357142D01*
X65190476Y-68404761D01*
X65285714Y-68452380D01*
X65476190Y-68452380D01*
X65571428Y-68404761D01*
X65619047Y-68357142D01*
X65666666Y-68261904D01*
X65666666Y-68071428D01*
X65619047Y-67976190D01*
X65571428Y-67928571D01*
X65476190Y-67880952D01*
%TO.C,J7*%
X64666666Y-131452380D02*
X64666666Y-132166666D01*
X64619047Y-132309523D01*
X64523809Y-132404761D01*
X64380952Y-132452380D01*
X64285714Y-132452380D01*
X65047619Y-131452380D02*
X65714285Y-131452380D01*
X65285714Y-132452380D01*
%TO.C,J6*%
X134166666Y-84452380D02*
X134166666Y-85166666D01*
X134119047Y-85309523D01*
X134023809Y-85404761D01*
X133880952Y-85452380D01*
X133785714Y-85452380D01*
X135071428Y-84452380D02*
X134880952Y-84452380D01*
X134785714Y-84500000D01*
X134738095Y-84547619D01*
X134642857Y-84690476D01*
X134595238Y-84880952D01*
X134595238Y-85261904D01*
X134642857Y-85357142D01*
X134690476Y-85404761D01*
X134785714Y-85452380D01*
X134976190Y-85452380D01*
X135071428Y-85404761D01*
X135119047Y-85357142D01*
X135166666Y-85261904D01*
X135166666Y-85023809D01*
X135119047Y-84928571D01*
X135071428Y-84880952D01*
X134976190Y-84833333D01*
X134785714Y-84833333D01*
X134690476Y-84880952D01*
X134642857Y-84928571D01*
X134595238Y-85023809D01*
%TO.C,J4*%
X117166666Y-112452380D02*
X117166666Y-113166666D01*
X117119047Y-113309523D01*
X117023809Y-113404761D01*
X116880952Y-113452380D01*
X116785714Y-113452380D01*
X118071428Y-112785714D02*
X118071428Y-113452380D01*
X117833333Y-112404761D02*
X117595238Y-113119047D01*
X118214285Y-113119047D01*
D13*
X121285714Y-110452380D02*
X120714285Y-110452380D01*
X121000000Y-110452380D02*
X121000000Y-109452380D01*
X120904761Y-109595238D01*
X120809523Y-109690476D01*
X120714285Y-109738095D01*
%TO.C,J3*%
D12*
X117166666Y-78452380D02*
X117166666Y-79166666D01*
X117119047Y-79309523D01*
X117023809Y-79404761D01*
X116880952Y-79452380D01*
X116785714Y-79452380D01*
X117547619Y-78452380D02*
X118166666Y-78452380D01*
X117833333Y-78833333D01*
X117976190Y-78833333D01*
X118071428Y-78880952D01*
X118119047Y-78928571D01*
X118166666Y-79023809D01*
X118166666Y-79261904D01*
X118119047Y-79357142D01*
X118071428Y-79404761D01*
X117976190Y-79452380D01*
X117690476Y-79452380D01*
X117595238Y-79404761D01*
X117547619Y-79357142D01*
D13*
X114285714Y-82952380D02*
X113714285Y-82952380D01*
X114000000Y-82952380D02*
X114000000Y-81952380D01*
X113904761Y-82095238D01*
X113809523Y-82190476D01*
X113714285Y-82238095D01*
%TO.C,E1*%
D12*
X110285523Y-118832571D02*
X110618857Y-118832571D01*
X110761714Y-119356380D02*
X110285523Y-119356380D01*
X110285523Y-118356380D01*
X110761714Y-118356380D01*
X111714095Y-119356380D02*
X111142666Y-119356380D01*
X111428380Y-119356380D02*
X111428380Y-118356380D01*
X111333142Y-118499238D01*
X111237904Y-118594476D01*
X111142666Y-118642095D01*
%TO.C,D8*%
X104261904Y-133702380D02*
X104261904Y-132702380D01*
X104500000Y-132702380D01*
X104642857Y-132750000D01*
X104738095Y-132845238D01*
X104785714Y-132940476D01*
X104833333Y-133130952D01*
X104833333Y-133273809D01*
X104785714Y-133464285D01*
X104738095Y-133559523D01*
X104642857Y-133654761D01*
X104500000Y-133702380D01*
X104261904Y-133702380D01*
X105404761Y-133130952D02*
X105309523Y-133083333D01*
X105261904Y-133035714D01*
X105214285Y-132940476D01*
X105214285Y-132892857D01*
X105261904Y-132797619D01*
X105309523Y-132750000D01*
X105404761Y-132702380D01*
X105595238Y-132702380D01*
X105690476Y-132750000D01*
X105738095Y-132797619D01*
X105785714Y-132892857D01*
X105785714Y-132940476D01*
X105738095Y-133035714D01*
X105690476Y-133083333D01*
X105595238Y-133130952D01*
X105404761Y-133130952D01*
X105309523Y-133178571D01*
X105261904Y-133226190D01*
X105214285Y-133321428D01*
X105214285Y-133511904D01*
X105261904Y-133607142D01*
X105309523Y-133654761D01*
X105404761Y-133702380D01*
X105595238Y-133702380D01*
X105690476Y-133654761D01*
X105738095Y-133607142D01*
X105785714Y-133511904D01*
X105785714Y-133321428D01*
X105738095Y-133226190D01*
X105690476Y-133178571D01*
X105595238Y-133130952D01*
%TO.C,D7*%
X100761904Y-133702380D02*
X100761904Y-132702380D01*
X101000000Y-132702380D01*
X101142857Y-132750000D01*
X101238095Y-132845238D01*
X101285714Y-132940476D01*
X101333333Y-133130952D01*
X101333333Y-133273809D01*
X101285714Y-133464285D01*
X101238095Y-133559523D01*
X101142857Y-133654761D01*
X101000000Y-133702380D01*
X100761904Y-133702380D01*
X101666666Y-132702380D02*
X102333333Y-132702380D01*
X101904761Y-133702380D01*
%TO.C,D6*%
X97261904Y-133702380D02*
X97261904Y-132702380D01*
X97500000Y-132702380D01*
X97642857Y-132750000D01*
X97738095Y-132845238D01*
X97785714Y-132940476D01*
X97833333Y-133130952D01*
X97833333Y-133273809D01*
X97785714Y-133464285D01*
X97738095Y-133559523D01*
X97642857Y-133654761D01*
X97500000Y-133702380D01*
X97261904Y-133702380D01*
X98690476Y-132702380D02*
X98500000Y-132702380D01*
X98404761Y-132750000D01*
X98357142Y-132797619D01*
X98261904Y-132940476D01*
X98214285Y-133130952D01*
X98214285Y-133511904D01*
X98261904Y-133607142D01*
X98309523Y-133654761D01*
X98404761Y-133702380D01*
X98595238Y-133702380D01*
X98690476Y-133654761D01*
X98738095Y-133607142D01*
X98785714Y-133511904D01*
X98785714Y-133273809D01*
X98738095Y-133178571D01*
X98690476Y-133130952D01*
X98595238Y-133083333D01*
X98404761Y-133083333D01*
X98309523Y-133130952D01*
X98261904Y-133178571D01*
X98214285Y-133273809D01*
%TO.C,D5*%
X93761904Y-133702380D02*
X93761904Y-132702380D01*
X94000000Y-132702380D01*
X94142857Y-132750000D01*
X94238095Y-132845238D01*
X94285714Y-132940476D01*
X94333333Y-133130952D01*
X94333333Y-133273809D01*
X94285714Y-133464285D01*
X94238095Y-133559523D01*
X94142857Y-133654761D01*
X94000000Y-133702380D01*
X93761904Y-133702380D01*
X95238095Y-132702380D02*
X94761904Y-132702380D01*
X94714285Y-133178571D01*
X94761904Y-133130952D01*
X94857142Y-133083333D01*
X95095238Y-133083333D01*
X95190476Y-133130952D01*
X95238095Y-133178571D01*
X95285714Y-133273809D01*
X95285714Y-133511904D01*
X95238095Y-133607142D01*
X95190476Y-133654761D01*
X95095238Y-133702380D01*
X94857142Y-133702380D01*
X94761904Y-133654761D01*
X94714285Y-133607142D01*
%TO.C,D4*%
X90261904Y-133702380D02*
X90261904Y-132702380D01*
X90500000Y-132702380D01*
X90642857Y-132750000D01*
X90738095Y-132845238D01*
X90785714Y-132940476D01*
X90833333Y-133130952D01*
X90833333Y-133273809D01*
X90785714Y-133464285D01*
X90738095Y-133559523D01*
X90642857Y-133654761D01*
X90500000Y-133702380D01*
X90261904Y-133702380D01*
X91690476Y-133035714D02*
X91690476Y-133702380D01*
X91452380Y-132654761D02*
X91214285Y-133369047D01*
X91833333Y-133369047D01*
%TO.C,D3*%
X86761904Y-133702380D02*
X86761904Y-132702380D01*
X87000000Y-132702380D01*
X87142857Y-132750000D01*
X87238095Y-132845238D01*
X87285714Y-132940476D01*
X87333333Y-133130952D01*
X87333333Y-133273809D01*
X87285714Y-133464285D01*
X87238095Y-133559523D01*
X87142857Y-133654761D01*
X87000000Y-133702380D01*
X86761904Y-133702380D01*
X87666666Y-132702380D02*
X88285714Y-132702380D01*
X87952380Y-133083333D01*
X88095238Y-133083333D01*
X88190476Y-133130952D01*
X88238095Y-133178571D01*
X88285714Y-133273809D01*
X88285714Y-133511904D01*
X88238095Y-133607142D01*
X88190476Y-133654761D01*
X88095238Y-133702380D01*
X87809523Y-133702380D01*
X87714285Y-133654761D01*
X87666666Y-133607142D01*
%TO.C,D2*%
X83261904Y-133702380D02*
X83261904Y-132702380D01*
X83500000Y-132702380D01*
X83642857Y-132750000D01*
X83738095Y-132845238D01*
X83785714Y-132940476D01*
X83833333Y-133130952D01*
X83833333Y-133273809D01*
X83785714Y-133464285D01*
X83738095Y-133559523D01*
X83642857Y-133654761D01*
X83500000Y-133702380D01*
X83261904Y-133702380D01*
X84214285Y-132797619D02*
X84261904Y-132750000D01*
X84357142Y-132702380D01*
X84595238Y-132702380D01*
X84690476Y-132750000D01*
X84738095Y-132797619D01*
X84785714Y-132892857D01*
X84785714Y-132988095D01*
X84738095Y-133130952D01*
X84166666Y-133702380D01*
X84785714Y-133702380D01*
%TO.C,D1*%
X79761904Y-133702380D02*
X79761904Y-132702380D01*
X80000000Y-132702380D01*
X80142857Y-132750000D01*
X80238095Y-132845238D01*
X80285714Y-132940476D01*
X80333333Y-133130952D01*
X80333333Y-133273809D01*
X80285714Y-133464285D01*
X80238095Y-133559523D01*
X80142857Y-133654761D01*
X80000000Y-133702380D01*
X79761904Y-133702380D01*
X81285714Y-133702380D02*
X80714285Y-133702380D01*
X81000000Y-133702380D02*
X81000000Y-132702380D01*
X80904761Y-132845238D01*
X80809523Y-132940476D01*
X80714285Y-132988095D01*
%TD*%
%LPC*%
D15*
%TO.C,J5*%
X131230000Y-99920000D03*
D16*
X133770000Y-99920000D03*
X131230000Y-102460000D03*
X133770000Y-102460000D03*
X131230000Y-105000000D03*
X133770000Y-105000000D03*
X131230000Y-107540000D03*
X133770000Y-107540000D03*
X131230000Y-110080000D03*
X133770000Y-110080000D03*
%TD*%
D17*
%TO.C,J2*%
X108270000Y-87540000D03*
X105730000Y-87540000D03*
X108270000Y-85000000D03*
X105730000Y-85000000D03*
X108270000Y-82460000D03*
X105730000Y-82460000D03*
%TD*%
D18*
%TO.C,Y2*%
X109000000Y-96650000D03*
X109000000Y-105850000D03*
%TD*%
D19*
%TO.C,Y1*%
X74900000Y-107000000D03*
X84100000Y-107000000D03*
%TD*%
D20*
%TO.C,J8*%
X65000000Y-74750000D03*
X65000000Y-71250000D03*
X65000000Y-81750000D03*
X65000000Y-78250000D03*
X65000000Y-85250000D03*
X65000000Y-88750000D03*
%TD*%
%TO.C,J7*%
X65000000Y-114750000D03*
X65000000Y-111250000D03*
X65000000Y-121750000D03*
X65000000Y-118250000D03*
X65000000Y-125250000D03*
X65000000Y-128750000D03*
%TD*%
D21*
%TO.C,J6*%
X133000000Y-79000000D03*
D22*
X130700000Y-83470000D03*
D23*
X128160000Y-82450000D03*
D22*
X130700000Y-85510000D03*
X128160000Y-84490000D03*
X130700000Y-87550000D03*
D21*
X133000000Y-91000000D03*
D22*
X128160000Y-86530000D03*
%TD*%
D15*
%TO.C,J4*%
X118770000Y-110080000D03*
D16*
X116230000Y-110080000D03*
X118770000Y-107540000D03*
X116230000Y-107540000D03*
X118770000Y-105000000D03*
X116230000Y-105000000D03*
X118770000Y-102460000D03*
X116230000Y-102460000D03*
X118770000Y-99920000D03*
X116230000Y-99920000D03*
%TD*%
D15*
%TO.C,J3*%
X116230000Y-82460000D03*
D16*
X118770000Y-82460000D03*
X116230000Y-85000000D03*
X118770000Y-85000000D03*
X116230000Y-87540000D03*
X118770000Y-87540000D03*
%TD*%
D24*
%TO.C,E1*%
X114270000Y-121190000D03*
X114270000Y-126270000D03*
X114270000Y-128810000D03*
X114270000Y-123730000D03*
X110730000Y-121190000D03*
X110730000Y-123730000D03*
X110730000Y-128810000D03*
X110730000Y-126270000D03*
%TD*%
D23*
%TO.C,D8*%
X105000000Y-128700000D03*
X105000000Y-131300000D03*
%TD*%
%TO.C,D7*%
X101500000Y-128700000D03*
X101500000Y-131300000D03*
%TD*%
%TO.C,D6*%
X98000000Y-128700000D03*
X98000000Y-131300000D03*
%TD*%
%TO.C,D5*%
X94500000Y-128700000D03*
X94500000Y-131300000D03*
%TD*%
%TO.C,D4*%
X91000000Y-128700000D03*
X91000000Y-131300000D03*
%TD*%
%TO.C,D3*%
X87500000Y-128700000D03*
X87500000Y-131300000D03*
%TD*%
%TO.C,D2*%
X84000000Y-128700000D03*
X84000000Y-131300000D03*
%TD*%
%TO.C,D1*%
X80500000Y-128700000D03*
X80500000Y-131300000D03*
%TD*%
M02*
